<svg width="204" height="145" viewBox="0 0 204 145" fill="none" xmlns="http://www.w3.org/2000/svg">
<path d="M22.3743 75.0664L7.70441 95.1153L4.60742 83.3794L9.6604 59.9075L22.3743 38.3916L37.5333 25.0257L48.6172 19.1577L57.5822 15.8977L67.0361 35.6206L78.9351 54.5285L89.367 63.0045L121.152 58.7665L128.813 48.9865L138.756 32.5236L148.21 15.8977L161.576 21.9287L177.061 32.5236L191.893 54.0395L199.717 79.7934L196.783 95.1153L181.462 74.0884L162.554 67.0794C160.435 72.6214 155.284 83.7054 151.633 83.7054C149.286 83.7054 144.135 78.5981 141.853 76.0444L138.756 74.9034L137.126 74.0884L135.496 76.3704C135.441 78.9784 134.811 84.3248 132.725 84.8464C131.29 85.2376 127.889 82.836 126.368 81.5864L123.76 82.7274L69.1551 79.3044L68.5031 74.4144L61.9831 76.2074C60.8965 78.8154 57.68 84.0314 53.5072 84.0314C49.3344 84.0314 43.2926 70.4481 40.7932 63.6565C39.3263 64.3085 35.2839 66.0689 30.8503 67.8944C26.4167 69.72 23.3523 73.4364 22.3743 75.0664Z" fill="#009182"/>
<mask id="mask0_327_15" style="mask-type:alpha" maskUnits="userSpaceOnUse" x="4" y="15" width="196" height="81">
<path d="M22.3743 75.0664L7.70441 95.1153L4.60742 83.3794L9.6604 59.9075L22.3743 38.3916L37.5333 25.0257L48.6172 19.1577L57.5822 15.8977L67.0361 35.6206L78.9351 54.5285L89.367 63.0045L121.152 58.7665L128.813 48.9865L138.756 32.5236L148.21 15.8977L161.576 21.9287L177.061 32.5236L191.893 54.0395L199.717 79.7934L196.783 95.1153L181.462 74.0884L162.554 67.0794C160.435 72.6214 155.284 83.7054 151.633 83.7054C149.286 83.7054 144.135 78.5981 141.853 76.0444L138.756 74.9034L137.126 74.0884L135.496 76.3704C135.441 78.9784 134.811 84.3248 132.725 84.8464C131.29 85.2376 127.889 82.836 126.368 81.5864L123.76 82.7274L69.1551 79.3044L68.5031 74.4144L61.9831 76.2074C60.8965 78.8154 57.68 84.0314 53.5072 84.0314C49.3344 84.0314 43.2926 70.4481 40.7932 63.6565C39.3263 64.3085 35.2839 66.0689 30.8503 67.8944C26.4167 69.72 23.3523 73.4364 22.3743 75.0664Z" fill="#009182"/>
</mask>
<g mask="url(#mask0_327_15)">
<path d="M15.8543 83.7054L15.3653 92.5073L19.7663 105.058L6.07436 95.2783L5.42236 72.4584L12.4313 52.7355L26.9383 29.7527L44.7052 21.1137L57.2561 15.2457L66.8731 38.7176L79.913 55.9955L95.7239 66.1015L117.077 60.0705L133.377 47.3566L142.994 17.0387L150.981 15.5717L172.823 26.4927L185.373 41.3256L196.783 63.9825L198.576 94.1373L194.501 97.0713L189.611 87.1284C185.754 75.3924 177.712 51.2033 176.409 48.3346C175.105 45.4658 172.062 42.4666 170.704 41.3256C169.128 40.0759 164.379 37.218 157.99 35.7836C158.12 37.3484 158.913 47.7369 159.294 52.7355C158.153 60.2878 154.99 76.9246 151.47 83.0534C147.558 81.0974 146.254 70.9371 146.091 66.1015L136.148 63.3305L131.584 69.8505L118.707 71.3174L79.913 74.9034L77.957 77.3484L74.697 73.1104L68.014 66.5905C64.6454 63.8738 58.0385 59.6467 58.5601 64.4715C59.2121 70.5024 55.6261 83.7054 52.6921 83.7054C45.2594 64.6671 45.1398 43.8249 46.0092 35.7836C45.8462 35.838 44.0858 36.4682 38.3482 38.5546C32.6106 40.641 29.3289 46.0526 28.4052 48.4976L15.8543 83.7054Z" fill="#1D5A6D"/>
</g>
<path d="M46.3359 33.6647C46.1185 36.49 45.6839 42.8904 45.6839 45.8896C45.6839 49.6386 46.3359 54.6916 46.3359 56.8106C46.3359 58.5058 45.0319 62.0809 44.3799 63.6565M53.5078 24.8627C53.1275 26.5471 52.1712 30.4047 51.3888 32.3607C50.6065 34.3167 51.8235 45.455 52.5298 50.7796M152.122 37.0877C152.72 38.609 153.85 42.4014 153.589 45.4006C153.263 49.1496 152.448 51.2686 152.285 52.5726C152.155 53.6158 152.122 56.0499 152.122 57.1366M158.316 39.8587L159.294 48.4976C159.403 51.2143 159.164 58.571 157.338 66.2645" stroke="#113941" stroke-width="4.05314" stroke-linecap="round"/>
<path fill-rule="evenodd" clip-rule="evenodd" d="M100.452 15.7347L102.407 15.4087L105.504 14.7567L112.024 13.6157L116.914 12.8007L118.218 13.4527L118.707 15.2457L118.055 16.2237L116.425 17.2017L112.839 18.5057L107.297 21.1137C108.221 23.45 110.068 28.2856 110.068 28.9376C110.068 29.5896 110.503 31.5999 110.72 32.5236L111.698 39.0436V45.5635V54.2025V58.7665C112.35 58.1145 113.785 56.7779 114.306 56.6475C114.828 56.5171 117.892 55.6152 119.359 55.1805L121.804 52.2465L125.227 48.9865L128.161 45.8895L130.932 43.6075L132.562 39.8586L135.822 32.5236L141.038 20.9507L140.223 16.8757V15.8977L140.386 15.5717L143.157 14.2677L143.646 13.6157L144.298 13.1267V11.9857L143.972 7.91073L144.135 6.76973L144.461 5.62874L145.113 3.02075H145.928L147.232 3.83575L148.699 5.95474L151.307 11.3337L153.263 11.6597L154.241 12.6377L157.664 16.3867L158.968 18.6687L160.598 19.1577L166.14 21.4397L172.66 24.5366C173.692 25.1886 175.822 26.5252 176.083 26.6556C176.409 26.8186 179.669 29.1006 179.669 29.2636C179.669 29.394 181.625 31.4913 182.603 32.5236L186.189 36.9246L186.678 37.9026L189.123 42.3036C192.383 48.7149 198.936 61.5701 199.066 61.7005C199.196 61.8309 199.881 65.0148 200.207 66.5904L201.185 71.1544L202 74.7404L201.837 76.8594L202 80.9344L201.837 85.9873L201.511 90.2253L201.185 94.1373L199.881 96.2563L197.762 98.5383L196.458 98.3753L195.969 97.3973L196.132 92.8333L196.458 88.9213L196.784 85.3353V80.6084V77.1854L195.806 71.8064L194.991 68.2204L192.709 62.0265L190.427 57.1365L188.471 53.0615L185.537 47.5195L181.299 41.3256L176.409 34.8056L173.964 31.8716L172.171 30.7306L166.466 28.4486L158.479 25.5146L155.871 24.2106L154.567 22.2547L153.263 20.7877L149.025 20.4617L146.091 21.6027L145.113 23.3956L144.624 25.5146L143.157 30.7306L140.223 40.6736L138.919 46.0525L137.941 47.1935L134.844 49.1495L131.421 51.1055L128.487 53.0615L127.02 55.0175L126.368 57.9515L125.879 60.7225L125.553 63.3304L124.412 66.1014L129.302 69.8504L132.725 70.0134L134.518 69.1984L135.985 67.8944L136.963 66.1014L137.126 64.3084L136.701 63.3304L135.007 63.4934L132.888 63.6564H131.91L131.095 60.0705L132.073 58.6035L133.54 58.4405L134.681 57.7885L135.822 55.5065L137.452 52.5725L138.593 51.4315L140.386 50.2905L142.831 49.8015L144.787 50.6165L145.765 51.9205L146.58 53.5505L146.743 55.5065V57.9515V59.0925L148.699 59.4185L150.492 61.2115L150.655 62.8414L150.329 63.9824L149.351 64.7974L147.721 65.4494L145.439 66.1014L144.298 66.4274L142.831 66.5904L142.505 69.0354L141.364 71.4804L139.408 73.7624L136.311 76.3704L133.54 77.1854C132.78 77.2397 131.258 77.3158 131.258 77.1854C131.258 77.055 129.194 76.5877 128.161 76.3704L126.531 75.7184L125.879 77.5114L124.901 78.4894L125.879 82.2383L127.509 88.4323L128.487 92.0183L132.236 92.8333L143.157 95.2783L148.047 96.0933L155.382 96.4193L158.153 95.7673L162.065 94.3003L165.162 91.8553L165.651 91.0403L168.585 89.5733L169.237 91.8553L168.096 95.2783L165.162 100.005L160.435 103.265L155.871 105.221L151.959 105.71L148.047 105.547H143.809L138.756 105.221L136.637 104.732L138.267 106.199C139.408 107.232 141.821 109.72 142.342 111.415C142.994 113.534 143.809 116.631 142.994 118.75C142.342 120.445 140.767 122.716 140.06 123.64L137.941 125.107L139.408 129.997C140.984 131.627 144.168 135.213 144.298 136.517C144.429 137.821 144.57 140.103 144.624 141.081L130.769 142.222H126.531L119.685 123.966L116.425 126.574L113.002 128.041L107.949 129.834L104.363 130.16L98.1695 129.834L91.6496 128.367L87.7376 126.9L83.9886 124.455L82.1956 125.433L82.8476 127.063L83.9886 130.16L87.0856 133.583L88.8786 137.332V138.799L74.8606 142.059L70.9487 141.896L64.4287 124.455L65.2437 122.336L51.7148 115.164C50.3021 114.404 47.1834 112.556 46.0098 111.252C45.8267 111.049 45.6361 110.861 45.4423 110.669C44.0826 109.328 42.5665 107.831 42.4238 99.8423C42.2934 92.5399 50.1934 85.4983 54.1597 82.8903C56.2244 81.369 60.6471 78.2286 61.8207 77.8374C62.9943 77.4462 65.8957 77.3484 67.1997 77.3484L76.3276 78.4894L79.9136 78.8154L81.0546 76.6964L79.4246 74.7404L77.9576 72.6214H75.5126L73.2306 72.2954L70.6227 71.3174L67.3627 69.1984L65.2437 66.7534L63.9397 64.4714L61.9837 65.1234L59.5387 64.9604L58.0717 63.9824L57.0937 62.0265C56.4417 61.8635 55.0073 61.3419 54.4857 60.5595C53.9641 59.7771 53.0731 57.2995 52.6927 56.1585C53.4534 55.7238 55.0725 54.8219 55.4637 54.6915C55.8549 54.5611 55.8441 54.2025 55.7897 54.0395C55.3551 52.9528 54.4857 50.7143 54.4857 50.4535C54.4857 48.9865 54.8117 46.2155 55.7897 45.5635C56.5721 45.0419 58.2891 44.5855 59.0497 44.4225L59.5387 44.5855L61.6577 49.3125C61.6034 49.3668 61.4947 49.5081 61.4947 49.6385C61.4947 49.7689 62.1467 50.4535 62.4727 50.7795L64.2657 52.0835L65.8957 50.6165L67.8517 49.8015L69.3187 49.6385L68.6667 48.8235L65.5697 46.2155L64.7547 43.2815L63.4507 38.0656L59.3757 24.0476L58.0717 21.6027L56.1157 20.6247L53.8337 20.4617L51.5518 20.7877L49.7588 22.5807L47.9658 24.6996L43.5648 26.4926L39.9788 27.7966L35.7408 29.1006L32.4808 30.4046L31.0139 31.7086L29.5469 33.1756L25.4719 38.8806L24.0049 40.8366L20.7449 45.0745L18.6259 48.1715L16.0179 53.5505L12.4319 61.3745L10.476 65.4494L9.00897 70.5024L7.86797 76.0444L7.37897 80.9344L7.70497 87.9433L8.35697 93.3223C8.35697 94.6806 8.32437 97.4625 8.19397 97.7233C8.06357 97.9841 7.59631 98.1579 7.37897 98.2123L5.58598 97.5603L3.62999 94.7893L2.652 89.8993L2 79.3044V76.5334L2.815 73.5994L4.28199 67.4054L5.09698 62.8414L7.05297 58.4405L13.0839 46.3785L14.7139 43.4445L17.8109 37.7396L19.9299 35.2946L24.8199 30.0786L28.5689 26.4926L32.4808 24.0476L36.7188 22.5807L41.7718 20.4617L45.6838 18.5057L46.6618 16.3867L48.7808 13.4527L51.5518 11.4967L53.3447 11.3337L54.9747 6.44373L57.7457 3.34675L59.0497 3.18375L59.8647 4.81374L60.5167 8.56272L60.3537 13.6157L62.1467 14.2677L64.1027 15.7347L63.9397 18.6687L63.6137 21.2767L73.2306 42.9555C75.8386 45.4005 81.348 50.6491 82.5216 52.0835C83.6952 53.5179 84.6406 54.6372 84.9666 55.0175C86.7596 55.2348 90.5738 55.9629 91.4865 57.1365C92.3993 58.3101 93.0622 59.7988 93.2795 60.3965C94.7465 58.3861 97.6479 53.6809 97.5175 50.9425C97.3871 48.2041 96.1592 42.0862 95.5615 39.3696L92.9535 38.7176L88.0636 36.7616H85.7816L82.8476 37.7396L80.8916 37.4136L79.0986 35.6206L78.4466 33.3386L76.0016 33.0126L74.2086 30.0786L73.8826 27.3076L74.6976 25.0256L76.3276 23.2326L78.4466 23.0696L81.3806 23.5586L84.8036 22.7437L87.5746 20.1357L90.6716 17.2017L93.7685 15.8977L96.8655 15.7347H100.452ZM68.0146 59.4184L69.8076 58.1144L70.4596 56.1585L72.9046 54.8545L73.8826 53.3875V52.2465H74.8605L77.4685 54.8545L78.1205 57.4625L78.9355 62.0264L79.7505 64.9604H76.4905L72.9046 64.6344L70.4596 62.0264L68.0146 59.4184Z" fill="#FC9435"/>
<path d="M102.082 14.1047L99.3105 15.4087L100.126 15.8977L111.372 13.7787L114.143 11.3337L114.469 10.5187L113.491 9.37773L112.35 8.88873L109.253 10.5187L102.082 14.1047Z" fill="#AF232C"/>
<path d="M100.126 19.3206C100.126 19.5814 99.2563 19.864 98.8216 19.9726L98.4956 19.8096L97.1916 20.9506L98.1696 24.6996C98.2239 24.8083 98.5934 24.9604 99.6366 24.6996C100.941 24.3736 100.615 22.9066 100.615 22.5806C100.615 22.2546 101.267 22.0916 101.43 20.9506C101.593 19.8096 100.778 18.6686 100.452 18.6686C100.126 18.6686 100.126 18.9946 100.126 19.3206Z" fill="#CA4246"/>
<path d="M81.3807 34.4796C80.4679 34.4796 79.5877 33.3929 79.2617 32.8496L78.4467 33.3386L78.7727 34.8056L79.2617 36.1096L81.7067 37.9025L83.1737 37.5765L85.4557 36.9245H87.7377L90.9976 37.7395L93.2796 38.8805L95.5616 39.3695C96.0506 41.2712 97.0938 46.0851 97.3546 50.1275C100.615 49.6059 102.516 46.1068 103.06 44.4225C103.277 43.0098 103.679 39.3695 103.549 36.1096C105.831 34.9686 107.135 33.8276 107.298 31.7086C107.461 29.5896 105.668 28.1226 103.712 27.9596C101.756 27.7966 99.1476 31.7086 98.0066 32.8496C96.8656 33.9906 95.3986 34.1536 94.4206 34.1536C93.4426 34.1536 88.2267 33.0126 86.1077 33.0126C83.9887 33.0126 82.5217 34.4796 81.3807 34.4796Z" fill="#CA4246"/>
<path d="M58.3978 59.7444C58.137 59.614 55.0292 59.2554 53.5078 59.0924L53.8338 59.7444L55.3008 61.3744L57.2568 62.0264V62.5154L57.7458 63.6564L58.8868 64.7974L61.0058 64.9604L62.7988 64.7974L63.7768 64.3084L64.5918 66.1014L68.0148 69.6874L70.6227 71.6434L74.2087 72.4584L78.1207 72.7844L79.0987 74.5774L81.2177 76.5334L79.4247 80.1193C79.2074 81.532 79.0661 84.5529 80.2397 85.3353C81.7067 86.3133 86.4337 78.3263 87.2487 76.5334C88.0637 74.7404 87.5747 72.4584 86.4337 70.6654C85.5209 69.231 82.576 69.1984 81.2177 69.3614C79.9137 69.4157 76.3277 69.0354 72.4157 67.0794C68.5038 65.1234 67.8518 61.1571 68.0148 59.4184L69.9707 57.7884L70.2967 56.3215L70.9487 56.1585C71.4921 55.7781 72.6113 55.0175 72.7417 55.0175C72.8721 55.0175 73.6654 54.0395 74.0457 53.5505C74.0457 52.9528 73.5567 51.7575 71.6007 51.7575C69.1557 51.7575 65.7328 53.5505 65.2438 53.5505C64.8526 53.5505 64.4288 52.5725 64.2658 52.0835L59.5388 48.3345C59.1041 48.2802 58.1696 48.2693 57.9088 48.6605C57.648 49.0517 57.8001 52.7355 57.9088 54.5285C58.3978 54.6915 59.5388 55.1153 60.1908 55.5065C60.8428 55.8977 61.2231 56.7561 61.3318 57.1364C61.3861 57.4081 61.4948 58.1144 61.4948 58.7664C61.4948 59.5814 58.7238 59.9074 58.3978 59.7444Z" fill="#CA4246"/>
<path d="M123.76 66.1014C121.674 68.7094 119.631 69.2527 118.87 69.1984L124.738 78.6523C125.119 78.3807 126.01 77.4787 126.531 76.0444C126.857 76.5334 130.606 77.3483 132.399 77.1853C134.192 77.0224 135.659 76.5334 136.8 76.0444C137.713 75.6532 139.571 73.9254 140.386 73.1104L142.505 68.5464L142.668 66.9164C142.071 65.9927 140.549 63.9498 139.245 63.1674C137.941 62.385 136.855 59.7988 136.474 58.6034L135.007 57.9514L132.562 58.4404L129.954 61.2114L132.236 63.8194L134.355 63.9824L136.474 63.4934L136.963 64.1454V65.7754L135.659 68.2204L133.377 69.8504L130.117 70.1764C129.574 70.0134 127.542 68.9702 123.76 66.1014Z" fill="#CA4246"/>
<path d="M145.276 64.3084C144.624 64.5692 144.244 65.7211 144.135 66.2644H145.928C146.798 65.9384 148.569 65.2864 148.699 65.2864C148.83 65.2864 149.732 64.3084 150.166 63.8194L150.492 62.5154L150.166 60.8854C149.623 60.3964 148.569 59.4836 148.699 59.7444C148.862 60.0704 148.862 61.8634 148.699 62.3524C148.536 62.8414 146.091 63.9824 145.276 64.3084Z" fill="#CA4246"/>
<path d="M142.505 57.1364V60.8854L146.254 59.2554L146.743 58.6034L146.58 55.1805V53.2245L145.439 51.4315C144.733 51.0511 143.223 50.5187 142.831 51.4315C142.44 52.3443 140.278 53.7678 139.245 54.3655L138.756 54.8545L139.245 56.8104L140.386 56.6474L142.179 55.8325L142.505 57.1364Z" fill="#CA4246"/>
<path d="M68.1778 100.983C68.6668 106.96 71.5355 119.044 79.0987 119.565C82.2283 119.304 85.184 116.957 86.2707 115.816C87.0857 115.001 88.9438 113.371 89.8566 113.371C90.7694 113.371 90.0196 114.892 89.5306 115.653L88.2267 118.913L85.7817 122.499L82.3587 125.27L83.8257 129.834L86.5967 132.768C84.3147 132.659 78.9031 132.638 75.5127 133.42C72.1223 134.202 69.7534 135.919 68.9928 136.68L64.4288 124.455L67.1998 118.424C67.0349 117.88 66.8231 117.111 66.6116 116.231L66.8738 117.935L66.5478 119.402L65.0808 122.336C59.5388 119.402 48.1615 113.273 46.9879 112.23C45.5209 110.926 42.7499 108.155 42.5869 103.591C42.4565 99.94 43.2932 95.9846 43.7279 94.4633C45.3579 97.7233 49.2046 104.504 51.5518 105.547C53.899 106.59 61.8751 108.59 65.5698 109.459L65.7237 110.46C65.7193 110.225 65.722 110 65.7328 109.785C65.8632 107.177 67.4171 102.831 68.1778 100.983Z" fill="#CA4246"/>
<path d="M133.866 103.265L130.443 99.0272L130.117 98.5382C135.768 99.8966 148.862 102.222 156.034 100.657C164.999 98.7012 167.444 92.0183 167.444 91.8553C167.444 91.7249 168.531 91.5836 169.074 91.5293V92.0183L167.77 95.6043L165.814 98.8642L163.532 101.309L159.783 103.428L156.849 104.895L153.426 105.547H146.743L139.571 105.058L137.289 105.221L133.866 103.265Z" fill="#CA4246"/>
<path d="M129.465 105.221C130.226 110.057 133.54 120.348 140.712 122.825C138.809 124.638 138.055 125.191 137.827 125.25L139.571 130.323C138.485 130.432 135.79 130.942 133.703 132.116C131.617 133.29 131.856 136.191 132.236 137.495L131.258 142.222H126.532L119.849 124.292C121.098 122.879 123.63 119.989 123.761 119.728C123.891 119.467 126.423 114.838 127.673 112.556L128.977 108.155L129.465 105.221Z" fill="#CA4246"/>
<path d="M107.298 20.9506L104.527 19.3206C106.32 18.8316 110.721 17.5928 113.981 16.5496C117.241 15.5065 118.056 14.159 118.056 13.6157L118.545 13.7787L118.707 15.7347L117.404 16.5496L111.047 19.4836L107.298 20.9506Z" fill="#CA4246"/>
<path d="M74.8606 104.569C74.5998 102.483 77.0339 101.092 78.2836 100.657C81.0546 100.331 82.0326 105.058 82.3586 106.851C82.6846 108.644 83.9886 113.208 80.4026 113.697C76.8166 114.186 75.1866 107.177 74.8606 104.569Z" fill="#FFC468"/>
<path d="M133.703 110.926C133.573 108.84 134.844 107.775 135.496 107.503C137.289 107.666 138.756 111.578 138.756 112.882C138.756 114.186 137.615 115.327 136.311 115.327C135.007 115.327 133.866 113.534 133.703 110.926Z" fill="#FFC468"/>
<path d="M63.6137 79.4674C62.5705 79.0762 62.6357 78.1091 62.7987 77.6744L63.6137 77.5114L68.9926 77.6744L75.0236 78.1634L79.9136 79.1414L78.4466 82.5644C73.937 81.6951 64.6569 79.8586 63.6137 79.4674Z" fill="#FFC468"/>
<path d="M57.7457 56.1585C56.8329 55.7673 55.9527 56.2129 55.6267 56.4845C55.7897 57.4625 56.1157 57.6255 56.9307 57.9515C57.7457 58.2775 58.7237 58.1145 58.8867 57.7885C59.0497 57.4625 58.8867 56.6475 57.7457 56.1585Z" fill="#FFC468"/>
<path d="M82.3586 66.5905C82.3586 65.6777 83.9885 65.4495 84.8036 65.4495C85.6185 65.4495 87.2485 65.6777 87.2485 66.5905C87.2485 67.5033 85.6185 67.7315 84.8036 67.7315C83.9885 67.7315 82.3586 67.5033 82.3586 66.5905Z" fill="#FFC468"/>
<path d="M117.892 66.2645C117.892 65.6125 119.088 65.4495 119.685 65.4495C120.283 65.4495 121.478 65.6125 121.478 66.2645C121.478 66.9165 120.283 67.0795 119.685 67.0795C119.088 67.0795 117.892 66.9165 117.892 66.2645Z" fill="#FFC468"/>
<path d="M128.65 93.8113L128.161 92.0183L131.258 92.3443L136.637 93.6483L140.875 94.4633L145.439 95.6043L148.21 96.4193H152.285L156.034 96.2563L160.761 94.9523L164.021 93.1593L165.651 91.0404C165.868 91.0947 166.303 91.3012 166.303 91.6924C164.086 96.3867 157.447 97.669 154.404 97.7233C151.959 97.669 146.222 97.4299 142.831 96.9083C139.441 96.3867 131.965 94.6263 128.65 93.8113Z" fill="#FFC468"/>
<path d="M91.6495 25.8407L91.8125 25.3517L94.0945 24.6997C95.9418 24.6453 99.7017 24.5367 99.9625 24.5367C100.288 24.5367 101.429 24.8627 101.429 25.5147C101.429 26.1667 100.125 26.3297 99.6365 26.4927C99.1475 26.6557 97.1915 28.6117 96.7025 28.6117C96.3113 28.6117 93.1708 26.7643 91.6495 25.8407Z" fill="#FFC468"/>
<path d="M78.2836 26.9817C76.8492 27.1121 75.4039 25.406 74.8606 24.5367L76.6536 23.2327L77.7946 23.0697L80.0766 23.3957H82.8475L85.7815 22.2547L87.2485 20.4617L88.8785 18.3427L91.4865 16.7127C92.3558 16.4411 94.1597 15.9303 94.4205 16.0607C94.7465 16.2237 94.5835 17.3647 94.2575 17.6907C93.9967 17.9515 92.5188 20.0814 91.8125 21.1137V23.8847L90.5085 25.6777L89.3675 25.8407L88.2265 24.8627C88.1179 24.6997 87.8679 24.1455 87.7375 23.2327C86.9225 24.6997 85.1295 24.8627 82.8475 24.8627C80.5656 24.8627 80.0766 26.8187 78.2836 26.9817Z" fill="#FFC468"/>
<path d="M102.896 17.6907C100.94 17.9515 99.6908 16.4954 99.3105 15.7347L108.764 14.2677L116.099 12.9637C116.262 13.1267 116.588 13.4853 116.588 13.6157C116.588 13.7787 105.341 17.3647 102.896 17.6907Z" fill="#FFC468"/>
<path d="M113.654 60.2335C112.35 59.8423 112.133 58.7665 112.187 58.2775L112.024 58.1145L114.143 56.8105L116.751 55.8325L119.033 55.3435L120.5 53.5505L124.086 49.4756L129.302 45.0746L130.932 43.4446L131.91 40.9996L133.703 36.9246L135.985 32.0346L138.267 26.8187L140.386 22.5807L141.038 20.9507L140.549 19.1577L140.386 15.8977L141.69 14.9197L143.972 13.6157V8.56276L144.461 4.48778C144.787 3.99879 145.504 3.05339 145.765 3.18379C146.026 3.31419 146.091 8.7801 146.091 11.4967C146.58 11.4967 147.591 11.6597 147.721 12.3117C147.852 12.9637 146.472 13.6701 145.765 13.9417L145.113 15.2457C144.787 15.4631 143.94 16.0607 143.157 16.7127C142.179 17.5277 142.342 17.3647 142.505 19.3207C142.636 20.8855 142.125 22.798 141.853 23.5587C140.169 28.5573 136.702 38.7828 136.311 39.6956C135.92 40.6084 134.301 43.1186 133.54 44.2596L123.597 54.0395L118.544 59.2555C117.458 59.7445 114.958 60.6247 113.654 60.2335Z" fill="#FFC468"/>
<path d="M145.113 62.6785C144.592 62.0265 145.548 61.2115 146.091 60.8855C146.526 60.6138 147.493 60.2335 147.884 60.8855C148.275 61.5375 147.613 62.2438 147.232 62.5155C146.743 62.8415 145.635 63.3305 145.113 62.6785Z" fill="#FFC468"/>
<path d="M176.409 29.7527C175.235 28.8399 172.877 25.7863 171.845 24.3737L173.475 24.6997L176.083 26.3297L178.691 28.6117L182.766 33.0126L185.863 36.7616C186.352 37.3593 187.134 38.522 186.352 38.3916C185.374 38.2286 184.559 37.4136 182.766 35.2946C180.973 33.1756 177.876 30.8937 176.409 29.7527Z" fill="#FFC468"/>
<path d="M72.5786 44.0966C72.8394 43.7054 73.5566 43.8249 73.8826 43.9336H74.3716L76.9796 46.3786L79.5876 49.1496L82.3586 51.7575L84.8036 54.8545L87.2485 55.5065L90.0195 56.4845L91.8125 57.4625L92.7905 59.5815C92.4645 60.0705 91.3887 61.4071 89.6935 62.8415C89.2045 60.7225 86.9225 59.2555 85.1295 58.4405C83.3366 57.6255 82.8475 55.9955 82.0326 54.6915C81.2176 53.3875 76.8166 49.6386 76.0016 49.1496C75.3496 48.7584 73.4479 46.5959 72.5786 45.5636C72.4699 45.2376 72.3178 44.4878 72.5786 44.0966Z" fill="#FFC468"/>
<path d="M6.07494 62.8415C5.81414 62.8415 5.64027 62.2982 5.58594 62.0265L7.54193 57.2995L12.2689 47.6826L18.6259 36.7616L23.0268 31.8716L27.7538 27.1447L32.1548 24.3737L35.0888 23.2327L39.3268 21.4397L44.2167 19.1577L45.6837 18.3427L46.9877 15.8977L49.1067 13.6157L50.2477 12.3117L53.0187 11.6597L53.5077 10.3558L56.1157 5.13978C56.496 4.70512 57.4197 3.80319 58.0717 3.67279C58.7237 3.54239 58.126 9.81242 57.7457 12.9637C57.637 12.9094 57.2241 12.7681 56.4417 12.6377C55.4637 12.4747 54.3227 13.6157 53.8337 14.2677C53.3447 14.9197 50.4107 16.2237 49.9217 16.3867C49.5305 16.5171 48.9981 17.5277 48.7807 18.0167C47.8027 19.5924 44.3145 23.1675 38.1858 24.8627C30.5248 26.9817 26.6128 31.8716 25.4718 33.0126C24.3308 34.1536 20.0929 39.8586 19.4409 40.3476C18.7889 40.8366 14.7139 46.8676 14.0619 47.8456C13.5403 48.628 11.4539 52.9529 10.4759 55.0175C9.71525 56.9192 8.06353 60.8855 7.54193 61.5375C6.88993 62.3525 6.40093 62.8415 6.07494 62.8415Z" fill="#FFC468"/>
<path d="M99.1473 25.6776L90.5083 26.0036L92.7903 23.0696C93.9313 22.3633 96.5067 20.8854 97.6803 20.6246C98.7235 21.1462 99.0929 24.2106 99.1473 25.6776Z" fill="#FFFEFA"/>
<mask id="mask1_327_15" style="mask-type:alpha" maskUnits="userSpaceOnUse" x="90" y="20" width="10" height="7">
<path d="M99.1473 25.6776L90.5083 26.0036L92.7903 23.0696C93.9313 22.3633 96.5067 20.8854 97.6803 20.6246C98.7235 21.1462 99.0929 24.2106 99.1473 25.6776Z" fill="#FFFEFA"/>
</mask>
<g mask="url(#mask1_327_15)">
<circle cx="92.4643" cy="24.6996" r="2.93399" fill="#4BCBCE"/>
<circle cx="92.4641" cy="24.6996" r="1.30399" fill="#222327"/>
</g>
<path d="M93.9316 95.6043C91.7148 102.124 90.5087 108.536 90.1827 110.926V113.371L89.3677 116.305L88.5527 118.913L85.7817 122.499L83.8257 124.455L87.5747 126.737L91.6496 128.53L97.5176 129.997L102.408 130.16L108.276 129.671L113.981 127.878L119.849 123.966L124.575 118.587L127.835 112.393L129.139 107.503L129.954 105.873L129.628 102.45L129.302 98.0493L128.813 95.1153L127.509 89.7363C126.042 87.2913 126.694 78.8154 111.047 78.8154C98.6586 80.7714 96.7026 87.4543 93.9316 95.6043Z" fill="#EDEACB"/>
<path d="M49.5958 107.992C47.9006 106.949 44.1082 102.016 42.4238 99.6793C42.4782 101.309 42.7824 105.221 43.5648 107.829C44.3472 110.437 47.8028 112.937 49.4328 113.86L57.4198 118.261L65.0807 122.662L67.1997 117.935L66.0587 114.838C61.2774 112.991 51.291 109.035 49.5958 107.992Z" fill="#C2A86D"/>
<path d="M93.9316 113.697C91.454 111.741 90.3999 112.122 90.1826 112.556L90.0196 112.882L89.5306 116.305L88.2266 119.565L86.4336 121.847L83.8256 124.292L88.0636 126.9L92.1386 128.53L99.1475 129.997L105.179 130.16L111.372 129.019L116.914 126.085L120.663 123.151L125.227 117.446L128.161 111.904L129.791 105.221V103.102L129.302 100.168C128.297 102.292 124.451 107.451 117.892 112.067C109.709 117.828 104.69 119.076 102.408 119.239C100.126 119.402 97.0286 116.142 93.9316 113.697Z" fill="#C2A86D"/>
<path d="M147.884 103.102C141.364 103.102 134.518 101.798 131.91 101.146L133.54 103.102L135.659 104.569L137.615 104.895L140.223 105.384L143.972 105.547L149.188 105.384L151.959 105.71L156.034 105.221L159.783 103.428L164.347 100.82L167.118 97.0713L168.096 94.7893C168.368 94.1916 168.846 92.8007 168.585 92.0183C165.586 98.6687 159.729 101.744 157.175 102.45C156.795 102.668 154.404 103.102 147.884 103.102Z" fill="#C2A86D"/>
<path d="M85.4555 33.6646C84.8035 33.4038 83.8798 31.3826 83.4995 30.4046C83.7168 30.2416 84.2493 29.9482 84.6405 30.0786C85.0317 30.209 86.2162 30.3503 86.7595 30.4046L86.2705 33.5016C86.2705 33.6646 86.1075 33.9254 85.4555 33.6646Z" fill="#FBFFF9"/>
<path d="M129.139 97.2343C130.497 99.1359 133.312 103.004 133.703 103.265C133.852 103.365 134.848 103.903 136.148 104.82M124.738 123.64C127.607 127.031 133.975 126.357 136.8 125.596C137.088 125.518 137.42 125.398 137.778 125.23M97.0283 61.7005C97.6259 61.9178 98.9842 62.3525 99.6362 62.3525C100.451 62.3525 102.57 61.8635 102.896 61.5375M88.0633 22.7436C87.9003 23.287 87.6721 24.4714 88.0633 24.8626C88.5523 25.3516 89.5303 26.3296 90.3453 25.8406C91.1603 25.3516 92.6273 23.2326 93.1163 22.9066C93.5075 22.6458 97.0826 20.7333 98.8213 19.8097M78.2834 25.5146L77.4684 26.6556M99.7993 15.4087C103.82 13.2354 111.959 8.88872 112.35 8.88872C112.839 8.88872 114.632 9.86671 114.469 11.0077C113.687 11.7901 112.296 13.0724 111.698 13.6157M78.6094 33.0126C78.5007 33.6103 78.4464 35.0338 79.0984 35.9466C79.9134 37.0876 81.3803 37.9026 81.7063 37.9026C82.0323 37.9026 82.6843 38.0656 83.6623 37.5766C84.6403 37.0876 85.9443 36.5986 88.0633 36.9246C90.1823 37.2506 93.6053 39.0436 94.2573 39.2066C94.5463 39.2788 94.9314 39.3511 95.3984 39.3523M102.896 36.2726C101.592 36.9246 98.6909 38.359 97.5173 38.8806C96.7006 39.2435 95.9849 39.3539 95.3984 39.3523M105.83 27.6336C105.396 27.3076 104.265 26.6556 103.222 26.6556C102.179 26.6556 101.592 27.199 101.429 27.4706L97.1913 31.0566C96.8109 31.3283 95.7895 31.8716 94.7463 31.8716C93.7031 31.8716 92.6816 31.7629 92.3013 31.7086C90.5626 31.2196 86.8571 30.2416 85.9443 30.2416C85.0315 30.2416 84.3687 30.2416 84.1513 30.2416C83.2277 30.4046 80.9891 31.0892 79.4244 32.5236C77.4684 34.3166 75.5124 32.6866 75.1864 32.1976C74.8604 31.7086 73.8824 30.4046 74.0454 27.7966C74.2084 25.1886 75.1863 23.3956 77.1423 23.2326C79.0983 23.0696 80.7283 23.8846 82.8473 23.3956C84.9663 22.9066 85.7813 22.2546 86.2703 21.7657C86.7593 21.2767 89.8563 16.3867 94.0943 15.8977C98.3322 15.4087 99.3102 16.2237 103.059 15.4087C106.808 14.5937 116.588 12.8007 117.077 12.8007C117.566 12.8007 119.359 14.1047 118.544 15.8977C116.458 16.9409 110.177 19.8097 107.297 21.1137C108.927 24.3736 112.122 33.5342 111.861 44.0965C111.689 51.0631 111.602 55.9544 111.563 58.9295M84.1513 124.781C89.4977 129.084 98.9842 130.269 103.059 130.323C109.674 130.409 115.338 127.733 119.669 123.966M115.311 64.9604C113.727 63.3687 112.279 62.3985 111.535 62.0265C111.535 61.49 111.543 60.465 111.563 58.9295M115.311 64.9604C116.272 65.9255 117.283 67.1191 118.218 68.5464C121.315 73.2734 124.249 77.1854 124.575 78.0004C124.619 78.1091 124.714 78.392 124.849 78.8154M115.311 64.9604C117.313 64.5801 121.837 64.2432 123.923 65.9384C124.056 66.0464 124.188 66.1552 124.321 66.2644M132.236 63.8194C131.964 63.8194 131.714 63.8194 132.888 63.8194C134.062 63.8194 135.659 63.6021 136.311 63.4934C136.691 63.5478 137.387 64.0476 137.126 65.6124C136.8 67.5684 134.518 69.8504 131.747 70.1764C129.117 70.4858 126.781 68.2994 124.321 66.2644M70.7854 96.7453C67.5978 100.646 63.6397 109.228 67.2185 118.098M72.5784 125.922C69.991 123.365 68.2758 120.719 67.2185 118.098M85.7813 97.2343C90.0516 103.566 94.5615 117.188 82.3175 125.433M77.7943 127.878C79.5075 127.135 81.0083 126.315 82.3175 125.433M67.2185 118.098L65.2869 122.499M75.1863 142.059H70.9484L64.4284 124.455L65.2869 122.499M82.3175 125.433L83.8253 129.997C85.1293 131.084 87.9655 134.072 88.8783 137.332M63.7764 85.8243C63.9394 87.726 64.5914 91.6923 65.8954 92.3443M58.8864 90.0623C59.9188 90.986 62.7332 92.8007 65.7324 92.6703C68.7316 92.5399 73.2847 91.312 75.1863 90.7143C76.2187 87.8347 78.8701 81.0322 81.2173 76.8594M79.9133 79.1414C76.273 78.4894 68.2426 77.218 65.2434 77.3484C62.2442 77.4788 60.2991 78.4894 59.7014 78.9784C55.7894 81.4234 47.2809 87.5847 44.5425 92.6703C41.8041 97.7559 42.4235 104.243 43.0755 106.851C43.5645 108.264 45.3902 111.578 48.7805 113.534C52.1709 115.49 61.1974 120.326 65.2869 122.499M119.669 123.966C123.556 120.585 126.37 116.325 127.835 112.393C130.932 104.08 129.465 101.798 128.813 95.6043C128.694 94.4727 128.488 93.1942 128.228 91.8553M119.669 123.966L126.531 142.222H130.769M137.778 125.23C139.915 124.229 142.985 121.555 143.32 116.305C143.66 110.978 139.114 106.912 136.148 104.82M137.778 125.23L139.571 130.16C140.712 131.301 143.222 134.202 144.135 136.68M83.8254 77.3484C82.63 77.3484 79.783 76.4356 77.9574 72.7844C74.567 73.0452 71.2201 71.8064 69.9704 71.1544C68.3404 70.1221 64.8197 67.3402 63.7765 64.4714C61.8205 65.6124 58.8865 64.9604 58.3975 64.4714C57.9085 63.9824 57.2565 63.1674 57.2565 62.3525M59.2125 61.7005C57.4195 62.3525 53.6053 62.1895 52.6925 56.3215C53.7357 55.2783 55.3005 54.8002 55.9525 54.6915C55.1375 53.3875 53.8335 49.8993 55.1375 46.3785C55.7895 44.6833 58.2345 44.4769 59.3755 44.5855M59.2125 51.4315V49.4755C59.6636 49.5131 60.4736 49.5455 61.0595 49.4755M61.6575 49.3125C61.5369 49.3929 61.3204 49.4443 61.0595 49.4755M57.9085 54.6915C58.8865 54.6915 60.9403 55.3109 61.3315 57.7885M61.0595 49.4755L64.2655 52.2465C64.5371 51.4315 65.9281 49.8015 69.3184 49.8015M74.0454 53.2245C73.5021 54.1482 71.9916 56.0607 70.2964 56.3215C70.2964 58.2775 68.6664 59.2011 67.8514 59.4185L72.9044 64.6344L79.9134 65.0312M81.5434 65.1234L79.9134 65.0312M79.9134 66.2644C81.4646 65.0526 85.4117 63.3044 89.8565 64.8862M91.4863 65.6124C90.938 65.3172 90.3936 65.0774 89.8565 64.8862M128.228 91.8553C134.346 93.268 146.808 96.1259 147.721 96.2563C148.862 96.4193 155.382 96.4193 156.36 96.2563C158.642 95.8759 163.695 94.3329 165.651 91.2033M128.228 91.8553C127.257 86.8434 125.54 80.985 124.849 78.8154M169.074 91.6923C168.585 94.0286 166.727 99.2555 163.206 101.472C160.435 103.265 157.012 105.221 154.404 105.547C151.796 105.873 138.593 105.396 136.148 104.82M132.562 58.6035L134.192 58.2775M140.06 56.9735C140.712 56.7018 142.049 56.0933 142.179 55.8325C142.309 55.5717 142.451 56.9191 142.505 57.6255M137.452 52.5725C137.995 51.7032 139.701 49.9645 142.179 49.9645C145.276 49.9645 146.417 52.5725 146.58 53.5505C146.71 54.3329 146.743 57.5711 146.743 59.0925M142.342 61.2115C143.32 60.5051 145.7 59.0925 147.395 59.0925C149.514 59.0925 150.655 61.5375 150.655 62.1895C150.655 62.8414 150.655 65.4494 144.461 66.2644M111.563 58.9295C112.26 57.8971 114.763 55.7347 119.196 55.3435C122.587 50.7795 128.324 45.7265 130.769 43.7705L141.038 21.1137C140.712 19.4837 140.093 16.1585 140.223 15.8977C140.386 15.5717 143.646 13.7787 143.972 13.7787C144.298 13.7787 143.483 3.50974 145.439 3.02075C147.395 2.53175 151.144 10.8447 151.144 11.3337C153.491 10.8121 157.121 15.789 158.642 18.3427L173.638 25.0256C174.725 25.569 177.517 27.3076 179.995 29.9156C182.472 32.5236 185.157 35.7836 186.189 37.0876C190.318 44.4769 198.707 59.9075 199.229 62.5154C199.881 65.7754 200.696 69.5244 201.837 74.7404C202.228 79.4348 201.565 89.7363 201.185 94.3003C200.207 95.7129 198.088 98.5383 197.436 98.5383C196.621 98.5383 196.132 98.2123 196.132 97.5603C196.132 96.9083 195.806 94.4633 196.621 87.7803C197.273 82.4339 196.892 76.8594 196.621 74.7404C196.077 72.2411 194.437 65.9384 192.22 60.7225C190.003 55.5065 185.537 47.7912 183.581 44.5855C180.701 40.5106 174.681 32.1976 173.638 31.5456C172.334 30.7306 157.827 25.3516 156.36 24.3736C154.893 23.3956 153.752 20.9507 153.1 20.7877C152.448 20.6247 147.721 20.1357 146.417 21.4397C145.374 22.4828 145.113 23.5043 145.113 23.8846L139.408 43.9335C139.299 44.6399 138.919 46.2155 138.267 46.8675C137.452 47.6825 135.17 49.3125 130.769 51.5945C127.248 53.4201 126.368 56.3758 126.368 57.6255C126.09 59.7445 125.29 64.4388 124.321 66.2644M74.8604 52.2465C75.7841 53.0072 77.6966 54.8219 77.9574 55.9955C78.2834 57.4625 78.6094 62.8199 79.9134 65.0312M69.3184 49.3125C68.1774 48.4975 65.8629 46.7697 65.7325 46.3785C65.6021 45.9873 61.2228 30.6763 59.0495 23.0696C58.7778 22.4176 57.7781 21.0159 55.9525 20.6247C53.6705 20.1357 51.7145 20.4617 51.2255 21.1137C50.7365 21.7657 49.1065 24.2106 45.5206 25.6776C42.6518 26.8512 36.5013 28.9919 33.7846 29.9156C33.0783 30.1329 31.3722 30.9262 30.1986 32.3606C29.025 33.795 22.103 43.1729 18.7887 47.6825C16.6154 52.1378 11.9753 61.733 10.8017 64.4714C9.62813 67.2098 8.35674 73.3277 7.86774 76.0444C7.59608 78.0004 7.21574 83.3141 7.86774 88.9213C8.68274 95.9303 8.51968 97.5603 7.86774 98.2123C7.21581 98.8643 4.28182 96.7453 3.46683 94.4633C2.65183 92.1813 1.67383 77.3484 2.16283 76.0444C2.65183 74.7404 4.93389 64.6344 5.09689 63.3304C5.25989 62.0264 9.8236 52.5725 10.8017 50.7795C11.7799 48.9865 16.9958 38.5546 19.1148 36.2726C20.81 34.447 24.9285 30.0786 26.7758 28.1226C27.8081 27.0903 30.5574 24.7974 33.2957 23.8846C36.0341 22.9718 42.5866 20.027 45.5206 18.6687C46.4443 16.278 49.2697 11.4967 53.1816 11.4967C55.268 4.71594 57.7456 3.12941 58.7236 3.18374C59.5619 3.40108 61.029 5.79173 60.1906 13.6157C62.277 14.0069 63.6679 15.3 64.1026 15.8977C63.9939 17.3103 63.7114 20.3313 63.4506 21.1137C63.9722 21.8961 70.1879 36.0009 73.2305 42.9555C76.1645 45.5092 82.5867 51.4967 84.8035 55.0175C91.4863 56.3215 92.4644 57.4625 93.1164 60.3965M89.8565 64.8862C92.3015 62.303 97.2242 55.8977 97.3544 50.9425C97.4847 45.9873 96.1047 41.1511 95.3984 39.3523M124.849 78.8154C125.464 78.3807 126.629 77.1528 126.368 75.7184C129.759 78.3264 134.736 77.0224 136.8 76.0444C138.648 75.012 142.473 71.7086 142.994 66.7534" stroke="#7C284C" stroke-width="4.05314" stroke-linecap="round"/>
<path d="M58.5613 59.7445C58.4877 58.2622 60.1912 57.4625 61.6582 57.6255C64.2689 58.2502 65.8488 61.0294 64.5921 62.0265C63.4511 62.6785 60.3542 62.3525 60.1912 62.3525C60.0282 62.3525 58.3981 62.0265 58.5613 59.7445Z" fill="url(#paint0_linear_327_15)"/>
<path d="M58.0718 46.7046C58.0718 45.0094 59.4844 44.4769 60.1908 44.4226C60.3538 44.4031 62.7988 44.5856 63.9397 45.4006C65.0807 46.2156 65.4067 47.1936 65.4067 47.6825C65.4067 48.1715 64.1027 49.1495 63.1248 49.3125C62.3424 49.4429 60.6254 49.2582 59.8648 49.1495C59.2671 49.0409 58.0718 48.3997 58.0718 46.7046Z" fill="url(#paint1_linear_327_15)"/>
<path d="M70.6225 47.8455C70.2313 48.6279 68.8295 50.1275 68.1775 50.7795C68.1231 50.9969 68.0471 51.6271 68.1775 52.4095C68.5687 53.5831 70.6225 53.9852 71.6005 54.0395C72.6871 54.0395 74.8604 53.5505 74.8604 51.5945C74.8604 49.6385 73.1218 48.0629 72.2524 47.5195C71.8721 47.3022 71.0137 47.0631 70.6225 47.8455Z" fill="url(#paint2_linear_327_15)"/>
<path d="M86.7596 136.517C85.6186 136.517 84.6406 139.125 84.6406 139.288L84.8036 142.548H90.6781C91.5735 142.548 92.326 141.812 92.159 140.933C91.3944 136.907 87.7781 136.517 86.7596 136.517Z" fill="url(#paint3_linear_327_15)"/>
<path d="M142.831 136.517C141.69 136.517 140.712 139.125 140.712 139.288L140.875 142.548H146.75C147.645 142.548 148.398 141.812 148.231 140.933C147.466 136.907 143.85 136.517 142.831 136.517Z" fill="url(#paint4_linear_327_15)"/>
<path d="M81.8695 136.517C80.7285 136.517 79.7505 139.125 79.7505 139.288L79.9135 142.548H85.788C86.6834 142.548 87.4359 141.812 87.2688 140.933C86.5043 136.907 82.888 136.517 81.8695 136.517Z" fill="url(#paint5_linear_327_15)"/>
<path d="M137.942 136.517C136.801 136.517 135.823 139.125 135.823 139.288L135.986 142.548H141.86C142.756 142.548 143.508 141.812 143.341 140.933C142.577 136.907 138.96 136.517 137.942 136.517Z" fill="url(#paint6_linear_327_15)"/>
<path d="M76.9798 136.517C75.8388 136.517 74.8608 139.125 74.8608 139.288L75.0238 142.548H80.8983C81.7937 142.548 82.5462 141.812 82.3792 140.933C81.6146 136.907 77.9984 136.517 76.9798 136.517Z" fill="url(#paint7_linear_327_15)"/>
<path d="M133.052 136.517C131.911 136.517 130.933 139.125 130.933 139.288L131.096 142.548H136.97C137.865 142.548 138.618 141.812 138.451 140.933C137.686 136.907 134.07 136.517 133.052 136.517Z" fill="url(#paint8_linear_327_15)"/>
<path d="M134.029 58.2775C133.247 54.3655 136.094 52.8442 137.615 52.5725C139.18 53.3549 140.114 56.0498 140.386 57.2995C139.354 57.7885 136.637 58.6687 134.029 58.2775Z" fill="url(#paint9_linear_327_15)"/>
<path d="M138.104 64.9605C137.973 63.6565 140.549 61.9178 141.853 61.2115C142.288 61.4832 143.287 62.2221 143.809 63.0045C144.33 63.7869 144.352 65.6125 144.298 66.4275L142.994 66.7535C141.418 66.6991 138.234 66.2645 138.104 64.9605Z" fill="url(#paint10_linear_327_15)"/>
<path d="M128.325 61.7005C128.325 59.7445 130.824 58.6035 132.074 58.2775C132.617 58.8752 133.704 60.3313 133.704 61.3745C133.704 62.4177 132.834 63.4392 132.4 63.8195C131.096 63.7108 128.455 63.1349 128.325 61.7005Z" fill="url(#paint11_linear_327_15)"/>
<g filter="url(#filter0_f_327_15)">
<path d="M161.251 88.4323C162.424 90.2579 166.086 91.475 167.77 91.8553C174.942 92.9963 178.365 90.5513 179.017 90.0623C179.669 89.5733 183.255 85.8243 183.744 83.8683C183.092 84.2595 182.06 84.0313 181.625 83.8683C181.897 83.7053 182.538 83.1185 182.929 82.0753C181.788 82.5643 179.832 81.5864 179.506 81.2603C179.246 80.9995 179.615 80.065 179.832 79.6304C180.647 78.8154 182.31 76.7942 182.44 75.2294C182.571 73.6646 180.104 70.5567 178.854 69.1984C178.257 67.4054 177.322 63.6564 178.365 63.0044C179.409 62.3524 181.299 60.4508 182.114 59.5815C181.245 59.5815 179.506 59.4837 179.506 59.0925C179.506 58.6035 184.722 56.9735 183.418 56.3215C182.114 55.6695 180.484 50.7795 181.625 47.8455C182.766 44.9115 182.929 41.9775 182.766 43.2815C182.603 44.5855 179.832 45.8895 179.506 45.7265C179.18 45.5635 179.832 43.1185 179.506 43.4445C179.246 43.7053 178.311 44.8572 177.876 45.4005C177.496 46.4329 176.442 48.6605 175.268 49.3125C174.486 48.7909 174.073 47.8999 173.964 47.5195C172.823 48.2259 170.476 50.1275 170.215 52.0835C169.955 54.0395 171.085 56.3758 171.682 57.2995V61.7005C171.574 62.0264 171.096 62.3198 170.052 60.8855C169.009 62.059 168.531 63.8738 168.422 64.6344C167.933 64.5801 166.76 64.015 165.977 62.1894C164.51 62.6784 162.392 65.1234 161.577 66.7534C160.762 68.3834 161.577 72.4584 161.903 73.7624C162.163 74.8056 163.641 77.5657 164.347 78.8154C164.51 79.4674 164.641 80.9344 163.858 81.5864C163.076 82.2383 162.011 81.3147 161.577 80.7714C161.414 81.206 161.12 82.3361 161.251 83.3793C160.859 83.2489 159.892 82.7817 159.458 82.5643C159.566 83.7597 160.077 86.6067 161.251 88.4323Z" fill="#E45834"/>
<mask id="mask2_327_15" style="mask-type:alpha" maskUnits="userSpaceOnUse" x="159" y="42" width="25" height="51">
<path d="M161.251 88.4323C162.424 90.2579 166.086 91.475 167.77 91.8553C174.942 92.9963 178.365 90.5513 179.017 90.0623C179.669 89.5733 183.255 85.8243 183.744 83.8683C183.092 84.2595 182.06 84.0313 181.625 83.8683C181.897 83.7053 182.538 83.1185 182.929 82.0753C181.788 82.5643 179.832 81.5864 179.506 81.2603C179.246 80.9995 179.615 80.065 179.832 79.6304C180.647 78.8154 182.31 76.7942 182.44 75.2294C182.571 73.6646 180.104 70.5567 178.854 69.1984C178.257 67.4054 177.322 63.6564 178.365 63.0044C179.409 62.3524 181.299 60.4508 182.114 59.5815C181.245 59.5815 179.506 59.4837 179.506 59.0925C179.506 58.6035 184.722 56.9735 183.418 56.3215C182.114 55.6695 180.484 50.7795 181.625 47.8455C182.766 44.9115 182.929 41.9775 182.766 43.2815C182.603 44.5855 179.832 45.8895 179.506 45.7265C179.18 45.5635 179.832 43.1185 179.506 43.4445C179.246 43.7053 178.311 44.8572 177.876 45.4005C177.496 46.4329 176.442 48.6605 175.268 49.3125C174.486 48.7909 174.073 47.8999 173.964 47.5195C172.823 48.2259 170.476 50.1275 170.215 52.0835C169.955 54.0395 171.085 56.3758 171.682 57.2995V61.7005C171.574 62.0264 171.096 62.3198 170.052 60.8855C169.009 62.059 168.531 63.8738 168.422 64.6344C167.933 64.5801 166.76 64.015 165.977 62.1894C164.51 62.6784 162.392 65.1234 161.577 66.7534C160.762 68.3834 161.577 72.4584 161.903 73.7624C162.163 74.8056 163.641 77.5657 164.347 78.8154C164.51 79.4674 164.641 80.9344 163.858 81.5864C163.076 82.2383 162.011 81.3147 161.577 80.7714C161.414 81.206 161.12 82.3361 161.251 83.3793C160.859 83.2489 159.892 82.7817 159.458 82.5643C159.566 83.7597 160.077 86.6067 161.251 88.4323Z" fill="#E45834"/>
</mask>
<g mask="url(#mask2_327_15)">
<path d="M168.26 80.6084C165.26 84.1292 165.923 88.5953 166.63 90.3883C166.799 90.8773 168.586 91.2033 169.89 91.3663C171.194 91.5293 176.084 89.4103 175.921 89.2473C175.79 89.1169 175.323 88.867 175.106 88.7583L175.758 87.7803C176.084 87.2913 175.758 85.8243 175.758 83.5424C175.758 81.7168 178.366 80.1737 179.67 79.6304L184.886 76.8594C183.201 72.7844 179.702 64.1455 179.181 62.1895C178.659 60.2335 179.941 56.3758 180.648 54.6915L183.745 47.6825C182.93 48.7692 181.169 51.2033 180.648 52.2465C179.996 53.5505 174.78 57.1365 173.965 60.0705C173.15 63.0045 176.084 68.8724 175.758 71.1544C175.432 73.4364 172.009 76.2074 168.26 80.6084Z" fill="#FDCC4C"/>
<path d="M164.511 63.3305V60.7225L166.793 61.2115L167.119 62.6785C167.825 63.9281 169.27 66.786 169.401 68.2204C169.564 70.0134 168.586 73.7624 167.445 74.2514C167.445 73.5994 166.901 72.4584 166.63 71.9694C166.63 72.1324 166.499 72.4584 165.978 72.4584C165.978 71.6434 164.348 70.5024 163.533 69.0354C162.881 67.8618 163.913 64.7431 164.511 63.3305Z" fill="#FDCC4C"/>
<path d="M173.965 52.5725C173.573 52.0509 173.584 48.4432 173.639 46.7045C174.128 46.5415 175.301 46.6719 176.084 48.4975C177.062 50.7795 175.921 54.2025 175.921 53.5505C175.921 52.8985 174.943 51.5945 174.617 51.9205C174.356 52.1813 174.508 53.1158 174.617 53.5505C174.562 53.4418 174.356 53.0941 173.965 52.5725Z" fill="#FDCC4C"/>
</g>
</g>
<g opacity="0.75">
<path d="M161.251 88.4323C162.424 90.2579 166.086 91.475 167.77 91.8553C174.942 92.9963 178.365 90.5513 179.017 90.0623C179.669 89.5733 183.255 85.8243 183.744 83.8683C183.092 84.2595 182.06 84.0313 181.625 83.8683C181.897 83.7053 182.538 83.1185 182.929 82.0753C181.788 82.5643 179.832 81.5864 179.506 81.2603C179.246 80.9995 179.615 80.065 179.832 79.6304C180.647 78.8154 182.31 76.7942 182.44 75.2294C182.571 73.6646 180.104 70.5567 178.854 69.1984C178.257 67.4054 177.322 63.6564 178.365 63.0044C179.409 62.3524 181.299 60.4508 182.114 59.5815C181.245 59.5815 179.506 59.4837 179.506 59.0925C179.506 58.6035 184.722 56.9735 183.418 56.3215C182.114 55.6695 180.484 50.7795 181.625 47.8455C182.766 44.9115 182.929 41.9775 182.766 43.2815C182.603 44.5855 179.832 45.8895 179.506 45.7265C179.18 45.5635 179.832 43.1185 179.506 43.4445C179.246 43.7053 178.311 44.8572 177.876 45.4005C177.496 46.4329 176.442 48.6605 175.268 49.3125C174.486 48.7909 174.073 47.8999 173.964 47.5195C172.823 48.2259 170.476 50.1275 170.215 52.0835C169.955 54.0395 171.085 56.3758 171.682 57.2995V61.7005C171.574 62.0264 171.096 62.3198 170.052 60.8855C169.009 62.059 168.531 63.8738 168.422 64.6344C167.933 64.5801 166.76 64.015 165.977 62.1894C164.51 62.6784 162.392 65.1234 161.577 66.7534C160.762 68.3834 161.577 72.4584 161.903 73.7624C162.163 74.8056 163.641 77.5657 164.347 78.8154C164.51 79.4674 164.641 80.9344 163.858 81.5864C163.076 82.2383 162.011 81.3147 161.577 80.7714C161.414 81.206 161.12 82.3361 161.251 83.3793C160.859 83.2489 159.892 82.7817 159.458 82.5643C159.566 83.7597 160.077 86.6067 161.251 88.4323Z" fill="#FF4235" fill-opacity="0.5"/>
<mask id="mask3_327_15" style="mask-type:alpha" maskUnits="userSpaceOnUse" x="159" y="42" width="25" height="51">
<path d="M161.251 88.4323C162.424 90.2579 166.086 91.475 167.77 91.8553C174.942 92.9963 178.365 90.5513 179.017 90.0623C179.669 89.5733 183.255 85.8243 183.744 83.8683C183.092 84.2595 182.06 84.0313 181.625 83.8683C181.897 83.7053 182.538 83.1185 182.929 82.0753C181.788 82.5643 179.832 81.5863 179.506 81.2603C179.246 80.9995 179.615 80.065 179.832 79.6304C180.647 78.8154 182.31 76.7942 182.44 75.2294C182.571 73.6646 180.104 70.5567 178.854 69.1984C178.257 67.4054 177.322 63.6564 178.365 63.0044C179.409 62.3524 181.299 60.4508 182.114 59.5815C181.245 59.5815 179.506 59.4837 179.506 59.0925C179.506 58.6035 184.722 56.9735 183.418 56.3215C182.114 55.6695 180.484 50.7795 181.625 47.8455C182.766 44.9115 182.929 41.9775 182.766 43.2815C182.603 44.5855 179.832 45.8895 179.506 45.7265C179.18 45.5635 179.832 43.1185 179.506 43.4445C179.246 43.7053 178.311 44.8572 177.876 45.4005C177.496 46.4329 176.442 48.6605 175.268 49.3125C174.486 48.7909 174.073 47.8999 173.964 47.5195C172.823 48.2259 170.476 50.1275 170.215 52.0835C169.955 54.0395 171.085 56.3758 171.682 57.2995V61.7005C171.574 62.0264 171.096 62.3198 170.052 60.8855C169.009 62.059 168.531 63.8738 168.422 64.6344C167.933 64.5801 166.76 64.015 165.977 62.1894C164.51 62.6784 162.392 65.1234 161.577 66.7534C160.762 68.3834 161.577 72.4584 161.903 73.7624C162.163 74.8056 163.641 77.5657 164.347 78.8154C164.51 79.4674 164.641 80.9344 163.858 81.5864C163.076 82.2383 162.011 81.3147 161.577 80.7714C161.414 81.206 161.12 82.3361 161.251 83.3793C160.859 83.2489 159.892 82.7817 159.458 82.5643C159.566 83.7597 160.077 86.6067 161.251 88.4323Z" fill="#E45834"/>
</mask>
<g mask="url(#mask3_327_15)">
<path d="M168.26 80.6084C165.26 84.1292 165.923 88.5953 166.63 90.3883C166.799 90.8773 168.586 91.2033 169.89 91.3663C171.194 91.5293 176.084 89.4103 175.921 89.2473C175.79 89.1169 175.323 88.867 175.106 88.7583L175.758 87.7803C176.084 87.2913 175.758 85.8243 175.758 83.5424C175.758 81.7168 178.366 80.1737 179.67 79.6304L184.886 76.8594C183.201 72.7844 179.702 64.1455 179.181 62.1895C178.659 60.2335 179.941 56.3758 180.648 54.6915L183.745 47.6825C182.93 48.7692 181.169 51.2033 180.648 52.2465C179.996 53.5505 174.78 57.1365 173.965 60.0705C173.15 63.0045 176.084 68.8724 175.758 71.1544C175.432 73.4364 172.009 76.2074 168.26 80.6084Z" fill="#FFC692"/>
<path d="M164.511 63.3305V60.7225L166.793 61.2115L167.119 62.6785C167.825 63.9281 169.27 66.786 169.401 68.2204C169.564 70.0134 168.586 73.7624 167.445 74.2514C167.445 73.5994 166.901 72.4584 166.63 71.9694C166.63 72.1324 166.499 72.4584 165.978 72.4584C165.978 71.6434 164.348 70.5024 163.533 69.0354C162.881 67.8618 163.913 64.7431 164.511 63.3305Z" fill="#FFC692"/>
<path d="M173.965 52.5725C173.573 52.0509 173.584 48.4432 173.639 46.7045C174.128 46.5415 175.301 46.6719 176.084 48.4975C177.062 50.7795 175.921 54.2025 175.921 53.5505C175.921 52.8985 174.943 51.5945 174.617 51.9205C174.356 52.1813 174.508 53.1158 174.617 53.5505C174.562 53.4418 174.356 53.0941 173.965 52.5725Z" fill="#FFC692"/>
</g>
</g>
<defs>
<filter id="filter0_f_327_15" x="157.458" y="40.9631" width="28.2871" height="53.1924" filterUnits="userSpaceOnUse" color-interpolation-filters="sRGB">
<feFlood flood-opacity="0" result="BackgroundImageFix"/>
<feBlend mode="normal" in="SourceGraphic" in2="BackgroundImageFix" result="shape"/>
<feGaussianBlur stdDeviation="1" result="effect1_foregroundBlur_327_15"/>
</filter>
<linearGradient id="paint0_linear_327_15" x1="58.8871" y1="60.2335" x2="64.7551" y2="61.0485" gradientUnits="userSpaceOnUse">
<stop stop-color="#C3D8EB"/>
<stop offset="0.14943" stop-color="#D1E2EC"/>
<stop offset="0.301195" stop-color="#E3EEF4"/>
<stop offset="0.502546" stop-color="#FAFBFF"/>
<stop offset="1" stop-color="#F7FCFF"/>
</linearGradient>
<linearGradient id="paint1_linear_327_15" x1="58.4535" y1="47.1082" x2="65.0654" y2="48.1249" gradientUnits="userSpaceOnUse">
<stop stop-color="#C3D8EB"/>
<stop offset="0.14943" stop-color="#D1E2EC"/>
<stop offset="0.301195" stop-color="#E3EEF4"/>
<stop offset="0.502546" stop-color="#FAFBFF"/>
<stop offset="1" stop-color="#F7FCFF"/>
</linearGradient>
<linearGradient id="paint2_linear_327_15" x1="68.457" y1="50.9718" x2="74.6236" y2="51.612" gradientUnits="userSpaceOnUse">
<stop stop-color="#C3D8EB"/>
<stop offset="0.14943" stop-color="#D1E2EC"/>
<stop offset="0.301195" stop-color="#E3EEF4"/>
<stop offset="0.502546" stop-color="#FAFBFF"/>
<stop offset="1" stop-color="#F7FCFF"/>
</linearGradient>
<linearGradient id="paint3_linear_327_15" x1="85.0393" y1="139.8" x2="91.9883" y2="140.713" gradientUnits="userSpaceOnUse">
<stop stop-color="#C3D8EB"/>
<stop offset="0.251287" stop-color="#D1E2EC"/>
<stop offset="0.413217" stop-color="#E3EEF4"/>
<stop offset="0.646913" stop-color="#FAFBFF"/>
<stop offset="1" stop-color="#F7FCFF"/>
</linearGradient>
<linearGradient id="paint4_linear_327_15" x1="141.111" y1="139.8" x2="148.06" y2="140.713" gradientUnits="userSpaceOnUse">
<stop stop-color="#C3D8EB"/>
<stop offset="0.251287" stop-color="#D1E2EC"/>
<stop offset="0.413217" stop-color="#E3EEF4"/>
<stop offset="0.646913" stop-color="#FAFBFF"/>
<stop offset="1" stop-color="#F7FCFF"/>
</linearGradient>
<linearGradient id="paint5_linear_327_15" x1="80.1491" y1="139.8" x2="87.0982" y2="140.713" gradientUnits="userSpaceOnUse">
<stop stop-color="#C3D8EB"/>
<stop offset="0.251287" stop-color="#D1E2EC"/>
<stop offset="0.413217" stop-color="#E3EEF4"/>
<stop offset="0.646913" stop-color="#FAFBFF"/>
<stop offset="1" stop-color="#F7FCFF"/>
</linearGradient>
<linearGradient id="paint6_linear_327_15" x1="136.221" y1="139.8" x2="143.17" y2="140.713" gradientUnits="userSpaceOnUse">
<stop stop-color="#C3D8EB"/>
<stop offset="0.251287" stop-color="#D1E2EC"/>
<stop offset="0.413217" stop-color="#E3EEF4"/>
<stop offset="0.646913" stop-color="#FAFBFF"/>
<stop offset="1" stop-color="#F7FCFF"/>
</linearGradient>
<linearGradient id="paint7_linear_327_15" x1="75.2595" y1="139.8" x2="82.2085" y2="140.713" gradientUnits="userSpaceOnUse">
<stop stop-color="#C3D8EB"/>
<stop offset="0.251287" stop-color="#D1E2EC"/>
<stop offset="0.413217" stop-color="#E3EEF4"/>
<stop offset="0.646913" stop-color="#FAFBFF"/>
<stop offset="1" stop-color="#F7FCFF"/>
</linearGradient>
<linearGradient id="paint8_linear_327_15" x1="131.331" y1="139.8" x2="138.28" y2="140.713" gradientUnits="userSpaceOnUse">
<stop stop-color="#C3D8EB"/>
<stop offset="0.251287" stop-color="#D1E2EC"/>
<stop offset="0.413217" stop-color="#E3EEF4"/>
<stop offset="0.646913" stop-color="#FAFBFF"/>
<stop offset="1" stop-color="#F7FCFF"/>
</linearGradient>
<linearGradient id="paint9_linear_327_15" x1="134.233" y1="55.7311" x2="140.143" y2="56.4151" gradientUnits="userSpaceOnUse">
<stop stop-color="#C3D8EB"/>
<stop offset="0.14943" stop-color="#D1E2EC"/>
<stop offset="0.301195" stop-color="#E3EEF4"/>
<stop offset="0.502546" stop-color="#FAFBFF"/>
<stop offset="1" stop-color="#F7FCFF"/>
</linearGradient>
<linearGradient id="paint10_linear_327_15" x1="138.423" y1="64.2283" x2="144.085" y2="64.8858" gradientUnits="userSpaceOnUse">
<stop stop-color="#C3D8EB"/>
<stop offset="0.14943" stop-color="#D1E2EC"/>
<stop offset="0.301195" stop-color="#E3EEF4"/>
<stop offset="0.502546" stop-color="#FAFBFF"/>
<stop offset="1" stop-color="#F7FCFF"/>
</linearGradient>
<linearGradient id="paint11_linear_327_15" x1="128.605" y1="61.2943" x2="133.518" y2="61.7878" gradientUnits="userSpaceOnUse">
<stop stop-color="#C3D8EB"/>
<stop offset="0.14943" stop-color="#D1E2EC"/>
<stop offset="0.301195" stop-color="#E3EEF4"/>
<stop offset="0.502546" stop-color="#FAFBFF"/>
<stop offset="1" stop-color="#F7FCFF"/>
</linearGradient>
</defs>
</svg>
