<svg width="300" height="200" viewBox="0 0 300 200" fill="none" xmlns="http://www.w3.org/2000/svg">
<mask id="mask0_116_549" style="mask-type:alpha" maskUnits="userSpaceOnUse" x="0" y="0" width="300" height="200">
<rect width="300" height="200" fill="#C4C4C4"/>
</mask>
<g mask="url(#mask0_116_549)">
<path d="M23.6094 37.2322C23.6094 39.2861 26.7948 39.2861 26.7948 37.2322C26.7948 35.1782 23.6094 35.1782 23.6094 37.2322Z" fill="#E6E7E8"/>
<path d="M71.0391 102.612C71.0391 104.666 74.2245 104.666 74.2245 102.612C74.2245 100.558 71.0391 100.558 71.0391 102.612Z" fill="#E6E7E8"/>
<path d="M4.72119 142.007C4.72119 144.061 7.90659 144.061 7.90659 142.007C7.90659 139.953 4.72119 139.953 4.72119 142.007Z" fill="#E6E7E8"/>
<path d="M122.246 181.403C122.246 183.458 125.431 183.458 125.431 181.403C125.431 179.348 122.246 179.348 122.246 181.403Z" fill="#E6E7E8"/>
<path d="M168.416 93.8105C168.416 95.8644 171.601 95.8644 171.601 93.8105C171.601 91.7565 168.416 91.7565 168.416 93.8105Z" fill="#E6E7E8"/>
<path d="M168.416 18.372C168.416 20.426 171.601 20.426 171.601 18.372C171.601 16.3181 168.416 16.3181 168.416 18.372Z" fill="#E6E7E8"/>
<path d="M109.654 55.6724C109.654 57.7263 112.839 57.7263 112.839 55.6724C112.839 53.6185 109.654 53.6185 109.654 55.6724Z" fill="#E6E7E8"/>
<path d="M9.33887 92.5535C9.33887 94.6074 12.5243 94.6074 12.5243 92.5535C12.5243 90.4996 9.33887 90.4996 9.33887 92.5535Z" fill="#E6E7E8"/>
<path d="M178.909 166.316C178.909 168.37 182.095 168.37 182.095 166.316C182.095 164.261 178.909 164.261 178.909 166.316Z" fill="#E6E7E8"/>
<path d="M75.6558 25.0773C75.6558 27.1319 78.8412 27.1319 78.8412 25.0773C78.8412 23.024 75.6558 23.024 75.6558 25.0773Z" fill="#E6E7E8"/>
<path d="M129.381 113.09C129.381 115.144 132.567 115.144 132.567 113.09C132.567 111.036 129.381 111.036 129.381 113.09Z" fill="#E6E7E8"/>
<path d="M69.3599 179.727C69.3599 181.781 72.5453 181.781 72.5453 179.727C72.5453 177.672 69.3599 177.672 69.3599 179.727Z" fill="#E6E7E8"/>
<path d="M21.4673 115.186C21.4673 116.212 23.06 116.212 23.06 115.186C23.06 114.158 21.4673 114.158 21.4673 115.186Z" fill="#E6E7E8"/>
<path d="M55.0459 82.0767C55.0459 83.1031 56.6386 83.1031 56.6386 82.0767C56.6386 81.0491 55.0459 81.0491 55.0459 82.0767Z" fill="#E6E7E8"/>
<path d="M122.203 14.1813C122.203 15.2083 123.795 15.2083 123.795 14.1813C123.795 13.1544 122.203 13.1544 122.203 14.1813Z" fill="#E6E7E8"/>
<path d="M187.681 50.6433C187.681 51.6703 189.273 51.6703 189.273 50.6433C189.273 49.6163 187.681 49.6163 187.681 50.6433Z" fill="#E6E7E8"/>
<path d="M120.523 81.2378C120.523 82.2647 122.116 82.2647 122.116 81.2378C122.116 80.2108 120.523 80.2108 120.523 81.2378Z" fill="#E6E7E8"/>
<path d="M40.7754 10.4098C40.7754 11.4368 42.3681 11.4368 42.3681 10.4098C42.3681 9.38285 40.7754 9.38285 40.7754 10.4098Z" fill="#E6E7E8"/>
<path d="M63.4399 52.3195C63.4399 53.3464 65.0326 53.3464 65.0326 52.3195C65.0326 51.2925 63.4399 51.2925 63.4399 52.3195Z" fill="#E6E7E8"/>
<path d="M168.373 116.861C168.373 117.889 169.965 117.889 169.965 116.861C169.965 115.835 168.373 115.835 168.373 116.861Z" fill="#E6E7E8"/>
<path d="M101.216 164.22C101.216 165.247 102.809 165.247 102.809 164.22C102.809 163.193 101.216 163.193 101.216 164.22Z" fill="#E6E7E8"/>
<path d="M31.541 153.742C31.541 154.769 33.1337 154.769 33.1337 153.742C33.1337 152.715 31.541 152.715 31.541 153.742Z" fill="#E6E7E8"/>
<path d="M26.085 178.051C26.085 179.078 27.6777 179.078 27.6777 178.051C27.6777 177.024 26.085 177.024 26.085 178.051Z" fill="#E6E7E8"/>
<path d="M116.326 191.88C116.326 192.907 117.919 192.907 117.919 191.88C117.919 190.853 116.326 190.853 116.326 191.88Z" fill="#E6E7E8"/>
<path d="M159.139 191.88C159.139 192.907 160.731 192.907 160.731 191.88C160.731 190.853 159.139 190.853 159.139 191.88Z" fill="#E6E7E8"/>
<path d="M145.707 149.552C145.707 150.579 147.3 150.579 147.3 149.552C147.3 148.525 145.707 148.525 145.707 149.552Z" fill="#E6E7E8"/>
<path d="M179.749 16.2767C179.749 18.3307 182.934 18.3307 182.934 16.2767C182.934 14.2228 179.749 14.2228 179.749 16.2767Z" fill="#E6E7E8"/>
<path d="M129.381 65.7312C129.381 67.7852 132.567 67.7852 132.567 65.7312C132.567 63.6773 129.381 63.6773 129.381 65.7312Z" fill="#E6E7E8"/>
<path d="M159.602 141.17C159.602 143.224 162.787 143.224 162.787 141.17C162.787 139.116 159.602 139.116 159.602 141.17Z" fill="#E6E7E8"/>
<path d="M94.124 188.528C94.124 190.583 97.3094 190.583 97.3094 188.528C97.3094 186.474 94.124 186.474 94.124 188.528Z" fill="#E6E7E8"/>
<path d="M54.6694 122.31C54.6694 124.363 57.8548 124.363 57.8548 122.31C57.8548 120.256 54.6694 120.256 54.6694 122.31Z" fill="#E6E7E8"/>
<path d="M10.1782 62.7968C10.1782 64.8508 13.3636 64.8508 13.3636 62.7968C13.3636 60.7429 10.1782 60.7429 10.1782 62.7968Z" fill="#E6E7E8"/>
<path d="M173.033 100.936C173.033 102.99 176.219 102.99 176.219 100.936C176.219 98.8822 173.033 98.8822 173.033 100.936Z" fill="#E6E7E8"/>
<path d="M99.1611 36.8123C99.1611 38.8669 102.347 38.8669 102.347 36.8123C102.347 34.759 99.1611 34.759 99.1611 36.8123Z" fill="#E6E7E8"/>
<path d="M104.198 126.92C104.198 128.973 107.383 128.973 107.383 126.92C107.383 124.866 104.198 124.866 104.198 126.92Z" fill="#E6E7E8"/>
<path d="M65.1626 15.0198C65.1626 17.0737 68.348 17.0737 68.348 15.0198C68.348 12.9658 65.1626 12.9658 65.1626 15.0198Z" fill="#E6E7E8"/>
<path d="M171.773 193.138C171.773 195.193 174.959 195.193 174.959 193.138C174.959 191.083 171.773 191.083 171.773 193.138Z" fill="#E6E7E8"/>
<path d="M69.7798 79.9808C69.7798 82.0347 72.9652 82.0347 72.9652 79.9808C72.9652 77.9268 69.7798 77.9268 69.7798 79.9808Z" fill="#E6E7E8"/>
<path d="M16.894 186.852C16.894 188.907 20.0794 188.907 20.0794 186.852C20.0794 184.797 16.894 184.797 16.894 186.852Z" fill="#E6E7E8"/>
<path d="M196.915 53.5771C196.915 54.604 198.507 54.604 198.507 53.5771C198.507 52.5501 196.915 52.5501 196.915 53.5771Z" fill="#E6E7E8"/>
<path d="M149.485 19.6296C149.485 20.6566 151.078 20.6566 151.078 19.6296C151.078 18.6027 149.485 18.6027 149.485 19.6296Z" fill="#E6E7E8"/>
<path d="M129.338 109.318C129.338 110.345 130.931 110.345 130.931 109.318C130.931 108.291 129.338 108.291 129.338 109.318Z" fill="#E6E7E8"/>
<path d="M91.5615 85.8483C91.5615 86.8746 93.1542 86.8746 93.1542 85.8483C93.1542 84.8207 91.5615 84.8207 91.5615 85.8483Z" fill="#E6E7E8"/>
<path d="M48.3301 50.6433C48.3301 51.6703 49.9228 51.6703 49.9228 50.6433C49.9228 49.6163 48.3301 49.6163 48.3301 50.6433Z" fill="#E6E7E8"/>
<path d="M82.3281 138.235C82.3281 139.263 83.9208 139.263 83.9208 138.235C83.9208 137.209 82.3281 137.209 82.3281 138.235Z" fill="#E6E7E8"/>
<path d="M115.487 171.764C115.487 172.791 117.08 172.791 117.08 171.764C117.08 170.737 115.487 170.737 115.487 171.764Z" fill="#E6E7E8"/>
<path d="M187.261 157.515C187.261 158.542 188.854 158.542 188.854 157.515C188.854 156.488 187.261 156.488 187.261 157.515Z" fill="#E6E7E8"/>
<path d="M145.287 180.146C145.287 181.173 146.88 181.173 146.88 180.146C146.88 179.119 145.287 179.119 145.287 180.146Z" fill="#E6E7E8"/>
<path d="M43.7134 148.294C43.7134 149.321 45.3061 149.321 45.3061 148.294C45.3061 147.267 43.7134 147.267 43.7134 148.294Z" fill="#E6E7E8"/>
<path d="M19.3687 142.846C19.3687 143.873 20.9613 143.873 20.9613 142.846C20.9613 141.819 19.3687 141.819 19.3687 142.846Z" fill="#E6E7E8"/>
<path d="M23.9854 10.4098C23.9854 11.4368 25.578 11.4368 25.578 10.4098C25.578 9.38285 23.9854 9.38285 23.9854 10.4098Z" fill="#E6E7E8"/>
<path d="M120.944 5.79932C120.944 6.82629 122.537 6.82629 122.537 5.79932C122.537 4.77235 120.944 4.77235 120.944 5.79932Z" fill="#E6E7E8"/>
<path d="M236.787 175.007C238.841 175.007 238.841 171.822 236.787 171.822C234.733 171.822 234.733 175.007 236.787 175.007Z" fill="#E6E7E8"/>
<path d="M293.366 30.2007C295.42 30.2007 295.42 27.0153 293.366 27.0153C291.312 27.0153 291.312 30.2007 293.366 30.2007Z" fill="#E6E7E8"/>
<path d="M217.927 30.2007C219.981 30.2007 219.981 27.0153 217.927 27.0153C215.873 27.0153 215.873 30.2007 217.927 30.2007Z" fill="#E6E7E8"/>
<path d="M255.227 88.9623C257.281 88.9623 257.281 85.7769 255.227 85.7769C253.174 85.7769 253.174 88.9623 255.227 88.9623Z" fill="#E6E7E8"/>
<path d="M292.108 189.278C294.162 189.278 294.162 186.093 292.108 186.093C290.054 186.093 290.054 189.278 292.108 189.278Z" fill="#E6E7E8"/>
<path d="M224.633 122.961C226.687 122.961 226.687 119.775 224.633 119.775C222.579 119.775 222.579 122.961 224.633 122.961Z" fill="#E6E7E8"/>
<path d="M281.631 143.571C282.658 143.571 282.658 141.978 281.631 141.978C280.604 141.978 280.604 143.571 281.631 143.571Z" fill="#E6E7E8"/>
<path d="M213.737 76.4138C214.764 76.4138 214.764 74.8211 213.737 74.8211C212.71 74.8211 212.71 76.4138 213.737 76.4138Z" fill="#E6E7E8"/>
<path d="M250.198 10.9361C251.225 10.9361 251.225 9.34337 250.198 9.34337C249.171 9.34337 249.171 10.9361 250.198 10.9361Z" fill="#E6E7E8"/>
<path d="M280.792 78.0925C281.819 78.0925 281.819 76.4998 280.792 76.4998C279.765 76.4998 279.765 78.0925 280.792 78.0925Z" fill="#E6E7E8"/>
<path d="M209.964 157.841C210.991 157.841 210.991 156.249 209.964 156.249C208.937 156.249 208.937 157.841 209.964 157.841Z" fill="#E6E7E8"/>
<path d="M251.875 135.176C252.902 135.176 252.902 133.583 251.875 133.583C250.848 133.583 250.848 135.176 251.875 135.176Z" fill="#E6E7E8"/>
<path d="M215.831 18.8677C217.885 18.8677 217.885 15.6823 215.831 15.6823C213.778 15.6823 213.778 18.8677 215.831 18.8677Z" fill="#E6E7E8"/>
<path d="M265.286 69.2352C267.34 69.2352 267.34 66.0498 265.286 66.0498C263.232 66.0498 263.232 69.2352 265.286 69.2352Z" fill="#E6E7E8"/>
<path d="M262.351 188.438C264.405 188.438 264.405 185.253 262.351 185.253C260.298 185.253 260.298 188.438 262.351 188.438Z" fill="#E6E7E8"/>
<path d="M236.367 99.4562C238.421 99.4562 238.421 96.2708 236.367 96.2708C234.313 96.2708 234.313 99.4562 236.367 99.4562Z" fill="#E6E7E8"/>
<path d="M214.574 133.454C216.628 133.454 216.628 130.269 214.574 130.269C212.52 130.269 212.52 133.454 214.574 133.454Z" fill="#E6E7E8"/>
<path d="M279.535 128.837C281.589 128.837 281.589 125.652 279.535 125.652C277.481 125.652 277.481 128.837 279.535 128.837Z" fill="#E6E7E8"/>
<path d="M253.132 1.70224C254.159 1.70224 254.159 0.109543 253.132 0.109543C252.105 0.109543 252.105 1.70224 253.132 1.70224Z" fill="#E6E7E8"/>
<path d="M219.184 49.1315C220.211 49.1315 220.211 47.5388 219.184 47.5388C218.157 47.5388 218.157 49.1315 219.184 49.1315Z" fill="#E6E7E8"/>
<path d="M285.402 107.054C286.429 107.054 286.429 105.461 285.402 105.461C284.375 105.461 284.375 107.054 285.402 107.054Z" fill="#E6E7E8"/>
<path d="M250.198 150.286C251.225 150.286 251.225 148.694 250.198 148.694C249.171 148.694 249.171 150.286 250.198 150.286Z" fill="#E6E7E8"/>
<path d="M209.964 174.63C210.991 174.63 210.991 173.038 209.964 173.038C208.937 173.038 208.937 174.63 209.964 174.63Z" fill="#E6E7E8"/>
<path d="M205.354 77.6726C206.381 77.6726 206.381 76.0799 205.354 76.0799C204.327 76.0799 204.327 77.6726 205.354 77.6726Z" fill="#E6E7E8"/>
</g>
</svg>
