<svg width="148" height="148" viewBox="0 0 148 148" fill="none" xmlns="http://www.w3.org/2000/svg">
<g filter="url(#filter0_i_75_14)">
<circle cx="74" cy="74" r="74" fill="url(#paint0_radial_75_14)"/>
</g>
<path fill-rule="evenodd" clip-rule="evenodd" d="M122 85.2964C122 84.6507 121.363 84.2073 120.748 84.4044C108.354 88.3787 91.9678 90.7964 74 90.7964C56.0322 90.7964 39.6456 88.3787 27.2515 84.4044C26.6367 84.2073 26 84.6507 26 85.2964V85.2964C26 109.873 47.4903 129.796 74 129.796C100.51 129.796 122 109.873 122 85.2964V85.2964Z" fill="url(#paint1_radial_75_14)"/>
<path fill-rule="evenodd" clip-rule="evenodd" d="M30.0331 87.9993C29.5174 87.8549 29 88.2293 29 88.7648V88.7648C29 92.2295 29.6039 95.5807 30.7316 98.7537C30.8285 99.0265 31.0408 99.24 31.3124 99.3403C42.4426 103.452 57.278 106.243 73.9999 106.243C90.722 106.243 105.557 103.452 116.688 99.3403C116.959 99.24 117.172 99.0265 117.268 98.7537C118.396 95.5806 119 92.2295 119 88.7648V88.7648C119 88.2292 118.483 87.8548 117.967 87.9993C106.331 91.2587 90.9126 93.2433 73.9999 93.2433C57.0873 93.2433 41.669 91.2587 30.0331 87.9993Z" fill="url(#paint2_linear_75_14)"/>
<ellipse cx="48.3063" cy="58.5368" rx="18.3063" ry="21.5368" fill="url(#paint3_linear_75_14)"/>
<ellipse cx="48.3063" cy="58.5368" rx="18.3063" ry="21.5368" fill="#F5F7F7" fill-opacity="0.2"/>
<circle cx="49.2037" cy="59.0201" r="6.99948" fill="#945706"/>
<ellipse cx="99.919" cy="59.7573" rx="18.3063" ry="21.5368" fill="url(#paint4_linear_75_14)"/>
<ellipse cx="99.919" cy="59.7573" rx="18.3063" ry="21.5368" fill="#F5F7F7" fill-opacity="0.2"/>
<circle cx="100.816" cy="60.2405" r="6.99948" fill="#945706"/>
<defs>
<filter id="filter0_i_75_14" x="0" y="0" width="148" height="148" filterUnits="userSpaceOnUse" color-interpolation-filters="sRGB">
<feFlood flood-opacity="0" result="BackgroundImageFix"/>
<feBlend mode="normal" in="SourceGraphic" in2="BackgroundImageFix" result="shape"/>
<feColorMatrix in="SourceAlpha" type="matrix" values="0 0 0 0 0 0 0 0 0 0 0 0 0 0 0 0 0 0 127 0" result="hardAlpha"/>
<feOffset/>
<feGaussianBlur stdDeviation="13"/>
<feComposite in2="hardAlpha" operator="arithmetic" k2="-1" k3="1"/>
<feColorMatrix type="matrix" values="0 0 0 0 0.823529 0 0 0 0 0.403451 0 0 0 0 0.0156863 0 0 0 1 0"/>
<feBlend mode="normal" in2="shape" result="effect1_innerShadow_75_14"/>
</filter>
<radialGradient id="paint0_radial_75_14" cx="0" cy="0" r="1" gradientUnits="userSpaceOnUse" gradientTransform="translate(74 55) rotate(90) scale(98.5374 97.8716)">
<stop offset="0.614583" stop-color="#FFEF5E"/>
<stop offset="0.911458" stop-color="#FF8C13"/>
<stop offset="0.994792" stop-color="#EB5500"/>
</radialGradient>
<radialGradient id="paint1_radial_75_14" cx="0" cy="0" r="1" gradientUnits="userSpaceOnUse" gradientTransform="translate(74 85.6435) rotate(90) scale(44.1529 48)">
<stop stop-color="#A66707"/>
<stop offset="1" stop-color="#945706"/>
</radialGradient>
<linearGradient id="paint2_linear_75_14" x1="27.8658" y1="87.697" x2="120.134" y2="87.697" gradientUnits="userSpaceOnUse">
<stop stop-color="#C9CCCC"/>
<stop offset="0.421875" stop-color="#F5F7F7"/>
<stop offset="0.624113" stop-color="#F5F7F7"/>
<stop offset="1" stop-color="#C9CCCC"/>
</linearGradient>
<linearGradient id="paint3_linear_75_14" x1="29.5386" y1="36.3611" x2="67.074" y2="36.3611" gradientUnits="userSpaceOnUse">
<stop stop-color="#EBEBEB"/>
<stop offset="0.401042" stop-color="#F5F7F7"/>
<stop offset="0.624113" stop-color="#F5F7F7"/>
<stop offset="1" stop-color="#F5F5F5"/>
</linearGradient>
<linearGradient id="paint4_linear_75_14" x1="81.1513" y1="37.5815" x2="118.687" y2="37.5815" gradientUnits="userSpaceOnUse">
<stop stop-color="#EBEBEB"/>
<stop offset="0.401042" stop-color="#F5F7F7"/>
<stop offset="0.624113" stop-color="#F5F7F7"/>
<stop offset="1" stop-color="#F5F5F5"/>
</linearGradient>
</defs>
</svg>
