<svg width="300" height="275" viewBox="0 0 300 275" fill="none" xmlns="http://www.w3.org/2000/svg">
<mask id="path-1-inside-1_302_15" fill="white">
<path d="M6.02117 0.844819C11.3967 1.40894 16.7487 3.12482 23.0631 6.27452C26.9128 8.17844 30.1287 10.1059 38.7435 15.6531C42.288 17.9331 47.687 21.2943 50.7151 23.1042C70.8086 35.0684 75.3156 37.8185 79.3765 40.5216C81.8882 42.2139 85.3388 44.729 87.0759 46.1158C88.7895 47.5261 91.4889 49.7121 93.0617 50.9814C96.1837 53.5199 100.738 56.5991 108.742 61.5587C116.958 66.6358 117.991 67.5055 128.178 77.5892C133.155 82.5018 138.155 87.2734 139.328 88.2136C144 91.9039 147.708 93.8783 151.253 94.5835C153.06 94.9361 153.201 94.9361 157.074 94.2779C160.877 93.6668 163.459 93.5728 164.563 94.0194C164.797 94.1134 165.056 93.9489 165.314 93.5258C166.37 91.7394 170.971 85.2754 172.896 82.8544C179.304 74.9097 185.9 70.7022 194.093 69.3389C196.862 68.8688 203.576 68.7983 206.815 69.2214C209.961 69.621 214.327 70.4907 218.435 71.5719C230.195 74.6276 234.186 75.5913 236.392 75.9674L238.857 76.367L244.96 75.1682C264.138 71.3839 272.002 70.1851 281.344 69.7385C286.532 69.4799 292.87 69.6915 297.048 70.3026C298.457 70.4907 299.724 70.6552 299.842 70.6552C299.982 70.6552 300.029 70.7022 299.982 70.7492C299.935 70.8197 298.926 70.9843 297.776 71.1253C278.081 73.5934 265.03 76.367 248.951 81.4911C237.448 85.1579 234.444 86.3567 231.58 88.3781C227.308 91.4573 223.458 97.4041 219.984 106.266C219.186 108.334 218.083 111.131 217.566 112.494C214.82 119.499 210.383 126.903 204.444 134.354C199.773 140.207 198.646 142.017 194.304 150.69C189.539 160.139 188.67 161.526 182.144 170.012C180.079 172.691 177.661 175.982 176.769 177.322C175.079 179.86 172.778 184.138 172.778 184.726C172.778 184.914 173.811 185.69 175.055 186.442C178.365 188.393 183.482 191.871 186.37 194.128C189.233 196.337 195.783 202.778 197.754 205.269C202.426 211.24 205.618 217.704 207.731 225.531L208.2 227.27L206.956 227.129C206.275 227.059 204.726 226.589 203.505 226.071C201.135 225.061 199.914 224.732 199.538 224.967C199.398 225.037 199.773 225.813 200.454 226.8C202.308 229.574 204.656 233.852 206.698 238.247C208.881 242.972 209.257 243.865 209.116 244.006C209.069 244.076 208.318 244.217 207.473 244.335C205.829 244.57 203.435 244.406 198.858 243.794C197.379 243.583 195.877 243.418 195.524 243.418C194.891 243.418 194.867 243.442 195.125 244.147C195.266 244.547 196.416 246.991 197.684 249.553C200.102 254.466 201.158 257.145 201.628 259.519C201.792 260.295 201.98 261.118 202.027 261.329C202.144 261.705 201.956 261.752 200.524 261.752C197.285 261.752 193.999 260.272 188.388 256.346C184.961 253.949 182.379 252.303 182.238 252.421C182.215 252.468 182.496 253.384 182.896 254.489C185.313 261.071 186.064 265.114 185.853 270.191C185.689 274.116 185.595 274.445 184.75 274.445C183.834 274.445 181.299 273.575 179.844 272.753C177.966 271.672 175.431 269.556 173.717 267.605C171.041 264.573 167.99 261.494 166.957 260.765L165.971 260.083V265.114C165.971 270.003 165.619 273.575 165.032 274.68C164.633 275.432 163.835 274.939 161.253 272.33C157.873 268.945 157.309 268.827 157.614 271.625C157.802 273.176 157.52 273.975 156.84 273.975C156.535 273.975 156.229 273.505 155.76 272.259C152.849 264.761 148.248 257.169 138.507 243.771C135.854 240.151 132.498 235.38 131.019 233.194C129.54 230.984 128.296 229.151 128.249 229.104C128.225 229.057 127.967 229.198 127.709 229.433C127.286 229.809 127.216 229.809 126.676 229.48C125.526 228.728 123.695 225.789 119.845 218.597C118.46 216.035 117.24 213.802 117.099 213.684C116.958 213.543 116.934 213.896 117.052 214.648C117.146 215.471 117.122 215.917 116.911 216.035C116.535 216.27 116.512 216.223 115.596 213.661C110.69 199.91 109.259 182.211 111.864 167.144C112.334 164.464 113.46 159.716 114.235 157.295L114.822 155.438L114.047 154.122C112.873 152.148 109.634 148.998 106.935 147.235C104.259 145.472 102.076 144.367 95.5734 141.382C90.2214 138.914 87.6627 137.574 85.2215 135.929C83.1088 134.519 80.1511 131.698 78.9775 129.982C78.2732 128.948 77.569 128.407 75.0339 126.809C68.6725 122.837 63.8604 119.076 59.4473 114.633C57.2408 112.4 56.8183 112.071 55.9967 111.954C54.5648 111.789 52.4287 110.779 51.3724 109.768C50.856 109.251 48.2973 106.407 45.6683 103.445C39.8703 96.84 36.983 94.0194 32.8047 90.9167C31.0441 89.6004 28.1804 87.4849 26.4668 86.1921C20.927 82.0552 18.1101 79.2581 15.5984 75.4268C14.1196 73.2173 13.0633 71.0313 13.3919 70.9373C14.1665 70.6552 41.0674 74.9331 43.7669 75.7558C44.119 75.8499 44.0251 75.6148 43.3209 74.6276C38.7905 68.3987 37.2412 65.202 35.4572 58.362C34.8234 55.941 34.706 55.7529 33.7671 54.9537C30.3399 52.1096 28.6968 49.2655 28.6498 46.0923C28.6264 45.2226 28.509 45.0581 26.7719 43.5772C25.7626 42.7075 23.8142 40.7566 22.4528 39.2523C19.6124 36.1496 9.84739 24.2795 9.14318 23.0572C8.88497 22.6106 8.50939 21.2708 8.3216 20.0721C7.8756 17.2514 7.14791 15.7471 4.49538 12.1273C0.598747 6.81513 -0.434096 4.30008 0.152747 1.33843L0.293589 0.609767L2.3358 0.633272C3.43907 0.656777 5.1057 0.750798 6.02117 0.844819Z"/>
</mask>
<path d="M6.02117 0.844819C11.3967 1.40894 16.7487 3.12482 23.0631 6.27452C26.9128 8.17844 30.1287 10.1059 38.7435 15.6531C42.288 17.9331 47.687 21.2943 50.7151 23.1042C70.8086 35.0684 75.3156 37.8185 79.3765 40.5216C81.8882 42.2139 85.3388 44.729 87.0759 46.1158C88.7895 47.5261 91.4889 49.7121 93.0617 50.9814C96.1837 53.5199 100.738 56.5991 108.742 61.5587C116.958 66.6358 117.991 67.5055 128.178 77.5892C133.155 82.5018 138.155 87.2734 139.328 88.2136C144 91.9039 147.708 93.8783 151.253 94.5835C153.06 94.9361 153.201 94.9361 157.074 94.2779C160.877 93.6668 163.459 93.5728 164.563 94.0194C164.797 94.1134 165.056 93.9489 165.314 93.5258C166.37 91.7394 170.971 85.2754 172.896 82.8544C179.304 74.9097 185.9 70.7022 194.093 69.3389C196.862 68.8688 203.576 68.7983 206.815 69.2214C209.961 69.621 214.327 70.4907 218.435 71.5719C230.195 74.6276 234.186 75.5913 236.392 75.9674L238.857 76.367L244.96 75.1682C264.138 71.3839 272.002 70.1851 281.344 69.7385C286.532 69.4799 292.87 69.6915 297.048 70.3026C298.457 70.4907 299.724 70.6552 299.842 70.6552C299.982 70.6552 300.029 70.7022 299.982 70.7492C299.935 70.8197 298.926 70.9843 297.776 71.1253C278.081 73.5934 265.03 76.367 248.951 81.4911C237.448 85.1579 234.444 86.3567 231.58 88.3781C227.308 91.4573 223.458 97.4041 219.984 106.266C219.186 108.334 218.083 111.131 217.566 112.494C214.82 119.499 210.383 126.903 204.444 134.354C199.773 140.207 198.646 142.017 194.304 150.69C189.539 160.139 188.67 161.526 182.144 170.012C180.079 172.691 177.661 175.982 176.769 177.322C175.079 179.86 172.778 184.138 172.778 184.726C172.778 184.914 173.811 185.69 175.055 186.442C178.365 188.393 183.482 191.871 186.37 194.128C189.233 196.337 195.783 202.778 197.754 205.269C202.426 211.24 205.618 217.704 207.731 225.531L208.2 227.27L206.956 227.129C206.275 227.059 204.726 226.589 203.505 226.071C201.135 225.061 199.914 224.732 199.538 224.967C199.398 225.037 199.773 225.813 200.454 226.8C202.308 229.574 204.656 233.852 206.698 238.247C208.881 242.972 209.257 243.865 209.116 244.006C209.069 244.076 208.318 244.217 207.473 244.335C205.829 244.57 203.435 244.406 198.858 243.794C197.379 243.583 195.877 243.418 195.524 243.418C194.891 243.418 194.867 243.442 195.125 244.147C195.266 244.547 196.416 246.991 197.684 249.553C200.102 254.466 201.158 257.145 201.628 259.519C201.792 260.295 201.98 261.118 202.027 261.329C202.144 261.705 201.956 261.752 200.524 261.752C197.285 261.752 193.999 260.272 188.388 256.346C184.961 253.949 182.379 252.303 182.238 252.421C182.215 252.468 182.496 253.384 182.896 254.489C185.313 261.071 186.064 265.114 185.853 270.191C185.689 274.116 185.595 274.445 184.75 274.445C183.834 274.445 181.299 273.575 179.844 272.753C177.966 271.672 175.431 269.556 173.717 267.605C171.041 264.573 167.99 261.494 166.957 260.765L165.971 260.083V265.114C165.971 270.003 165.619 273.575 165.032 274.68C164.633 275.432 163.835 274.939 161.253 272.33C157.873 268.945 157.309 268.827 157.614 271.625C157.802 273.176 157.52 273.975 156.84 273.975C156.535 273.975 156.229 273.505 155.76 272.259C152.849 264.761 148.248 257.169 138.507 243.771C135.854 240.151 132.498 235.38 131.019 233.194C129.54 230.984 128.296 229.151 128.249 229.104C128.225 229.057 127.967 229.198 127.709 229.433C127.286 229.809 127.216 229.809 126.676 229.48C125.526 228.728 123.695 225.789 119.845 218.597C118.46 216.035 117.24 213.802 117.099 213.684C116.958 213.543 116.934 213.896 117.052 214.648C117.146 215.471 117.122 215.917 116.911 216.035C116.535 216.27 116.512 216.223 115.596 213.661C110.69 199.91 109.259 182.211 111.864 167.144C112.334 164.464 113.46 159.716 114.235 157.295L114.822 155.438L114.047 154.122C112.873 152.148 109.634 148.998 106.935 147.235C104.259 145.472 102.076 144.367 95.5734 141.382C90.2214 138.914 87.6627 137.574 85.2215 135.929C83.1088 134.519 80.1511 131.698 78.9775 129.982C78.2732 128.948 77.569 128.407 75.0339 126.809C68.6725 122.837 63.8604 119.076 59.4473 114.633C57.2408 112.4 56.8183 112.071 55.9967 111.954C54.5648 111.789 52.4287 110.779 51.3724 109.768C50.856 109.251 48.2973 106.407 45.6683 103.445C39.8703 96.84 36.983 94.0194 32.8047 90.9167C31.0441 89.6004 28.1804 87.4849 26.4668 86.1921C20.927 82.0552 18.1101 79.2581 15.5984 75.4268C14.1196 73.2173 13.0633 71.0313 13.3919 70.9373C14.1665 70.6552 41.0674 74.9331 43.7669 75.7558C44.119 75.8499 44.0251 75.6148 43.3209 74.6276C38.7905 68.3987 37.2412 65.202 35.4572 58.362C34.8234 55.941 34.706 55.7529 33.7671 54.9537C30.3399 52.1096 28.6968 49.2655 28.6498 46.0923C28.6264 45.2226 28.509 45.0581 26.7719 43.5772C25.7626 42.7075 23.8142 40.7566 22.4528 39.2523C19.6124 36.1496 9.84739 24.2795 9.14318 23.0572C8.88497 22.6106 8.50939 21.2708 8.3216 20.0721C7.8756 17.2514 7.14791 15.7471 4.49538 12.1273C0.598747 6.81513 -0.434096 4.30008 0.152747 1.33843L0.293589 0.609767L2.3358 0.633272C3.43907 0.656777 5.1057 0.750798 6.02117 0.844819Z" fill="white" stroke="black" stroke-width="2" mask="url(#path-1-inside-1_302_15)"/>
</svg>
