<svg width="500" height="374" viewBox="0 0 500 374" fill="none" xmlns="http://www.w3.org/2000/svg">
<path opacity="0.7" d="M80.9436 99.5599C80.9436 100 80.7232 100.22 80.2826 100.22C79.8419 100.22 79.6216 100 79.6216 99.5599C79.6216 99.1197 79.8419 98.8997 80.2826 98.8997C80.5029 98.8997 80.9436 99.1197 80.9436 99.5599Z" fill="white"/>
<path opacity="0.7" d="M108.043 99.56C108.043 99.7801 107.823 100 107.603 100C107.382 100 107.162 99.7801 107.162 99.56C107.162 99.34 107.382 99.1199 107.603 99.1199C107.823 98.8998 108.043 99.1199 108.043 99.56Z" fill="white"/>
<path opacity="0.7" d="M54.5052 134.992C54.5052 135.212 54.2849 135.432 54.0645 135.432C53.8442 135.432 53.6239 135.212 53.6239 134.992C53.6239 134.772 53.8442 134.552 54.0645 134.552C54.2849 134.552 54.5052 134.772 54.5052 134.992Z" fill="white"/>
<path opacity="0.7" d="M359.875 108.143C359.875 108.363 359.655 108.583 359.434 108.583C359.214 108.583 358.994 108.363 358.994 108.143C358.994 107.923 359.214 107.703 359.434 107.703C359.655 107.703 359.875 107.923 359.875 108.143Z" fill="white"/>
<path opacity="0.7" d="M113.773 73.3711C113.773 73.5911 113.552 73.8112 113.332 73.8112C113.112 73.8112 112.891 73.5911 112.891 73.3711C112.891 73.151 113.112 72.9309 113.332 72.9309C113.552 72.9309 113.773 73.151 113.773 73.3711Z" fill="white"/>
<path opacity="0.7" d="M112.891 88.1158C112.891 88.3359 112.67 88.556 112.45 88.556C112.23 88.556 112.009 88.3359 112.009 88.1158C112.009 87.8957 112.23 87.6757 112.45 87.6757C112.67 87.6757 112.891 87.8957 112.891 88.1158Z" fill="white"/>
<path opacity="0.7" d="M132.941 11.3099C132.941 11.75 132.721 11.9701 132.28 11.9701C131.839 11.9701 131.619 11.75 131.619 11.3099C131.619 10.8697 131.839 10.6497 132.28 10.6497C132.721 10.6497 132.941 11.0898 132.941 11.3099Z" fill="white"/>
<path opacity="0.7" d="M135.363 114.965C135.363 115.405 134.923 115.845 134.482 115.845C134.041 115.845 133.601 115.405 133.601 114.965C133.601 114.525 134.041 114.085 134.482 114.085C135.143 114.085 135.363 114.525 135.363 114.965Z" fill="white"/>
<path opacity="0.7" d="M96.3677 4.70793C96.3677 5.14808 95.9271 5.58823 95.4864 5.58823C95.0458 5.58823 94.6051 5.14808 94.6051 4.70793C94.6051 4.26779 95.0458 3.82764 95.4864 3.82764C95.9271 3.82764 96.3677 4.04771 96.3677 4.70793Z" fill="white"/>
<path opacity="0.7" d="M23.2195 77.7726C23.2195 78.2128 22.7789 78.6529 22.3382 78.6529C21.8976 78.6529 21.4569 78.2128 21.4569 77.7726C21.4569 77.3325 21.8976 76.8923 22.3382 76.8923C22.7789 76.8923 23.2195 77.3325 23.2195 77.7726Z" fill="white"/>
<path opacity="0.7" d="M10.6608 147.096C10.6608 147.536 10.2202 147.977 9.77955 147.977C9.3389 147.977 8.89825 147.536 8.89825 147.096C8.89825 146.656 9.3389 146.216 9.77955 146.216C10.4405 146.216 10.6608 146.656 10.6608 147.096Z" fill="white"/>
<path opacity="0.7" d="M53.624 82.6142C53.624 83.0543 53.1834 83.4945 52.7427 83.4945C52.3021 83.4945 51.8615 83.0543 51.8615 82.6142C51.8615 82.174 52.3021 81.7339 52.7427 81.7339C53.1834 81.7339 53.624 82.174 53.624 82.6142Z" fill="white"/>
<path opacity="0.7" d="M34.2361 141.814C34.2361 142.254 34.0158 142.474 33.5752 142.474C33.1345 142.474 32.9142 142.254 32.9142 141.814C32.9142 141.374 33.1345 141.154 33.5752 141.154C34.0158 141.154 34.2361 141.374 34.2361 141.814Z" fill="white"/>
<path opacity="0.7" d="M45.9131 53.7843C45.9131 54.2244 45.6928 54.4445 45.2522 54.4445C44.8115 54.4445 44.5912 54.2244 44.5912 53.7843C44.5912 53.3441 44.8115 53.124 45.2522 53.124C45.6928 53.124 45.9131 53.5642 45.9131 53.7843Z" fill="white"/>
<path opacity="0.7" d="M23.44 0.526488C23.44 0.746563 23.2197 0.966635 22.9994 0.966635C22.779 0.966635 22.5587 0.746563 22.5587 0.526488C22.5587 0.306413 22.779 0.0863362 22.9994 0.0863362C23.2197 -0.133739 23.44 0.0863379 23.44 0.526488Z" fill="white"/>
<path opacity="0.7" d="M281.438 36.3985C281.438 36.6186 281.218 36.8387 280.998 36.8387C280.777 36.8387 280.557 36.6186 280.557 36.3985C280.557 36.1784 280.777 35.9584 280.998 35.9584C281.218 35.9584 281.438 35.9584 281.438 36.3985Z" fill="white"/>
<path opacity="0.7" d="M80.0636 28.476C80.0636 28.6961 79.8432 28.9162 79.6229 28.9162C79.4026 28.9162 79.1823 28.6961 79.1823 28.476C79.1823 28.256 79.4026 28.0359 79.6229 28.0359C79.8432 28.0359 80.0636 28.256 80.0636 28.476Z" fill="white"/>
<path opacity="0.7" d="M224.595 155.902C224.595 156.122 224.375 156.342 224.155 156.342C223.934 156.342 223.714 156.122 223.714 155.902C223.714 155.682 223.934 155.462 224.155 155.462C224.375 155.462 224.595 155.682 224.595 155.902Z" fill="white"/>
<path opacity="0.7" d="M99.4517 54.885C99.4517 55.1051 99.2313 55.3251 99.011 55.3251C98.7907 55.3251 98.5704 55.1051 98.5704 54.885C98.5704 54.6649 98.7907 54.4448 99.011 54.4448C99.2313 54.4448 99.4517 54.6649 99.4517 54.885Z" fill="white"/>
<path opacity="0.7" d="M63.9787 152.818C63.9787 153.038 63.7583 153.258 63.538 153.258C63.3177 153.258 63.0974 153.038 63.0974 152.818C63.0974 152.598 63.3177 152.378 63.538 152.378C63.7583 152.378 63.9787 152.598 63.9787 152.818Z" fill="white"/>
<path opacity="0.7" d="M68.6057 10.2099C68.6057 10.65 68.1651 11.0902 67.7244 11.0902C67.2838 11.0902 66.8431 10.65 66.8431 10.2099C66.8431 9.76974 67.2838 9.32959 67.7244 9.32959C68.1651 9.32959 68.6057 9.76974 68.6057 10.2099Z" fill="white"/>
<path opacity="0.7" d="M257.643 30.6764C257.643 31.1166 257.203 31.5567 256.762 31.5567C256.321 31.5567 255.881 31.1166 255.881 30.6764C255.881 30.2363 256.321 29.7961 256.762 29.7961C257.423 29.7961 257.643 30.0162 257.643 30.6764Z" fill="white"/>
<path opacity="0.7" d="M11.322 134.552C11.322 134.992 11.1017 135.212 10.661 135.212C10.2204 135.212 10.0001 134.992 10.0001 134.552C10.0001 134.112 10.2204 133.891 10.661 133.891C11.1017 133.891 11.322 134.112 11.322 134.552Z" fill="white"/>
<path opacity="0.7" d="M113.332 133.892C113.332 134.552 112.671 135.212 112.01 135.212C111.349 135.212 110.688 134.552 110.688 133.892C110.688 133.232 111.349 132.571 112.01 132.571C112.671 132.791 113.332 133.232 113.332 133.892Z" fill="white"/>
<path opacity="0.7" d="M73.8932 111.224C73.8932 111.444 73.6729 111.664 73.4526 111.664C73.2323 111.664 73.0119 111.444 73.0119 111.224C73.0119 111.004 73.2323 110.783 73.4526 110.783C73.6729 110.563 73.8932 110.783 73.8932 111.224Z" fill="white"/>
<path opacity="0.7" d="M100.994 147.976C100.994 148.196 100.774 148.416 100.554 148.416C100.333 148.416 100.113 148.196 100.113 147.976C100.113 147.756 100.333 147.536 100.554 147.536C100.774 147.536 100.994 147.756 100.994 147.976Z" fill="white"/>
<path opacity="0.7" d="M313.826 98.0194C313.826 98.2395 313.606 98.4595 313.386 98.4595C313.165 98.4595 312.945 98.2395 312.945 98.0194C312.945 97.7993 313.165 97.5792 313.386 97.5792C313.606 97.5792 313.826 97.7993 313.826 98.0194Z" fill="white"/>
<path opacity="0.7" d="M327.046 145.775C327.046 145.996 326.826 146.216 326.605 146.216C326.385 146.216 326.165 145.996 326.165 145.775C326.165 145.555 326.385 145.335 326.605 145.335C326.826 145.335 327.046 145.555 327.046 145.775Z" fill="white"/>
<path opacity="0.7" d="M260.508 142.915C260.508 143.135 260.287 143.355 260.067 143.355C259.847 143.355 259.626 143.135 259.626 142.915C259.626 142.695 259.847 142.475 260.067 142.475C260.287 142.475 260.508 142.695 260.508 142.915Z" fill="white"/>
<path opacity="0.7" d="M353.265 123.768C353.265 123.988 353.045 124.208 352.824 124.208C352.604 124.208 352.384 123.988 352.384 123.768C352.384 123.548 352.604 123.328 352.824 123.328C353.045 123.108 353.265 123.328 353.265 123.768Z" fill="white"/>
<path opacity="0.7" d="M315.59 127.509C315.59 127.949 315.149 128.389 314.709 128.389C314.268 128.389 313.827 127.949 313.827 127.509C313.827 127.069 314.268 126.629 314.709 126.629C315.149 126.629 315.59 127.069 315.59 127.509Z" fill="white"/>
<path opacity="0.7" d="M300.606 82.6142C300.606 83.0543 300.166 83.4945 299.725 83.4945C299.284 83.4945 298.844 83.0543 298.844 82.6142C298.844 82.174 299.284 81.7339 299.725 81.7339C300.166 81.7339 300.606 82.174 300.606 82.6142Z" fill="white"/>
<path opacity="0.7" d="M315.369 150.617C315.369 150.837 315.149 151.058 314.929 151.058C314.708 151.058 314.488 150.837 314.488 150.617C314.488 150.397 314.708 150.177 314.929 150.177C315.149 150.177 315.369 150.397 315.369 150.617Z" fill="white"/>
<path opacity="0.7" d="M327.046 28.476C327.046 28.6961 326.826 28.9162 326.605 28.9162C326.385 28.9162 326.165 28.6961 326.165 28.476C326.165 28.256 326.385 28.0359 326.605 28.0359C326.826 28.0359 327.046 28.256 327.046 28.476Z" fill="white"/>
<path opacity="0.7" d="M324.402 57.5258C324.402 57.7459 324.181 57.966 323.961 57.966C323.741 57.966 323.52 57.7459 323.52 57.5258C323.52 57.3058 323.741 57.0857 323.961 57.0857C324.181 57.0857 324.402 57.3058 324.402 57.5258Z" fill="white"/>
<path opacity="0.7" d="M301.489 17.9121C301.489 18.1322 301.269 18.3522 301.048 18.3522C300.828 18.3522 300.608 18.1322 300.608 17.9121C300.608 17.692 300.828 17.472 301.048 17.472C301.269 17.2519 301.489 17.472 301.489 17.9121Z" fill="white"/>
<path opacity="0.7" d="M315.59 10.2099C315.59 10.65 315.149 11.0902 314.709 11.0902C314.268 11.0902 313.827 10.65 313.827 10.2099C313.827 9.76974 314.268 9.32959 314.709 9.32959C315.149 9.32959 315.59 9.76974 315.59 10.2099Z" fill="white"/>
<path opacity="0.7" d="M278.574 76.4521C278.574 76.8922 278.133 77.3324 277.693 77.3324C277.252 77.3324 276.811 76.8922 276.811 76.4521C276.811 76.0119 277.252 75.5718 277.693 75.5718C278.133 75.5718 278.574 76.0119 278.574 76.4521Z" fill="white"/>
<path opacity="0.7" d="M267.117 110.784C267.117 111.004 266.897 111.224 266.677 111.224C266.456 111.224 266.236 111.004 266.236 110.784C266.236 110.564 266.456 110.344 266.677 110.344C266.897 110.344 267.117 110.564 267.117 110.784Z" fill="white"/>
<path opacity="0.7" d="M25.6431 151.718C25.6431 152.158 25.4228 152.378 24.9821 152.378C24.5415 152.378 24.3212 152.158 24.3212 151.718C24.3212 151.277 24.5415 151.057 24.9821 151.057C25.4228 151.057 25.6431 151.277 25.6431 151.718Z" fill="white"/>
<path opacity="0.7" d="M199.258 99.9999C199.258 100.66 198.598 101.32 197.937 101.32C197.276 101.32 196.615 100.66 196.615 99.9999C196.615 99.3397 197.276 98.6794 197.937 98.6794C198.598 98.8995 199.258 99.3397 199.258 99.9999Z" fill="white"/>
<path opacity="0.7" d="M183.835 98.0194C183.835 98.2395 183.615 98.4595 183.395 98.4595C183.174 98.4595 182.954 98.2395 182.954 98.0194C182.954 97.7993 183.174 97.5792 183.395 97.5792C183.615 97.5792 183.835 97.7993 183.835 98.0194Z" fill="white"/>
<path opacity="0.7" d="M156.736 45.6417C156.736 45.8618 156.516 46.0819 156.295 46.0819C156.075 46.0819 155.855 45.8618 155.855 45.6417C155.855 45.4216 156.075 45.2016 156.295 45.2016C156.516 44.9815 156.736 45.2016 156.736 45.6417Z" fill="white"/>
<path opacity="0.7" d="M197.275 145.775C197.275 145.996 197.054 146.216 196.834 146.216C196.614 146.216 196.393 145.996 196.393 145.775C196.393 145.555 196.614 145.335 196.834 145.335C197.054 145.335 197.275 145.555 197.275 145.775Z" fill="white"/>
<path opacity="0.7" d="M171.718 134.992C171.718 135.212 171.497 135.432 171.277 135.432C171.057 135.432 170.836 135.212 170.836 134.992C170.836 134.772 171.057 134.552 171.277 134.552C171.497 134.552 171.718 134.772 171.718 134.992Z" fill="white"/>
<path opacity="0.7" d="M230.104 153.038C230.104 153.258 229.883 153.478 229.663 153.478C229.443 153.478 229.222 153.258 229.222 153.038C229.222 152.818 229.443 152.598 229.663 152.598C229.883 152.598 230.104 152.818 230.104 153.038Z" fill="white"/>
<path opacity="0.7" d="M159.82 124.428C159.82 124.648 159.599 124.868 159.379 124.868C159.159 124.868 158.938 124.648 158.938 124.428C158.938 124.208 159.159 123.988 159.379 123.988C159.599 123.768 159.82 123.988 159.82 124.428Z" fill="white"/>
<path opacity="0.7" d="M230.104 88.1158C230.104 88.3359 229.883 88.556 229.663 88.556C229.443 88.556 229.222 88.3359 229.222 88.1158C229.222 87.8957 229.443 87.6757 229.663 87.6757C229.883 87.6757 230.104 87.8957 230.104 88.1158Z" fill="white"/>
<path opacity="0.7" d="M180.53 76.452C180.53 76.6721 180.31 76.8921 180.09 76.8921C179.869 76.8921 179.649 76.6721 179.649 76.452C179.649 76.2319 179.869 76.0118 180.09 76.0118C180.31 76.0118 180.53 76.2319 180.53 76.452Z" fill="white"/>
<path opacity="0.7" d="M126.111 99.9999C126.111 100.44 125.671 100.88 125.23 100.88C124.789 100.88 124.349 100.44 124.349 99.9999C124.349 99.5598 124.789 99.1196 125.23 99.1196C125.671 99.1196 126.111 99.5598 126.111 99.9999Z" fill="white"/>
<path opacity="0.7" d="M135.144 88.1161C135.144 88.5563 134.703 88.9964 134.263 88.9964C133.822 88.9964 133.381 88.5563 133.381 88.1161C133.381 87.676 133.822 87.2358 134.263 87.2358C134.703 87.2358 135.144 87.676 135.144 88.1161Z" fill="white"/>
<path opacity="0.7" d="M127.874 147.096C127.874 147.536 127.433 147.977 126.992 147.977C126.552 147.977 126.111 147.536 126.111 147.096C126.111 146.656 126.552 146.216 126.992 146.216C127.433 146.216 127.874 146.656 127.874 147.096Z" fill="white"/>
<path opacity="0.7" d="M170.615 82.6142C170.615 83.0543 170.174 83.4945 169.734 83.4945C169.293 83.4945 168.853 83.0543 168.853 82.6142C168.853 82.174 169.293 81.7339 169.734 81.7339C170.174 81.7339 170.615 82.174 170.615 82.6142Z" fill="white"/>
<path opacity="0.7" d="M151.447 141.814C151.447 142.254 151.227 142.474 150.786 142.474C150.345 142.474 150.125 142.254 150.125 141.814C150.125 141.374 150.345 141.154 150.786 141.154C151.227 141.154 151.447 141.374 151.447 141.814Z" fill="white"/>
<path opacity="0.7" d="M215.561 116.506C215.561 117.166 214.9 117.826 214.239 117.826C213.578 117.826 212.917 117.166 212.917 116.506C212.917 115.845 213.578 115.185 214.239 115.185C215.121 115.185 215.561 115.625 215.561 116.506Z" fill="white"/>
<path opacity="0.7" d="M152.77 71.6107C152.77 72.0508 152.55 72.2709 152.109 72.2709C151.669 72.2709 151.448 72.0508 151.448 71.6107C151.448 71.1705 151.669 70.9504 152.109 70.9504C152.329 70.9504 152.77 71.1705 152.77 71.6107Z" fill="white"/>
<path opacity="0.7" d="M140.653 0.526488C140.653 0.746563 140.432 0.966635 140.212 0.966635C139.992 0.966635 139.771 0.746563 139.771 0.526488C139.771 0.306413 139.992 0.0863362 140.212 0.0863362C140.432 -0.133739 140.653 0.0863379 140.653 0.526488Z" fill="white"/>
<path opacity="0.7" d="M141.092 46.082C141.092 46.3021 140.871 46.5221 140.651 46.5221C140.431 46.5221 140.21 46.3021 140.21 46.082C140.21 45.8619 140.431 45.6418 140.651 45.6418C140.871 45.6418 141.092 45.8619 141.092 46.082Z" fill="white"/>
<path opacity="0.7" d="M197.275 28.476C197.275 28.6961 197.054 28.9162 196.834 28.9162C196.614 28.9162 196.393 28.6961 196.393 28.476C196.393 28.256 196.614 28.0359 196.834 28.0359C197.054 28.0359 197.275 28.256 197.275 28.476Z" fill="white"/>
<path opacity="0.7" d="M194.632 57.5258C194.632 57.7459 194.412 57.966 194.191 57.966C193.971 57.966 193.751 57.7459 193.751 57.5258C193.751 57.3058 193.971 57.0857 194.191 57.0857C194.412 57.0857 194.632 57.3058 194.632 57.5258Z" fill="white"/>
<path opacity="0.7" d="M171.718 17.9121C171.718 18.1322 171.497 18.3522 171.277 18.3522C171.057 18.3522 170.836 18.1322 170.836 17.9121C170.836 17.692 171.057 17.472 171.277 17.472C171.497 17.2519 171.718 17.472 171.718 17.9121Z" fill="white"/>
<path opacity="0.7" d="M216.224 55.3251C216.467 55.3251 216.665 55.1281 216.665 54.885C216.665 54.6419 216.467 54.4448 216.224 54.4448C215.98 54.4448 215.783 54.6419 215.783 54.885C215.783 55.1281 215.98 55.3251 216.224 55.3251Z" fill="white"/>
<path opacity="0.7" d="M160.041 7.12849C160.041 7.34856 159.821 7.56863 159.6 7.56863C159.38 7.56863 159.16 7.34856 159.16 7.12849C159.16 6.90842 159.38 6.68835 159.6 6.68835C159.821 6.68835 160.041 6.90842 160.041 7.12849Z" fill="white"/>
<path opacity="0.7" d="M12.6439 2.06678C12.6439 2.72701 11.983 3.38723 11.322 3.38723C10.661 3.38723 10.0001 2.72701 10.0001 2.06678C10.0001 1.40656 10.661 0.746338 11.322 0.746338C12.2033 0.746338 12.6439 1.40656 12.6439 2.06678Z" fill="white"/>
<path opacity="0.7" d="M185.599 10.2099C185.599 10.65 185.158 11.0902 184.717 11.0902C184.277 11.0902 183.836 10.65 183.836 10.2099C183.836 9.76974 184.277 9.32959 184.717 9.32959C185.158 9.32959 185.599 9.76974 185.599 10.2099Z" fill="white"/>
<path opacity="0.7" d="M178.107 56.6452C178.107 57.0853 177.666 57.5255 177.226 57.5255C176.785 57.5255 176.345 57.0853 176.345 56.6452C176.345 56.205 176.785 55.7649 177.226 55.7649C177.887 55.7649 178.107 56.205 178.107 56.6452Z" fill="white"/>
<path opacity="0.7" d="M163.345 44.9814C163.345 45.4215 162.904 45.8617 162.464 45.8617C162.023 45.8617 161.582 45.4215 161.582 44.9814C161.582 44.5412 162.023 44.1011 162.464 44.1011C163.125 44.1011 163.345 44.3211 163.345 44.9814Z" fill="white"/>
<path opacity="0.7" d="M127.874 30.0164C127.874 30.4566 127.433 30.8967 126.992 30.8967C126.552 30.8967 126.111 30.4566 126.111 30.0164C126.111 29.5763 126.552 29.1361 126.992 29.1361C127.433 29.1361 127.874 29.3562 127.874 30.0164Z" fill="white"/>
<path opacity="0.7" d="M151.447 24.5144C151.447 24.9545 151.227 25.1746 150.786 25.1746C150.345 25.1746 150.125 24.9545 150.125 24.5144C150.125 24.0742 150.345 23.8541 150.786 23.8541C151.227 23.8541 151.447 24.2943 151.447 24.5144Z" fill="white"/>
<path opacity="0.7" d="M140.211 55.9852C140.211 56.4253 139.991 56.6454 139.55 56.6454C139.109 56.6454 138.889 56.4253 138.889 55.9852C138.889 55.545 139.109 55.325 139.55 55.325C139.77 55.325 140.211 55.545 140.211 55.9852Z" fill="white"/>
<path opacity="0.7" d="M179.65 41.02C179.65 41.4601 179.43 41.6802 178.989 41.6802C178.548 41.6802 178.328 41.4601 178.328 41.02C178.328 40.5798 178.548 40.3597 178.989 40.3597C179.209 40.3597 179.65 40.5798 179.65 41.02Z" fill="white"/>
<path opacity="0.7" d="M125.229 53.124C125.229 53.7843 124.568 54.4445 123.907 54.4445C123.246 54.4445 122.585 53.7843 122.585 53.124C122.585 52.4638 123.246 51.8036 123.907 51.8036C124.788 51.8036 125.229 52.4638 125.229 53.124Z" fill="white"/>
<path opacity="0.7" d="M190.004 128.39C190.004 128.61 189.784 128.83 189.564 128.83C189.343 128.83 189.123 128.61 189.123 128.39C189.123 128.17 189.343 127.949 189.564 127.949C189.784 127.949 190.004 128.17 190.004 128.39Z" fill="white"/>
<path opacity="0.7" d="M142.634 151.718C142.634 152.158 142.414 152.378 141.973 152.378C141.533 152.378 141.312 152.158 141.312 151.718C141.312 151.277 141.533 151.057 141.973 151.057C142.414 151.057 142.634 151.277 142.634 151.718Z" fill="white"/>
<path opacity="0.7" d="M209.392 19.8929C209.392 20.113 209.172 20.3331 208.952 20.3331C208.731 20.3331 208.511 20.113 208.511 19.8929C208.511 19.6728 208.731 19.4528 208.952 19.4528C209.172 19.4528 209.392 19.6728 209.392 19.8929Z" fill="white"/>
<path opacity="0.7" d="M204.106 74.2513C204.106 74.9116 203.445 75.5718 202.784 75.5718C202.123 75.5718 201.462 74.9116 201.462 74.2513C201.462 73.5911 202.123 72.9309 202.784 72.9309C203.445 72.9309 204.106 73.5911 204.106 74.2513Z" fill="white"/>
<path opacity="0.7" d="M216.444 54.0043C216.444 54.4445 216.003 54.8846 215.563 54.8846C215.122 54.8846 214.681 54.4445 214.681 54.0043C214.681 53.5642 215.122 53.124 215.563 53.124C216.224 53.124 216.444 53.5642 216.444 54.0043Z" fill="white"/>
<path opacity="0.7" d="M231.645 19.8929C231.645 20.333 231.205 20.7732 230.764 20.7732C230.324 20.7732 229.883 20.333 229.883 19.8929C229.883 19.4527 230.324 19.0126 230.764 19.0126C231.425 19.0126 231.645 19.4527 231.645 19.8929Z" fill="white"/>
<path opacity="0.7" d="M224.375 79.0929C224.375 79.5331 223.934 79.9732 223.494 79.9732C223.053 79.9732 222.612 79.5331 222.612 79.0929C222.612 78.6528 223.053 78.2126 223.494 78.2126C223.934 78.2126 224.375 78.6528 224.375 79.0929Z" fill="white"/>
<path opacity="0.7" d="M239.357 83.4945C239.357 83.9346 239.137 84.1547 238.696 84.1547C238.255 84.1547 238.035 83.9346 238.035 83.4945C238.035 83.0543 238.255 82.8342 238.696 82.8342C238.916 82.8342 239.357 83.2744 239.357 83.4945Z" fill="white"/>
<path opacity="0.7" d="M303.472 57.9659C303.472 57.7458 303.692 57.5258 303.912 57.5258C304.132 57.5258 304.353 57.7458 304.353 57.9659C304.353 58.186 304.132 58.4061 303.912 58.4061C303.692 58.6261 303.472 58.4061 303.472 57.9659Z" fill="white"/>
<path opacity="0.7" d="M290.252 10.2098C290.252 9.98973 290.473 9.76965 290.693 9.76965C290.913 9.76965 291.134 9.98973 291.134 10.2098C291.134 10.4299 290.913 10.65 290.693 10.65C290.473 10.65 290.252 10.65 290.252 10.2098Z" fill="white"/>
<path opacity="0.7" d="M257.204 68.0894C257.204 67.8694 257.424 67.6493 257.644 67.6493C257.865 67.6493 258.085 67.8694 258.085 68.0894C258.085 68.3095 257.865 68.5296 257.644 68.5296C257.424 68.5296 257.204 68.3095 257.204 68.0894Z" fill="white"/>
<path opacity="0.7" d="M262.712 13.7308C262.712 13.0706 263.373 12.4104 264.034 12.4104C264.695 12.4104 265.355 13.0706 265.355 13.7308C265.355 14.3911 264.695 15.0513 264.034 15.0513C263.373 15.0513 262.712 14.3911 262.712 13.7308Z" fill="white"/>
<path opacity="0.7" d="M301.71 28.696C301.71 28.2558 302.15 27.8157 302.591 27.8157C303.031 27.8157 303.472 28.2558 303.472 28.696C303.472 29.1361 303.031 29.5763 302.591 29.5763C302.15 29.5763 301.71 29.1361 301.71 28.696Z" fill="white"/>
<path opacity="0.7" d="M292.896 98.6795C292.896 98.4594 293.117 98.2394 293.337 98.2394C293.557 98.2394 293.778 98.4594 293.778 98.6795C293.778 98.8996 293.557 99.1197 293.337 99.1197C293.117 99.1197 292.896 98.8996 292.896 98.6795Z" fill="white"/>
<path opacity="0.7" d="M301.71 145.776C301.71 145.335 302.15 144.895 302.591 144.895C303.031 144.895 303.472 145.335 303.472 145.776C303.472 146.216 303.031 146.656 302.591 146.656C302.15 146.656 301.71 146.436 301.71 145.776Z" fill="white"/>
<path opacity="0.7" d="M97.9098 22.3138C97.9098 22.0937 98.1301 21.8737 98.3504 21.8737C98.5707 21.8737 98.7911 22.0937 98.7911 22.3138C98.7911 22.5339 98.5707 22.754 98.3504 22.754C98.1301 22.754 97.9098 22.5339 97.9098 22.3138Z" fill="white"/>
<path opacity="0.7" d="M263.813 38.1591C263.813 37.719 264.254 37.2788 264.695 37.2788C265.135 37.2788 265.576 37.719 265.576 38.1591C265.576 38.5993 265.135 39.0394 264.695 39.0394C264.254 39.0394 263.813 38.5993 263.813 38.1591Z" fill="white"/>
<path opacity="0.7" d="M242.442 8.88921C242.442 8.44906 242.882 8.00891 243.323 8.00891C243.763 8.00891 244.204 8.44906 244.204 8.88921C244.204 9.32936 243.763 9.76951 243.323 9.76951C242.882 9.76951 242.442 9.32936 242.442 8.88921Z" fill="white"/>
<path opacity="0.7" d="M242.442 126.189C242.442 125.749 242.882 125.309 243.323 125.309C243.763 125.309 244.204 125.749 244.204 126.189C244.204 126.629 243.763 127.069 243.323 127.069C242.662 127.069 242.442 126.629 242.442 126.189Z" fill="white"/>
<path opacity="0.7" d="M245.086 103.081C245.086 102.421 245.747 101.761 246.408 101.761C247.069 101.761 247.73 102.421 247.73 103.081C247.73 103.741 247.069 104.402 246.408 104.402C245.527 104.182 245.086 103.741 245.086 103.081Z" fill="white"/>
<path opacity="0.7" d="M409.226 99.5599C409.226 100 409.006 100.22 408.565 100.22C408.124 100.22 407.904 100 407.904 99.5599C407.904 99.1197 408.124 98.8997 408.565 98.8997C408.785 98.8997 409.226 99.1197 409.226 99.5599Z" fill="white"/>
<path opacity="0.7" d="M395.127 98.0194C395.127 98.2395 394.907 98.4595 394.686 98.4595C394.466 98.4595 394.246 98.2395 394.246 98.0194C394.246 97.7993 394.466 97.5792 394.686 97.5792C394.907 97.5792 395.127 97.7993 395.127 98.0194Z" fill="white"/>
<path opacity="0.7" d="M436.326 99.56C436.326 99.7801 436.106 100 435.885 100C435.665 100 435.445 99.7801 435.445 99.56C435.445 99.34 435.665 99.1199 435.885 99.1199C436.106 98.8998 436.326 99.1199 436.326 99.56Z" fill="white"/>
<path opacity="0.7" d="M408.346 145.775C408.346 145.996 408.126 146.216 407.905 146.216C407.685 146.216 407.465 145.996 407.465 145.775C407.465 145.555 407.685 145.335 407.905 145.335C408.126 145.335 408.346 145.555 408.346 145.775Z" fill="white"/>
<path opacity="0.7" d="M61.7753 32.217C61.7753 32.4371 61.555 32.6572 61.3347 32.6572C61.1144 32.6572 60.894 32.4371 60.894 32.217C60.894 31.997 61.1144 31.7769 61.3347 31.7769C61.555 31.5568 61.7753 31.7769 61.7753 32.217Z" fill="white"/>
<path opacity="0.7" d="M490.527 116.506C490.527 116.726 490.306 116.946 490.086 116.946C489.866 116.946 489.645 116.726 489.645 116.506C489.645 116.286 489.866 116.066 490.086 116.066C490.306 115.846 490.527 116.066 490.527 116.506Z" fill="white"/>
<path opacity="0.7" d="M441.173 88.1158C441.173 88.3359 440.953 88.556 440.733 88.556C440.512 88.556 440.292 88.3359 440.292 88.1158C440.292 87.8957 440.512 87.6757 440.733 87.6757C440.953 87.6757 441.173 87.8957 441.173 88.1158Z" fill="white"/>
<path opacity="0.7" d="M391.822 76.452C391.822 76.6721 391.602 76.8921 391.381 76.8921C391.161 76.8921 390.94 76.6721 390.94 76.452C390.94 76.2319 391.161 76.0118 391.381 76.0118C391.602 76.0118 391.822 76.2319 391.822 76.452Z" fill="white"/>
<path opacity="0.7" d="M383.669 105.942C383.669 106.382 383.449 106.602 383.008 106.602C382.567 106.602 382.347 106.382 382.347 105.942C382.347 105.502 382.567 105.282 383.008 105.282C383.228 105.282 383.669 105.502 383.669 105.942Z" fill="white"/>
<path opacity="0.7" d="M2.94881 21.4335C2.94881 22.0937 2.28785 22.7539 1.62687 22.7539C0.965904 22.7539 0.304932 22.0937 0.304932 21.4335C0.304932 20.7733 0.965904 20.113 1.62687 20.113C2.50817 20.3331 2.94881 20.7733 2.94881 21.4335Z" fill="white"/>
<path opacity="0.7" d="M346.435 88.1161C346.435 88.5563 345.995 88.9964 345.554 88.9964C345.113 88.9964 344.673 88.5563 344.673 88.1161C344.673 87.676 345.113 87.2358 345.554 87.2358C345.995 87.2358 346.435 87.676 346.435 88.1161Z" fill="white"/>
<path opacity="0.7" d="M381.906 82.6142C381.906 83.0543 381.466 83.4945 381.025 83.4945C380.585 83.4945 380.144 83.0543 380.144 82.6142C380.144 82.174 380.585 81.7339 381.025 81.7339C381.466 81.7339 381.906 82.174 381.906 82.6142Z" fill="white"/>
<path opacity="0.7" d="M351.722 0.526488C351.722 0.746563 351.502 0.966635 351.282 0.966635C351.061 0.966635 350.841 0.746563 350.841 0.526488C350.841 0.306413 351.061 0.0863362 351.282 0.0863362C351.502 -0.133739 351.722 0.0863379 351.722 0.526488Z" fill="white"/>
<path opacity="0.7" d="M443.376 20.553C443.376 20.773 443.156 20.9931 442.936 20.9931C442.715 20.9931 442.495 20.773 442.495 20.553C442.495 20.3329 442.715 20.1128 442.936 20.1128C443.156 19.8928 443.376 20.1128 443.376 20.553Z" fill="white"/>
<path opacity="0.7" d="M408.346 28.476C408.346 28.6961 408.126 28.9162 407.905 28.9162C407.685 28.9162 407.465 28.6961 407.465 28.476C407.465 28.256 407.685 28.0359 407.905 28.0359C408.126 28.0359 408.346 28.256 408.346 28.476Z" fill="white"/>
<path opacity="0.7" d="M405.702 57.5258C405.702 57.7459 405.482 57.966 405.261 57.966C405.041 57.966 404.821 57.7459 404.821 57.5258C404.821 57.3058 405.041 57.0857 405.261 57.0857C405.482 57.0857 405.702 57.3058 405.702 57.5258Z" fill="white"/>
<path opacity="0.7" d="M382.788 17.9121C382.788 18.1322 382.567 18.3522 382.347 18.3522C382.127 18.3522 381.906 18.1322 381.906 17.9121C381.906 17.692 382.127 17.472 382.347 17.472C382.567 17.2519 382.788 17.472 382.788 17.9121Z" fill="white"/>
<path opacity="0.7" d="M427.734 54.885C427.734 55.1051 427.514 55.3251 427.294 55.3251C427.073 55.3251 426.853 55.1051 426.853 54.885C426.853 54.6649 427.073 54.4448 427.294 54.4448C427.514 54.4448 427.734 54.6649 427.734 54.885Z" fill="white"/>
<path opacity="0.7" d="M371.111 7.12849C371.111 7.34856 370.89 7.56863 370.67 7.56863C370.45 7.56863 370.229 7.34856 370.229 7.12849C370.229 6.90842 370.45 6.68835 370.67 6.68835C370.89 6.68835 371.111 6.90842 371.111 7.12849Z" fill="white"/>
<path opacity="0.7" d="M396.888 10.2099C396.888 10.65 396.448 11.0902 396.007 11.0902C395.566 11.0902 395.126 10.65 395.126 10.2099C395.126 9.76974 395.566 9.32959 396.007 9.32959C396.448 9.32959 396.888 9.76974 396.888 10.2099Z" fill="white"/>
<path opacity="0.7" d="M389.398 56.6452C389.398 57.0853 388.958 57.5255 388.517 57.5255C388.077 57.5255 387.636 57.0853 387.636 56.6452C387.636 56.205 388.077 55.7649 388.517 55.7649C388.958 55.7649 389.398 56.205 389.398 56.6452Z" fill="white"/>
<path opacity="0.7" d="M374.636 44.9814C374.636 45.4215 374.196 45.8617 373.755 45.8617C373.314 45.8617 372.874 45.4215 372.874 44.9814C372.874 44.5412 373.314 44.1011 373.755 44.1011C374.196 44.1011 374.636 44.3211 374.636 44.9814Z" fill="white"/>
<path opacity="0.7" d="M339.163 30.0164C339.163 30.4566 338.722 30.8967 338.282 30.8967C337.841 30.8967 337.401 30.4566 337.401 30.0164C337.401 29.5763 337.841 29.1361 338.282 29.1361C338.722 29.1361 339.163 29.3562 339.163 30.0164Z" fill="white"/>
<path opacity="0.7" d="M362.519 24.5144C362.519 24.9545 362.299 25.1746 361.858 25.1746C361.417 25.1746 361.197 24.9545 361.197 24.5144C361.197 24.0742 361.417 23.8541 361.858 23.8541C362.299 23.8541 362.519 24.2943 362.519 24.5144Z" fill="white"/>
<path opacity="0.7" d="M402.176 111.224C402.176 111.444 401.955 111.664 401.735 111.664C401.515 111.664 401.294 111.444 401.294 111.224C401.294 111.004 401.515 110.783 401.735 110.783C401.955 110.563 402.176 110.783 402.176 111.224Z" fill="white"/>
<path opacity="0.7" d="M271.744 127.289C271.744 127.729 271.304 128.17 270.863 128.17C270.423 128.17 269.982 127.729 269.982 127.289C269.982 126.849 270.423 126.409 270.863 126.409C271.304 126.409 271.744 126.629 271.744 127.289Z" fill="white"/>
<path opacity="0.7" d="M443.376 147.096C443.376 147.316 443.156 147.536 442.936 147.536C442.715 147.536 442.495 147.316 442.495 147.096C442.495 146.876 442.715 146.656 442.936 146.656C443.156 146.656 443.376 146.876 443.376 147.096Z" fill="white"/>
<path opacity="0.7" d="M353.925 151.718C353.925 152.158 353.705 152.378 353.264 152.378C352.824 152.378 352.604 152.158 352.604 151.718C352.604 151.277 352.824 151.057 353.264 151.057C353.705 151.057 353.925 151.277 353.925 151.718Z" fill="white"/>
<path opacity="0.7" d="M485.018 45.6417C485.018 45.8618 484.798 46.0819 484.578 46.0819C484.357 46.0819 484.137 45.8618 484.137 45.6417C484.137 45.4216 484.357 45.2016 484.578 45.2016C484.798 44.9815 485.018 45.2016 485.018 45.6417Z" fill="white"/>
<path opacity="0.7" d="M500 134.992C500 135.212 499.78 135.432 499.559 135.432C499.339 135.432 499.119 135.212 499.119 134.992C499.119 134.772 499.339 134.552 499.559 134.552C499.78 134.552 500 134.772 500 134.992Z" fill="white"/>
<path opacity="0.7" d="M454.394 99.9999C454.394 100.44 453.953 100.88 453.512 100.88C453.072 100.88 452.631 100.44 452.631 99.9999C452.631 99.5598 453.072 99.1196 453.512 99.1196C453.953 99.1196 454.394 99.5598 454.394 99.9999Z" fill="white"/>
<path opacity="0.7" d="M463.426 88.1161C463.426 88.5563 462.986 88.9964 462.545 88.9964C462.104 88.9964 461.664 88.5563 461.664 88.1161C461.664 87.676 462.104 87.2358 462.545 87.2358C463.206 87.2358 463.426 87.676 463.426 88.1161Z" fill="white"/>
<path opacity="0.7" d="M456.156 147.096C456.156 147.536 455.716 147.977 455.275 147.977C454.834 147.977 454.394 147.536 454.394 147.096C454.394 146.656 454.834 146.216 455.275 146.216C455.716 146.216 456.156 146.656 456.156 147.096Z" fill="white"/>
<path opacity="0.7" d="M498.898 82.6142C498.898 83.0543 498.457 83.4945 498.017 83.4945C497.576 83.4945 497.135 83.0543 497.135 82.6142C497.135 82.174 497.576 81.7339 498.017 81.7339C498.678 81.7339 498.898 82.174 498.898 82.6142Z" fill="white"/>
<path opacity="0.7" d="M479.73 141.814C479.73 142.254 479.509 142.474 479.069 142.474C478.628 142.474 478.408 142.254 478.408 141.814C478.408 141.374 478.628 141.154 479.069 141.154C479.509 141.154 479.73 141.374 479.73 141.814Z" fill="white"/>
<path opacity="0.7" d="M481.053 71.6107C481.053 72.0508 480.832 72.2709 480.392 72.2709C479.951 72.2709 479.731 72.0508 479.731 71.6107C479.731 71.1705 479.951 70.9504 480.392 70.9504C480.832 70.9504 481.053 71.1705 481.053 71.6107Z" fill="white"/>
<path opacity="0.7" d="M490.527 233.565C490.527 233.785 490.306 234.005 490.086 234.005C489.866 234.005 489.645 233.785 489.645 233.565C489.645 233.345 489.866 233.125 490.086 233.125C490.306 232.904 490.527 233.125 490.527 233.565Z" fill="white"/>
<path opacity="0.7" d="M485.018 162.701C485.018 162.921 484.798 163.141 484.578 163.141C484.357 163.141 484.137 162.921 484.137 162.701C484.137 162.481 484.357 162.26 484.578 162.26C484.798 162.04 485.018 162.26 485.018 162.701Z" fill="white"/>
<path opacity="0.7" d="M454.394 217.059C454.394 217.499 453.953 217.939 453.512 217.939C453.072 217.939 452.631 217.499 452.631 217.059C452.631 216.619 453.072 216.178 453.512 216.178C453.953 216.178 454.394 216.619 454.394 217.059Z" fill="white"/>
<path opacity="0.7" d="M463.426 205.175C463.426 205.615 462.986 206.055 462.545 206.055C462.104 206.055 461.664 205.615 461.664 205.175C461.664 204.735 462.104 204.295 462.545 204.295C463.206 204.295 463.426 204.735 463.426 205.175Z" fill="white"/>
<path opacity="0.7" d="M498.898 199.673C498.898 200.113 498.457 200.553 498.017 200.553C497.576 200.553 497.135 200.113 497.135 199.673C497.135 199.233 497.576 198.793 498.017 198.793C498.678 198.793 498.898 199.233 498.898 199.673Z" fill="white"/>
<path opacity="0.7" d="M481.053 188.67C481.053 189.11 480.832 189.33 480.392 189.33C479.951 189.33 479.731 189.11 479.731 188.67C479.731 188.229 479.951 188.009 480.392 188.009C480.832 188.009 481.053 188.229 481.053 188.67Z" fill="white"/>
<path opacity="0.7" d="M468.935 0.526488C468.935 0.746563 468.715 0.966635 468.495 0.966635C468.274 0.966635 468.054 0.746563 468.054 0.526488C468.054 0.306413 468.274 0.0863362 468.495 0.0863362C468.715 -0.133739 468.935 0.0863379 468.935 0.526488Z" fill="white"/>
<path opacity="0.7" d="M500 17.9121C500 18.1322 499.78 18.3522 499.559 18.3522C499.339 18.3522 499.119 18.1322 499.119 17.9121C499.119 17.692 499.339 17.472 499.559 17.472C499.78 17.2519 500 17.472 500 17.9121Z" fill="white"/>
<path opacity="0.7" d="M488.323 7.12849C488.323 7.34856 488.103 7.56863 487.883 7.56863C487.662 7.56863 487.442 7.34856 487.442 7.12849C487.442 6.90842 487.662 6.68835 487.883 6.68835C488.103 6.68835 488.323 6.90842 488.323 7.12849Z" fill="white"/>
<path opacity="0.7" d="M217.325 135.432C217.325 136.092 216.664 136.753 216.003 136.753C215.342 136.753 214.681 136.092 214.681 135.432C214.681 134.772 215.342 134.112 216.003 134.112C216.885 134.332 217.325 134.772 217.325 135.432Z" fill="white"/>
<g opacity="0.7">
<path opacity="0.7" d="M242.222 37.0586L242.442 41.6802L247.29 42.1203L242.663 42.3404L242.222 47.182L241.782 42.3404L237.155 42.1203L241.782 41.6802L242.222 37.0586Z" fill="white"/>
<path opacity="0.7" d="M244.205 39.9197L242.662 41.9004L244.205 44.1011L242.222 42.3405L240.019 44.3212L241.781 42.1204L240.019 39.9197L242.222 41.6803L244.205 39.9197Z" fill="white"/>
</g>
<g opacity="0.7">
<path opacity="0.7" d="M192.209 27.5953L192.649 32.2169L197.276 32.657L192.649 32.8771L192.209 37.7188L191.768 32.8771L187.141 32.657L191.768 32.2169L192.209 27.5953Z" fill="white"/>
<path opacity="0.7" d="M194.191 30.4564L192.649 32.6572L194.191 34.6378L192.208 33.0973L190.005 34.8579L191.988 32.6572L190.005 30.6765L192.208 32.217L194.191 30.4564Z" fill="white"/>
</g>
<g opacity="0.7">
<path opacity="0.7" d="M224.156 149.077L224.376 152.158L227.681 152.598H224.376L224.156 156.119L223.935 152.598H220.63L223.935 152.158L224.156 149.077Z" fill="white"/>
<path opacity="0.7" d="M225.478 151.057L224.377 152.378L225.478 153.918L224.156 152.598L222.614 153.918L223.936 152.378L222.614 151.057L224.156 152.158L225.478 151.057Z" fill="white"/>
</g>
<g opacity="0.7">
<path opacity="0.7" d="M114.213 21.2133L114.434 24.2943L117.739 24.7344H114.654L114.213 28.2556L113.993 24.7344H110.688L113.993 24.2943L114.213 21.2133Z" fill="white"/>
<path opacity="0.7" d="M115.756 23.1938L114.655 24.5143L115.756 26.0548L114.214 24.9544L112.672 26.0548L113.994 24.7344L112.672 23.1938L114.214 24.2942L115.756 23.1938Z" fill="white"/>
</g>
<g opacity="0.7">
<path opacity="0.7" d="M319.115 17.6919L319.335 20.7729L322.64 21.2131H319.335L319.115 24.7343L318.894 21.2131H315.589L318.894 20.7729L319.115 17.6919Z" fill="white"/>
<path opacity="0.7" d="M320.658 19.6724L319.336 20.9928L320.658 22.5333L319.115 21.433L317.573 22.5333L318.895 21.2129L317.573 19.6724L319.115 20.7727L320.658 19.6724Z" fill="white"/>
</g>
<g opacity="0.7">
<path opacity="0.7" d="M413.634 136.312L414.075 140.714L418.701 141.374H414.075L413.634 146.436L413.193 141.374H408.567L413.193 140.714L413.634 136.312Z" fill="white"/>
<path opacity="0.7" d="M415.616 138.953L414.074 141.154L415.616 143.355L413.634 141.594L411.43 143.355L413.413 141.154L411.43 139.173L413.634 140.714L415.616 138.953Z" fill="white"/>
</g>
<g opacity="0.7">
<path opacity="0.7" d="M445.581 21.2133L445.802 24.2943L449.107 24.7344H445.802L445.581 28.2556L445.361 24.7344H442.056L445.361 24.2943L445.581 21.2133Z" fill="white"/>
<path opacity="0.7" d="M446.904 23.1938L445.802 24.5143L446.904 26.0548L445.582 24.9544L444.04 26.0548L445.362 24.7344L444.04 23.1938L445.582 24.2942L446.904 23.1938Z" fill="white"/>
</g>
<g opacity="0.7">
<path opacity="0.7" d="M375.297 94.4983L375.518 97.7994L378.823 98.0195L375.518 98.2396L375.297 101.541L375.077 98.2396L371.772 98.0195L375.077 97.7994L375.297 94.4983Z" fill="white"/>
<path opacity="0.7" d="M376.62 96.4788L375.518 98.0193L376.62 99.5598L375.298 98.2394L373.756 99.5598L375.078 98.0193L373.756 96.6988L375.298 97.7992L376.62 96.4788Z" fill="white"/>
</g>
<g opacity="0.7">
<path opacity="0.7" d="M328.588 114.965L328.808 118.266L332.113 118.486L328.808 118.706L328.588 122.008L328.368 118.706L325.063 118.486L328.368 118.266L328.588 114.965Z" fill="white"/>
<path opacity="0.7" d="M329.911 116.946L328.809 118.486L329.911 120.027L328.589 118.706L327.046 120.027L328.368 118.486L327.046 117.166L328.589 118.266L329.911 116.946Z" fill="white"/>
</g>
<g opacity="0.7">
<path opacity="0.7" d="M348.639 27.8157L349.079 30.8967L352.164 31.3369H349.079L348.639 34.8581L348.418 31.3369H345.113L348.418 30.8967L348.639 27.8157Z" fill="white"/>
<path opacity="0.7" d="M350.182 29.7961L349.08 31.1166L350.182 32.6571L348.86 31.5567L347.097 32.6571L348.419 31.3367L347.097 29.7961L348.639 30.8965L350.182 29.7961Z" fill="white"/>
</g>
<path opacity="0.7" d="M422.83 270.906C422.83 270.466 423.05 270.246 423.491 270.246C423.931 270.246 424.152 270.466 424.152 270.906C424.152 271.347 423.931 271.567 423.491 271.567C423.27 271.567 422.83 271.347 422.83 270.906Z" fill="white"/>
<path opacity="0.7" d="M395.767 269.443C395.767 269.223 395.987 269.003 396.208 269.003C396.428 269.003 396.648 269.223 396.648 269.443C396.648 269.663 396.428 269.883 396.208 269.883C395.987 270.103 395.767 269.883 395.767 269.443Z" fill="white"/>
<path opacity="0.7" d="M451.128 236.929C451.128 236.709 451.348 236.489 451.569 236.489C451.789 236.489 452.009 236.709 452.009 236.929C452.009 237.149 451.789 237.369 451.569 237.369C451.348 237.369 451.128 237.149 451.128 236.929Z" fill="white"/>
<path opacity="0.7" d="M144.758 247.386C144.758 247.166 144.979 246.946 145.199 246.946C145.419 246.946 145.64 247.166 145.64 247.386C145.64 247.606 145.419 247.826 145.199 247.826C144.979 247.826 144.758 247.606 144.758 247.386Z" fill="white"/>
<path opacity="0.7" d="M388.645 295.288C388.645 295.068 388.866 294.848 389.086 294.848C389.306 294.848 389.527 295.068 389.527 295.288C389.527 295.508 389.306 295.728 389.086 295.728C388.866 295.728 388.645 295.508 388.645 295.288Z" fill="white"/>
<path opacity="0.7" d="M390.316 280.611C390.316 280.391 390.536 280.171 390.756 280.171C390.977 280.171 391.197 280.391 391.197 280.611C391.197 280.831 390.977 281.051 390.756 281.051C390.536 281.051 390.316 280.831 390.316 280.611Z" fill="white"/>
<path opacity="0.7" d="M366.181 356.245C366.181 355.805 366.401 355.585 366.842 355.585C367.282 355.585 367.503 355.805 367.503 356.245C367.503 356.685 367.282 356.905 366.842 356.905C366.401 356.905 366.181 356.465 366.181 356.245Z" fill="white"/>
<path opacity="0.7" d="M369.313 252.621C369.313 252.181 369.753 251.74 370.194 251.74C370.635 251.74 371.075 252.181 371.075 252.621C371.075 253.061 370.635 253.501 370.194 253.501C369.533 253.501 369.313 253.061 369.313 252.621Z" fill="white"/>
<path opacity="0.7" d="M402.348 364.808C402.348 364.368 402.788 363.928 403.229 363.928C403.669 363.928 404.11 364.368 404.11 364.808C404.11 365.248 403.669 365.688 403.229 365.688C402.788 365.688 402.348 365.468 402.348 364.808Z" fill="white"/>
<path opacity="0.7" d="M479.304 295.766C479.304 295.325 479.744 294.885 480.185 294.885C480.626 294.885 481.066 295.325 481.066 295.766C481.066 296.206 480.626 296.646 480.185 296.646C479.744 296.646 479.304 296.206 479.304 295.766Z" fill="white"/>
<path opacity="0.7" d="M495.557 227.214C495.557 226.774 495.998 226.334 496.438 226.334C496.879 226.334 497.32 226.774 497.32 227.214C497.32 227.654 496.879 228.094 496.438 228.094C495.777 228.094 495.557 227.654 495.557 227.214Z" fill="white"/>
<path opacity="0.7" d="M449.202 289.303C449.202 288.862 449.643 288.422 450.083 288.422C450.524 288.422 450.965 288.862 450.965 289.303C450.965 289.743 450.524 290.183 450.083 290.183C449.643 290.183 449.202 289.743 449.202 289.303Z" fill="white"/>
<path opacity="0.7" d="M471.733 231.214C471.733 230.774 471.953 230.554 472.394 230.554C472.835 230.554 473.055 230.774 473.055 231.214C473.055 231.654 472.835 231.874 472.394 231.874C471.953 231.874 471.733 231.654 471.733 231.214Z" fill="white"/>
<path opacity="0.7" d="M455.358 318.492C455.358 318.052 455.579 317.832 456.019 317.832C456.46 317.832 456.68 318.052 456.68 318.492C456.68 318.932 456.46 319.153 456.019 319.153C455.579 319.153 455.358 318.712 455.358 318.492Z" fill="white"/>
<path opacity="0.7" d="M219.24 323.228C219.24 323.008 219.461 322.788 219.681 322.788C219.901 322.788 220.122 323.008 220.122 323.228C220.122 323.448 219.901 323.668 219.681 323.668C219.461 323.668 219.24 323.668 219.24 323.228Z" fill="white"/>
<path opacity="0.7" d="M419.902 341.924C419.902 341.704 420.122 341.483 420.342 341.483C420.563 341.483 420.783 341.704 420.783 341.924C420.783 342.144 420.563 342.364 420.342 342.364C420.122 342.364 419.902 342.144 419.902 341.924Z" fill="white"/>
<path opacity="0.7" d="M401.956 314.514C401.956 314.294 402.176 314.074 402.397 314.074C402.617 314.074 402.837 314.294 402.837 314.514C402.837 314.734 402.617 314.954 402.397 314.954C402.176 314.954 401.956 314.734 401.956 314.514Z" fill="white"/>
<path opacity="0.7" d="M442.623 218.621C442.623 218.401 442.843 218.181 443.063 218.181C443.284 218.181 443.504 218.401 443.504 218.621C443.504 218.841 443.284 219.062 443.063 219.062C442.843 219.062 442.623 218.841 442.623 218.621Z" fill="white"/>
<path opacity="0.7" d="M430.364 360.801C430.364 360.361 430.805 359.92 431.246 359.92C431.686 359.92 432.127 360.361 432.127 360.801C432.127 361.241 431.686 361.681 431.246 361.681C430.805 361.681 430.364 361.241 430.364 360.801Z" fill="white"/>
<path opacity="0.7" d="M242.694 330.24C242.694 329.8 243.135 329.36 243.576 329.36C244.016 329.36 244.457 329.8 244.457 330.24C244.457 330.68 244.016 331.12 243.576 331.12C242.915 331.12 242.694 330.9 242.694 330.24Z" fill="white"/>
<path opacity="0.7" d="M494.225 239.693C494.225 239.253 494.446 239.033 494.886 239.033C495.327 239.033 495.547 239.253 495.547 239.693C495.547 240.134 495.327 240.354 494.886 240.354C494.446 240.354 494.225 240.134 494.225 239.693Z" fill="white"/>
<path opacity="0.7" d="M392.325 234.925C392.325 234.264 392.986 233.604 393.647 233.604C394.308 233.604 394.969 234.264 394.969 234.925C394.969 235.585 394.308 236.245 393.647 236.245C392.986 236.025 392.325 235.585 392.325 234.925Z" fill="white"/>
<path opacity="0.7" d="M430.492 259.625C430.492 259.405 430.713 259.185 430.933 259.185C431.153 259.185 431.374 259.405 431.374 259.625C431.374 259.845 431.153 260.065 430.933 260.065C430.713 260.285 430.492 260.065 430.492 259.625Z" fill="white"/>
<path opacity="0.7" d="M405.401 221.474C405.401 221.254 405.621 221.034 405.842 221.034C406.062 221.034 406.282 221.254 406.282 221.474C406.282 221.694 406.062 221.914 405.842 221.914C405.621 221.914 405.401 221.694 405.401 221.474Z" fill="white"/>
<path opacity="0.7" d="M190.199 259.961C190.199 259.741 190.419 259.521 190.64 259.521C190.86 259.521 191.08 259.741 191.08 259.961C191.08 260.181 190.86 260.401 190.64 260.401C190.419 260.401 190.199 260.181 190.199 259.961Z" fill="white"/>
<path opacity="0.7" d="M179.556 211.566C179.556 211.345 179.776 211.125 179.996 211.125C180.217 211.125 180.437 211.345 180.437 211.566C180.437 211.786 180.217 212.006 179.996 212.006C179.776 212.006 179.556 211.786 179.556 211.566Z" fill="white"/>
<path opacity="0.7" d="M245.845 217.985C245.845 217.765 246.066 217.545 246.286 217.545C246.506 217.545 246.727 217.765 246.727 217.985C246.727 218.206 246.506 218.426 246.286 218.426C246.066 218.426 245.845 218.206 245.845 217.985Z" fill="white"/>
<path opacity="0.7" d="M152.193 232.137C152.193 231.917 152.414 231.697 152.634 231.697C152.854 231.697 153.075 231.917 153.075 232.137C153.075 232.357 152.854 232.577 152.634 232.577C152.414 232.797 152.193 232.577 152.193 232.137Z" fill="white"/>
<path opacity="0.7" d="M190.016 230.443C190.016 230.002 190.457 229.562 190.898 229.562C191.338 229.562 191.779 230.002 191.779 230.443C191.779 230.883 191.338 231.323 190.898 231.323C190.457 231.323 190.016 230.883 190.016 230.443Z" fill="white"/>
<path opacity="0.7" d="M202.574 276.076C202.574 275.635 203.015 275.195 203.455 275.195C203.896 275.195 204.337 275.635 204.337 276.076C204.337 276.516 203.896 276.956 203.455 276.956C203.015 276.956 202.574 276.516 202.574 276.076Z" fill="white"/>
<path opacity="0.7" d="M191.475 207.356C191.475 207.136 191.695 206.916 191.916 206.916C192.136 206.916 192.356 207.136 192.356 207.356C192.356 207.576 192.136 207.796 191.916 207.796C191.695 207.796 191.475 207.576 191.475 207.356Z" fill="white"/>
<path opacity="0.7" d="M173.274 328.697C173.274 328.476 173.494 328.256 173.715 328.256C173.935 328.256 174.155 328.476 174.155 328.697C174.155 328.917 173.935 329.137 173.715 329.137C173.494 329.137 173.274 328.917 173.274 328.697Z" fill="white"/>
<path opacity="0.7" d="M177.47 299.83C177.47 299.61 177.691 299.39 177.911 299.39C178.131 299.39 178.352 299.61 178.352 299.83C178.352 300.05 178.131 300.27 177.911 300.27C177.691 300.27 177.47 300.05 177.47 299.83Z" fill="white"/>
<path opacity="0.7" d="M198.226 340.614C198.226 340.394 198.446 340.174 198.667 340.174C198.887 340.174 199.107 340.394 199.107 340.614C199.107 340.834 198.887 341.054 198.667 341.054C198.446 341.274 198.226 341.054 198.226 340.614Z" fill="white"/>
<path opacity="0.7" d="M183.735 347.574C183.735 347.134 184.175 346.693 184.616 346.693C185.056 346.693 185.497 347.134 185.497 347.574C185.497 348.014 185.056 348.454 184.616 348.454C184.175 348.454 183.735 348.014 183.735 347.574Z" fill="white"/>
<path opacity="0.7" d="M224.245 283.409C224.245 282.969 224.686 282.529 225.126 282.529C225.567 282.529 226.008 282.969 226.008 283.409C226.008 283.849 225.567 284.289 225.126 284.289C224.686 284.289 224.245 283.849 224.245 283.409Z" fill="white"/>
<path opacity="0.7" d="M237.524 249.716C237.524 249.496 237.745 249.276 237.965 249.276C238.185 249.276 238.406 249.496 238.406 249.716C238.406 249.937 238.185 250.157 237.965 250.157C237.745 250.157 237.524 249.937 237.524 249.716Z" fill="white"/>
<path opacity="0.7" d="M480.844 221.785C480.844 221.345 481.064 221.125 481.505 221.125C481.946 221.125 482.166 221.345 482.166 221.785C482.166 222.225 481.946 222.445 481.505 222.445C481.064 222.445 480.844 222.225 480.844 221.785Z" fill="white"/>
<path opacity="0.7" d="M304.707 264.166C304.707 263.506 305.368 262.846 306.029 262.846C306.69 262.846 307.351 263.506 307.351 264.166C307.351 264.826 306.69 265.487 306.029 265.487C305.368 265.266 304.707 264.826 304.707 264.166Z" fill="white"/>
<path opacity="0.7" d="M320.003 266.923C320.003 266.703 320.224 266.482 320.444 266.482C320.664 266.482 320.885 266.703 320.885 266.923C320.885 267.143 320.664 267.363 320.444 267.363C320.224 267.363 320.003 267.143 320.003 266.923Z" fill="white"/>
<path opacity="0.7" d="M344.256 320.676C344.256 320.456 344.477 320.236 344.697 320.236C344.917 320.236 345.138 320.456 345.138 320.676C345.138 320.896 344.917 321.116 344.697 321.116C344.477 321.337 344.256 321.116 344.256 320.676Z" fill="white"/>
<path opacity="0.7" d="M309.141 218.515C309.141 218.295 309.361 218.075 309.582 218.075C309.802 218.075 310.022 218.295 310.022 218.515C310.022 218.735 309.802 218.956 309.582 218.956C309.361 218.956 309.141 218.735 309.141 218.515Z" fill="white"/>
<path opacity="0.7" d="M334.084 230.652C334.084 230.432 334.304 230.212 334.524 230.212C334.745 230.212 334.965 230.432 334.965 230.652C334.965 230.872 334.745 231.092 334.524 231.092C334.304 231.092 334.084 230.872 334.084 230.652Z" fill="white"/>
<path opacity="0.7" d="M276.748 209.505C276.748 209.285 276.968 209.065 277.189 209.065C277.409 209.065 277.629 209.285 277.629 209.505C277.629 209.725 277.409 209.945 277.189 209.945C276.968 209.945 276.748 209.725 276.748 209.505Z" fill="white"/>
<path opacity="0.7" d="M345.397 241.838C345.397 241.618 345.617 241.398 345.837 241.398C346.058 241.398 346.278 241.618 346.278 241.838C346.278 242.058 346.058 242.278 345.837 242.278C345.617 242.498 345.397 242.278 345.397 241.838Z" fill="white"/>
<path opacity="0.7" d="M273.271 274.334C273.271 274.114 273.491 273.894 273.712 273.894C273.932 273.894 274.152 274.114 274.152 274.334C274.152 274.554 273.932 274.774 273.712 274.774C273.491 274.774 273.271 274.554 273.271 274.334Z" fill="white"/>
<path opacity="0.7" d="M322.148 288.636C322.148 288.416 322.369 288.196 322.589 288.196C322.809 288.196 323.03 288.416 323.03 288.636C323.03 288.856 322.809 289.076 322.589 289.076C322.369 289.076 322.148 288.856 322.148 288.636Z" fill="white"/>
<path opacity="0.7" d="M377.75 268.06C377.75 267.62 378.191 267.18 378.631 267.18C379.072 267.18 379.513 267.62 379.513 268.06C379.513 268.5 379.072 268.94 378.631 268.94C378.191 268.94 377.75 268.5 377.75 268.06Z" fill="white"/>
<path opacity="0.7" d="M368.094 279.443C368.094 279.003 368.534 278.563 368.975 278.563C369.416 278.563 369.856 279.003 369.856 279.443C369.856 279.883 369.416 280.323 368.975 280.323C368.534 280.323 368.094 279.883 368.094 279.443Z" fill="white"/>
<path opacity="0.7" d="M378.512 220.937C378.512 220.497 378.953 220.056 379.394 220.056C379.834 220.056 380.275 220.497 380.275 220.937C380.275 221.377 379.834 221.817 379.394 221.817C378.953 221.817 378.512 221.377 378.512 220.937Z" fill="white"/>
<path opacity="0.7" d="M332.379 283.037C332.379 282.597 332.82 282.157 333.26 282.157C333.701 282.157 334.142 282.597 334.142 283.037C334.142 283.477 333.701 283.918 333.26 283.918C332.82 283.918 332.379 283.477 332.379 283.037Z" fill="white"/>
<path opacity="0.7" d="M354.69 224.937C354.69 224.497 354.911 224.277 355.351 224.277C355.792 224.277 356.012 224.497 356.012 224.937C356.012 225.377 355.792 225.597 355.351 225.597C354.911 225.597 354.69 225.377 354.69 224.937Z" fill="white"/>
<path opacity="0.7" d="M289.312 246.811C289.312 246.151 289.973 245.491 290.633 245.491C291.294 245.491 291.955 246.151 291.955 246.811C291.955 247.471 291.294 248.132 290.633 248.132C289.752 248.132 289.312 247.691 289.312 246.811Z" fill="white"/>
<path opacity="0.7" d="M349.609 294.969C349.609 294.529 349.83 294.309 350.27 294.309C350.711 294.309 350.931 294.529 350.931 294.969C350.931 295.409 350.711 295.629 350.27 295.629C350.05 295.629 349.609 295.409 349.609 294.969Z" fill="white"/>
<path opacity="0.7" d="M357.9 366.588C357.9 366.368 358.121 366.148 358.341 366.148C358.561 366.148 358.782 366.368 358.782 366.588C358.782 366.808 358.561 367.028 358.341 367.028C358.121 367.248 357.9 367.028 357.9 366.588Z" fill="white"/>
<path opacity="0.7" d="M359.904 321.075C359.904 320.855 360.124 320.634 360.345 320.634C360.565 320.634 360.785 320.855 360.785 321.075C360.785 321.295 360.565 321.515 360.345 321.515C360.124 321.515 359.904 321.295 359.904 321.075Z" fill="white"/>
<path opacity="0.7" d="M302.859 335.646C302.859 335.426 303.079 335.206 303.3 335.206C303.52 335.206 303.74 335.426 303.74 335.646C303.74 335.866 303.52 336.087 303.3 336.087C303.079 336.087 302.859 335.866 302.859 335.646Z" fill="white"/>
<path opacity="0.7" d="M307.054 306.78C307.054 306.56 307.274 306.34 307.494 306.34C307.714 306.34 307.935 306.56 307.935 306.78C307.935 307 307.714 307.22 307.494 307.22C307.274 307.22 307.054 307 307.054 306.78Z" fill="white"/>
<path opacity="0.7" d="M327.811 347.564C327.811 347.344 328.032 347.124 328.252 347.124C328.472 347.124 328.693 347.344 328.693 347.564C328.693 347.784 328.472 348.004 328.252 348.004C328.032 348.224 327.811 348.004 327.811 347.564Z" fill="white"/>
<path opacity="0.7" d="M285.352 307.797C285.109 307.797 284.911 307.994 284.911 308.237C284.911 308.48 285.109 308.677 285.352 308.677C285.595 308.677 285.793 308.48 285.793 308.237C285.793 307.994 285.595 307.797 285.352 307.797Z" fill="white"/>
<path opacity="0.7" d="M338.896 358.957C338.896 358.737 339.116 358.517 339.337 358.517C339.557 358.517 339.777 358.737 339.777 358.957C339.777 359.177 339.557 359.397 339.337 359.397C339.116 359.397 338.896 359.177 338.896 358.957Z" fill="white"/>
<path opacity="0.7" d="M485.809 371.953C485.809 371.292 486.47 370.632 487.131 370.632C487.792 370.632 488.453 371.292 488.453 371.953C488.453 372.613 487.792 373.273 487.131 373.273C486.25 373.273 485.809 372.613 485.809 371.953Z" fill="white"/>
<path opacity="0.7" d="M313.539 354.535C313.539 354.095 313.98 353.655 314.421 353.655C314.861 353.655 315.302 354.095 315.302 354.535C315.302 354.975 314.861 355.416 314.421 355.416C313.98 355.416 313.539 354.975 313.539 354.535Z" fill="white"/>
<path opacity="0.7" d="M323.507 308.568C323.507 308.128 323.948 307.688 324.388 307.688C324.829 307.688 325.27 308.128 325.27 308.568C325.27 309.008 324.829 309.448 324.388 309.448C323.727 309.448 323.507 309.008 323.507 308.568Z" fill="white"/>
<path opacity="0.7" d="M337.623 321.006C337.623 320.565 338.064 320.125 338.505 320.125C338.945 320.125 339.386 320.565 339.386 321.006C339.386 321.446 338.945 321.886 338.505 321.886C337.844 321.886 337.623 321.666 337.623 321.006Z" fill="white"/>
<path opacity="0.7" d="M372.242 337.849C372.242 337.408 372.683 336.968 373.123 336.968C373.564 336.968 374.005 337.408 374.005 337.849C374.005 338.289 373.564 338.729 373.123 338.729C372.683 338.729 372.242 338.509 372.242 337.849Z" fill="white"/>
<path opacity="0.7" d="M348.408 342.069C348.408 341.628 348.629 341.408 349.069 341.408C349.51 341.408 349.73 341.628 349.73 342.069C349.73 342.509 349.51 342.729 349.069 342.729C348.629 342.729 348.408 342.289 348.408 342.069Z" fill="white"/>
<path opacity="0.7" d="M361.314 311.244C361.314 310.804 361.534 310.584 361.974 310.584C362.415 310.584 362.635 310.804 362.635 311.244C362.635 311.685 362.415 311.905 361.974 311.905C361.754 311.905 361.314 311.685 361.314 311.244Z" fill="white"/>
<path opacity="0.7" d="M321.13 324.076C321.13 323.636 321.35 323.416 321.791 323.416C322.232 323.416 322.452 323.636 322.452 324.076C322.452 324.516 322.232 324.736 321.791 324.736C321.571 324.736 321.13 324.516 321.13 324.076Z" fill="white"/>
<path opacity="0.7" d="M376.12 314.939C376.12 314.279 376.781 313.619 377.442 313.619C378.103 313.619 378.764 314.279 378.764 314.939C378.764 315.6 378.103 316.26 377.442 316.26C376.561 316.26 376.12 315.6 376.12 314.939Z" fill="white"/>
<path opacity="0.7" d="M315.47 236.266C315.47 236.046 315.69 235.826 315.91 235.826C316.131 235.826 316.351 236.046 316.351 236.266C316.351 236.486 316.131 236.706 315.91 236.706C315.69 236.706 315.47 236.486 315.47 236.266Z" fill="white"/>
<path opacity="0.7" d="M364.021 215.52C364.021 215.08 364.241 214.859 364.682 214.859C365.122 214.859 365.343 215.08 365.343 215.52C365.343 215.96 365.122 216.18 364.682 216.18C364.241 216.18 364.021 215.96 364.021 215.52Z" fill="white"/>
<path opacity="0.7" d="M290.299 343.568C290.299 343.348 290.519 343.128 290.74 343.128C290.96 343.128 291.18 343.348 291.18 343.568C291.18 343.788 290.96 344.008 290.74 344.008C290.519 344.008 290.299 343.788 290.299 343.568Z" fill="white"/>
<path opacity="0.7" d="M298.488 289.618C298.488 288.958 299.149 288.298 299.81 288.298C300.471 288.298 301.131 288.958 301.131 289.618C301.131 290.278 300.471 290.939 299.81 290.939C299.149 290.939 298.488 290.278 298.488 289.618Z" fill="white"/>
<path opacity="0.7" d="M285.084 309.152C285.084 308.712 285.524 308.271 285.965 308.271C286.406 308.271 286.846 308.712 286.846 309.152C286.846 309.592 286.406 310.032 285.965 310.032C285.304 310.032 285.084 309.592 285.084 309.152Z" fill="white"/>
<path opacity="0.7" d="M268.077 342.4C268.077 341.96 268.518 341.52 268.958 341.52C269.399 341.52 269.84 341.96 269.84 342.4C269.84 342.84 269.399 343.281 268.958 343.281C268.297 343.281 268.077 342.84 268.077 342.4Z" fill="white"/>
<path opacity="0.7" d="M278.508 283.675C278.508 283.234 278.948 282.794 279.389 282.794C279.83 282.794 280.27 283.234 280.27 283.675C280.27 284.115 279.83 284.555 279.389 284.555C278.948 284.555 278.508 284.115 278.508 283.675Z" fill="white"/>
<path opacity="0.7" d="M263.783 278.465C263.783 278.025 264.003 277.805 264.444 277.805C264.885 277.805 265.105 278.025 265.105 278.465C265.105 278.905 264.885 279.125 264.444 279.125C264.224 279.125 263.783 278.685 263.783 278.465Z" fill="white"/>
<path opacity="0.7" d="M198.397 300.464C198.397 300.685 198.177 300.905 197.957 300.905C197.736 300.905 197.516 300.685 197.516 300.464C197.516 300.244 197.736 300.024 197.957 300.024C198.177 299.804 198.397 300.024 198.397 300.464Z" fill="white"/>
<path opacity="0.7" d="M209.038 348.86C209.038 349.08 208.817 349.3 208.597 349.3C208.377 349.3 208.156 349.08 208.156 348.86C208.156 348.64 208.377 348.42 208.597 348.42C208.817 348.42 209.038 348.42 209.038 348.86Z" fill="white"/>
<path opacity="0.7" d="M245.139 292.833C245.139 293.053 244.918 293.273 244.698 293.273C244.478 293.273 244.257 293.053 244.257 292.833C244.257 292.613 244.478 292.393 244.698 292.393C244.918 292.393 245.139 292.613 245.139 292.833Z" fill="white"/>
<path opacity="0.7" d="M236.729 346.772C236.729 347.432 236.068 348.092 235.407 348.092C234.746 348.092 234.085 347.432 234.085 346.772C234.085 346.111 234.746 345.451 235.407 345.451C236.068 345.451 236.729 346.111 236.729 346.772Z" fill="white"/>
<path opacity="0.7" d="M198.588 329.763C198.588 330.203 198.147 330.643 197.706 330.643C197.266 330.643 196.825 330.203 196.825 329.763C196.825 329.323 197.266 328.883 197.706 328.883C198.147 328.883 198.588 329.323 198.588 329.763Z" fill="white"/>
<path opacity="0.7" d="M211.135 260.376C211.135 260.596 210.915 260.816 210.695 260.816C210.474 260.816 210.254 260.596 210.254 260.376C210.254 260.155 210.474 259.935 210.695 259.935C210.915 259.935 211.135 260.155 211.135 260.376Z" fill="white"/>
<path opacity="0.7" d="M204.858 212.852C204.858 213.292 204.417 213.732 203.976 213.732C203.536 213.732 203.095 213.292 203.095 212.852C203.095 212.411 203.536 211.971 203.976 211.971C204.417 211.971 204.858 212.191 204.858 212.852Z" fill="white"/>
<path opacity="0.7" d="M401.753 347.074C401.753 347.294 401.532 347.514 401.312 347.514C401.092 347.514 400.871 347.294 400.871 347.074C400.871 346.854 401.092 346.634 401.312 346.634C401.532 346.634 401.753 346.854 401.753 347.074Z" fill="white"/>
<path opacity="0.7" d="M236.936 322.343C236.936 322.783 236.495 323.223 236.055 323.223C235.614 323.223 235.174 322.783 235.174 322.343C235.174 321.903 235.614 321.463 236.055 321.463C236.495 321.463 236.936 321.903 236.936 322.343Z" fill="white"/>
<path opacity="0.7" d="M256.71 352.716C256.71 353.156 256.269 353.596 255.829 353.596C255.388 353.596 254.947 353.156 254.947 352.716C254.947 352.275 255.388 351.835 255.829 351.835C256.269 351.835 256.71 352.275 256.71 352.716Z" fill="white"/>
<path opacity="0.7" d="M262.992 235.584C262.992 236.024 262.551 236.464 262.11 236.464C261.67 236.464 261.229 236.024 261.229 235.584C261.229 235.144 261.67 234.704 262.11 234.704C262.771 234.704 262.992 235.144 262.992 235.584Z" fill="white"/>
<path opacity="0.7" d="M259.114 258.493C259.114 259.154 258.453 259.814 257.792 259.814C257.131 259.814 256.47 259.154 256.47 258.493C256.47 257.833 257.131 257.173 257.792 257.173C258.674 257.393 259.114 257.833 259.114 258.493Z" fill="white"/>
<path opacity="0.7" d="M95.0184 253.325C95.0184 252.885 95.2387 252.665 95.6793 252.665C96.12 252.665 96.3403 252.885 96.3403 253.325C96.3403 253.766 96.12 253.986 95.6793 253.986C95.459 253.986 95.0184 253.766 95.0184 253.325Z" fill="white"/>
<path opacity="0.7" d="M109.015 255.607C109.015 255.387 109.235 255.167 109.456 255.167C109.676 255.167 109.896 255.387 109.896 255.607C109.896 255.827 109.676 256.047 109.456 256.047C109.235 256.047 109.015 255.827 109.015 255.607Z" fill="white"/>
<path opacity="0.7" d="M67.9552 251.862C67.9552 251.642 68.1755 251.422 68.3958 251.422C68.6162 251.422 68.8365 251.642 68.8365 251.862C68.8365 252.082 68.6162 252.302 68.3958 252.302C68.1755 252.522 67.9552 252.302 67.9552 251.862Z" fill="white"/>
<path opacity="0.7" d="M98.3723 207.212C98.3723 206.992 98.5926 206.771 98.8129 206.771C99.0333 206.771 99.2536 206.992 99.2536 207.212C99.2536 207.432 99.0333 207.652 98.8129 207.652C98.5926 207.652 98.3723 207.432 98.3723 207.212Z" fill="white"/>
<path opacity="0.7" d="M438.362 339.167C438.362 338.947 438.582 338.727 438.802 338.727C439.023 338.727 439.243 338.947 439.243 339.167C439.243 339.387 439.023 339.607 438.802 339.607C438.582 339.827 438.362 339.607 438.362 339.167Z" fill="white"/>
<path opacity="0.7" d="M14.74 232.038C14.74 231.818 14.9604 231.598 15.1807 231.598C15.401 231.598 15.6213 231.818 15.6213 232.038C15.6213 232.258 15.401 232.478 15.1807 232.478C14.9604 232.698 14.74 232.478 14.74 232.038Z" fill="white"/>
<path opacity="0.7" d="M62.5044 263.03C62.5044 262.81 62.7247 262.59 62.945 262.59C63.1653 262.59 63.3856 262.81 63.3856 263.03C63.3856 263.25 63.1653 263.47 62.945 263.47C62.7247 263.47 62.5044 263.25 62.5044 263.03Z" fill="white"/>
<path opacity="0.7" d="M111.16 277.321C111.16 277.1 111.381 276.88 111.601 276.88C111.821 276.88 112.042 277.1 112.042 277.321C112.042 277.541 111.821 277.761 111.601 277.761C111.381 277.761 111.16 277.541 111.16 277.321Z" fill="white"/>
<path opacity="0.7" d="M120.88 248.321C120.88 247.881 121.101 247.661 121.541 247.661C121.982 247.661 122.202 247.881 122.202 248.321C122.202 248.761 121.982 248.981 121.541 248.981C121.321 248.981 120.88 248.761 120.88 248.321Z" fill="white"/>
<path opacity="0.7" d="M496.528 353.133C496.528 352.473 497.189 351.813 497.85 351.813C498.51 351.813 499.171 352.473 499.171 353.133C499.171 353.793 498.51 354.453 497.85 354.453C496.968 354.233 496.528 353.793 496.528 353.133Z" fill="white"/>
<path opacity="0.7" d="M157.106 268.127C157.106 267.687 157.546 267.247 157.987 267.247C158.428 267.247 158.868 267.687 158.868 268.127C158.868 268.567 158.428 269.008 157.987 269.008C157.546 269.008 157.106 268.567 157.106 268.127Z" fill="white"/>
<path opacity="0.7" d="M121.391 271.722C121.391 271.281 121.831 270.841 122.272 270.841C122.713 270.841 123.153 271.281 123.153 271.722C123.153 272.162 122.713 272.602 122.272 272.602C121.831 272.602 121.391 272.162 121.391 271.722Z" fill="white"/>
<path opacity="0.7" d="M147.134 355.284C147.134 355.064 147.354 354.844 147.574 354.844C147.795 354.844 148.015 355.064 148.015 355.284C148.015 355.505 147.795 355.725 147.574 355.725C147.354 355.945 147.134 355.725 147.134 355.284Z" fill="white"/>
<path opacity="0.7" d="M56.6837 330.378C56.6837 330.158 56.904 329.938 57.1244 329.938C57.3447 329.938 57.565 330.158 57.565 330.378C57.565 330.598 57.3447 330.818 57.1244 330.818C56.904 331.038 56.6837 330.818 56.6837 330.378Z" fill="white"/>
<path opacity="0.7" d="M92.0904 324.343C92.0904 324.123 92.3107 323.902 92.531 323.902C92.7514 323.902 92.9717 324.123 92.9717 324.343C92.9717 324.563 92.7514 324.783 92.531 324.783C92.3107 324.783 92.0904 324.563 92.0904 324.343Z" fill="white"/>
<path opacity="0.7" d="M96.2864 295.476C96.2864 295.256 96.5067 295.036 96.7271 295.036C96.9474 295.036 97.1677 295.256 97.1677 295.476C97.1677 295.696 96.9474 295.916 96.7271 295.916C96.5067 295.916 96.2864 295.696 96.2864 295.476Z" fill="white"/>
<path opacity="0.7" d="M117.044 336.26C117.044 336.04 117.264 335.82 117.485 335.82C117.705 335.82 117.925 336.04 117.925 336.26C117.925 336.48 117.705 336.7 117.485 336.7C117.264 336.92 117.044 336.7 117.044 336.26Z" fill="white"/>
<path opacity="0.7" d="M74.1445 296.933C74.1445 296.713 74.3648 296.493 74.5851 296.493C74.8054 296.493 75.0258 296.713 75.0258 296.933C75.0258 297.153 74.8054 297.373 74.5851 297.373C74.3648 297.373 74.1445 297.153 74.1445 296.933Z" fill="white"/>
<path opacity="0.7" d="M128.129 347.654C128.129 347.434 128.35 347.213 128.57 347.213C128.79 347.213 129.011 347.434 129.011 347.654C129.011 347.874 128.79 348.094 128.57 348.094C128.35 348.094 128.129 347.874 128.129 347.654Z" fill="white"/>
<path opacity="0.7" d="M102.553 343.22C102.553 342.78 102.994 342.34 103.434 342.34C103.875 342.34 104.316 342.78 104.316 343.22C104.316 343.66 103.875 344.1 103.434 344.1C102.994 344.1 102.553 343.66 102.553 343.22Z" fill="white"/>
<path opacity="0.7" d="M112.519 297.252C112.519 296.812 112.959 296.372 113.4 296.372C113.841 296.372 114.281 296.812 114.281 297.252C114.281 297.692 113.841 298.133 113.4 298.133C112.959 298.133 112.519 297.692 112.519 297.252Z" fill="white"/>
<path opacity="0.7" d="M126.635 309.69C126.635 309.25 127.076 308.81 127.516 308.81C127.957 308.81 128.398 309.25 128.398 309.69C128.398 310.13 127.957 310.57 127.516 310.57C127.076 310.57 126.635 310.35 126.635 309.69Z" fill="white"/>
<path opacity="0.7" d="M161.256 326.533C161.256 326.093 161.697 325.653 162.137 325.653C162.578 325.653 163.018 326.093 163.018 326.533C163.018 326.973 162.578 327.413 162.137 327.413C161.697 327.413 161.256 327.193 161.256 326.533Z" fill="white"/>
<path opacity="0.7" d="M137.639 330.765C137.639 330.325 137.86 330.104 138.3 330.104C138.741 330.104 138.961 330.325 138.961 330.765C138.961 331.205 138.741 331.425 138.3 331.425C137.86 331.425 137.639 330.985 137.639 330.765Z" fill="white"/>
<path opacity="0.7" d="M102.681 242.044C102.681 241.824 102.901 241.604 103.122 241.604C103.342 241.604 103.562 241.824 103.562 242.044C103.562 242.264 103.342 242.484 103.122 242.484C102.901 242.704 102.681 242.484 102.681 242.044Z" fill="white"/>
<path opacity="0.7" d="M233.787 233.01C233.787 232.57 234.228 232.13 234.669 232.13C235.109 232.13 235.55 232.57 235.55 233.01C235.55 233.45 235.109 233.891 234.669 233.891C234.228 233.891 233.787 233.67 233.787 233.01Z" fill="white"/>
<path opacity="0.7" d="M63.4629 204.017C63.4629 203.797 63.6833 203.577 63.9036 203.577C64.1239 203.577 64.3442 203.797 64.3442 204.017C64.3442 204.237 64.1239 204.457 63.9036 204.457C63.6833 204.457 63.4629 204.237 63.4629 204.017Z" fill="white"/>
<path opacity="0.7" d="M153.033 204.204C153.033 203.764 153.253 203.544 153.694 203.544C154.134 203.544 154.355 203.764 154.355 204.204C154.355 204.644 154.134 204.864 153.694 204.864C153.253 204.864 153.033 204.644 153.033 204.204Z" fill="white"/>
<path opacity="0.7" d="M16.4451 303.095C16.4451 302.875 16.6654 302.655 16.8858 302.655C17.1061 302.655 17.3264 302.875 17.3264 303.095C17.3264 303.315 17.1061 303.536 16.8858 303.536C16.6654 303.756 16.4451 303.536 16.4451 303.095Z" fill="white"/>
<path opacity="0.7" d="M6.27249 213.071C6.27249 212.851 6.4928 212.631 6.71312 212.631C6.93344 212.631 7.15375 212.851 7.15375 213.071C7.15375 213.291 6.93344 213.511 6.71312 213.511C6.4928 213.511 6.27249 213.291 6.27249 213.071Z" fill="white"/>
<path opacity="0.7" d="M49.9387 250.479C49.9387 250.039 50.3793 249.599 50.8199 249.599C51.2606 249.599 51.7012 250.039 51.7012 250.479C51.7012 250.919 51.2606 251.359 50.8199 251.359C50.3793 251.359 49.9387 250.919 49.9387 250.479Z" fill="white"/>
<path opacity="0.7" d="M40.2826 261.862C40.2826 261.422 40.7232 260.982 41.1639 260.982C41.6045 260.982 42.0452 261.422 42.0452 261.862C42.0452 262.302 41.6045 262.742 41.1639 262.742C40.5029 262.742 40.2826 262.302 40.2826 261.862Z" fill="white"/>
<path opacity="0.7" d="M50.701 203.356C50.701 202.916 51.1416 202.476 51.5822 202.476C52.0229 202.476 52.4636 202.916 52.4636 203.356C52.4636 203.796 52.0229 204.236 51.5822 204.236C51.1416 204.236 50.701 203.796 50.701 203.356Z" fill="white"/>
<path opacity="0.7" d="M4.56726 265.456C4.56726 265.016 5.00788 264.576 5.44852 264.576C5.88915 264.576 6.32977 265.016 6.32977 265.456C6.32977 265.896 5.88915 266.337 5.44852 266.337C4.78757 266.337 4.56726 265.896 4.56726 265.456Z" fill="white"/>
<path opacity="0.7" d="M26.8787 207.356C26.8787 206.916 27.099 206.696 27.5396 206.696C27.9803 206.696 28.2006 206.916 28.2006 207.356C28.2006 207.796 27.9803 208.016 27.5396 208.016C27.099 208.016 26.8787 207.796 26.8787 207.356Z" fill="white"/>
<path opacity="0.7" d="M21.798 277.388C21.798 276.948 22.0183 276.728 22.459 276.728C22.8996 276.728 23.1199 276.948 23.1199 277.388C23.1199 277.828 22.8996 278.048 22.459 278.048C22.0183 278.048 21.798 277.828 21.798 277.388Z" fill="white"/>
<path opacity="0.7" d="M30.089 349.007C30.089 348.787 30.3093 348.567 30.5297 348.567C30.75 348.567 30.9703 348.787 30.9703 349.007C30.9703 349.227 30.75 349.447 30.5297 349.447C30.3093 349.667 30.089 349.447 30.089 349.007Z" fill="white"/>
<path opacity="0.7" d="M3.08993e-05 329.983C3.08993e-05 329.763 0.220341 329.543 0.440659 329.543C0.660976 329.543 0.881287 329.763 0.881287 329.983C0.881287 330.203 0.660976 330.423 0.440659 330.423C0.220341 330.643 3.08993e-05 330.423 3.08993e-05 329.983Z" fill="white"/>
<path opacity="0.7" d="M11.0846 341.376C11.0846 341.156 11.305 340.936 11.5253 340.936C11.7456 340.936 11.9659 341.156 11.9659 341.376C11.9659 341.596 11.7456 341.817 11.5253 341.817C11.305 341.817 11.0846 341.596 11.0846 341.376Z" fill="white"/>
<path opacity="0.7" d="M288.564 227.817C288.564 227.157 289.225 226.497 289.886 226.497C290.547 226.497 291.208 227.157 291.208 227.817C291.208 228.477 290.547 229.138 289.886 229.138C289.004 228.918 288.564 228.477 288.564 227.817Z" fill="white"/>
<g opacity="0.7">
<path opacity="0.7" d="M258.707 324.653L258.487 320.031L253.64 319.591L258.267 319.371L258.707 314.529L259.148 319.371L263.775 319.591L259.148 320.031L258.707 324.653Z" fill="white"/>
<path opacity="0.7" d="M256.725 321.792L258.267 319.811L256.725 317.61L258.708 319.371L260.911 317.39L259.148 319.591L260.911 321.792L258.708 320.031L256.725 321.792Z" fill="white"/>
</g>
<g opacity="0.7">
<path opacity="0.7" d="M308.142 336.781L307.702 332.159L303.075 331.719L307.702 331.499L308.142 326.657L308.583 331.499L313.21 331.719L308.583 332.159L308.142 336.781Z" fill="white"/>
<path opacity="0.7" d="M306.16 333.92L307.702 331.719L306.16 329.738L308.143 331.279L310.346 329.518L308.363 331.719L310.346 333.7L308.143 332.159L306.16 333.92Z" fill="white"/>
</g>
<g opacity="0.7">
<path opacity="0.7" d="M282.664 213.76L282.444 210.679L279.139 210.239H282.444L282.664 206.718L282.885 210.239H286.19L282.885 210.679L282.664 213.76Z" fill="white"/>
<path opacity="0.7" d="M281.342 211.78L282.443 210.46L281.342 208.919L282.664 210.239L284.206 208.919L282.884 210.46L284.206 211.78L282.664 210.68L281.342 211.78Z" fill="white"/>
</g>
<g opacity="0.7">
<path opacity="0.7" d="M385.601 347.328L385.381 344.247L382.076 343.807H385.161L385.601 340.286L385.822 343.807H389.126L385.822 344.247L385.601 347.328Z" fill="white"/>
<path opacity="0.7" d="M384.058 345.348L385.16 344.028L384.058 342.487L385.601 343.587L387.143 342.487L385.821 343.808L387.143 345.348L385.601 344.248L384.058 345.348Z" fill="white"/>
</g>
<g opacity="0.7">
<path opacity="0.7" d="M180.805 339.871L180.585 336.79L177.28 336.35H180.585L180.805 332.829L181.026 336.35H184.331L181.026 336.79L180.805 339.871Z" fill="white"/>
<path opacity="0.7" d="M179.263 337.891L180.584 336.571L179.263 335.03L180.805 336.13L182.347 335.03L181.025 336.35L182.347 337.891L180.805 336.791L179.263 337.891Z" fill="white"/>
</g>
<g opacity="0.7">
<path opacity="0.7" d="M92.8569 216.362L92.4163 211.96L87.7895 211.3H92.4163L92.8569 206.238L93.2976 211.3H97.9244L93.2976 211.96L92.8569 216.362Z" fill="white"/>
<path opacity="0.7" d="M90.8745 213.721L92.4168 211.52L90.8745 209.319L92.8574 211.08L95.0606 209.319L93.0777 211.52L95.0606 213.501L92.8574 211.96L90.8745 213.721Z" fill="white"/>
</g>
<g opacity="0.7">
<path opacity="0.7" d="M54.7087 329.582L54.4884 326.501L51.1835 326.061H54.4884L54.7087 322.54L54.929 326.061H58.2339L54.929 326.501L54.7087 329.582Z" fill="white"/>
<path opacity="0.7" d="M53.386 327.602L54.4877 326.281L53.386 324.741L54.708 325.841L56.2502 324.741L54.9283 326.061L56.2502 327.602L54.708 326.501L53.386 327.602Z" fill="white"/>
</g>
<g opacity="0.7">
<path opacity="0.7" d="M128.817 260.167L128.596 256.865L125.292 256.645L128.596 256.425L128.817 253.124L129.037 256.425L132.342 256.645L129.037 256.865L128.817 260.167Z" fill="white"/>
<path opacity="0.7" d="M127.494 258.186L128.596 256.645L127.494 255.105L128.816 256.425L130.358 255.105L129.036 256.645L130.358 257.966L128.816 256.866L127.494 258.186Z" fill="white"/>
</g>
<g opacity="0.7">
<path opacity="0.7" d="M176.555 242.23L176.335 238.929L173.03 238.709L176.335 238.489L176.555 235.188L176.775 238.489L180.08 238.709L176.775 238.929L176.555 242.23Z" fill="white"/>
<path opacity="0.7" d="M175.232 240.25L176.334 238.709L175.232 237.169L176.554 238.489L178.097 237.169L176.775 238.709L178.097 240.03L176.554 238.929L175.232 240.25Z" fill="white"/>
</g>
<path opacity="0.7" d="M422.83 186.77C422.83 186.33 423.05 186.11 423.491 186.11C423.931 186.11 424.152 186.33 424.152 186.77C424.152 187.21 423.931 187.43 423.491 187.43C423.27 187.43 422.83 187.21 422.83 186.77Z" fill="white"/>
<path opacity="0.7" d="M395.767 185.307C395.767 185.087 395.987 184.867 396.208 184.867C396.428 184.867 396.648 185.087 396.648 185.307C396.648 185.527 396.428 185.747 396.208 185.747C395.987 185.967 395.767 185.747 395.767 185.307Z" fill="white"/>
<path opacity="0.7" d="M144.758 163.25C144.758 163.03 144.979 162.81 145.199 162.81C145.419 162.81 145.64 163.03 145.64 163.25C145.64 163.47 145.419 163.69 145.199 163.69C144.979 163.69 144.758 163.47 144.758 163.25Z" fill="white"/>
<path opacity="0.7" d="M390.316 196.475C390.316 196.255 390.536 196.035 390.756 196.035C390.977 196.035 391.197 196.255 391.197 196.475C391.197 196.695 390.977 196.915 390.756 196.915C390.536 196.915 390.316 196.695 390.316 196.475Z" fill="white"/>
<path opacity="0.7" d="M369.313 168.485C369.313 168.044 369.753 167.604 370.194 167.604C370.635 167.604 371.075 168.044 371.075 168.485C371.075 168.925 370.635 169.365 370.194 169.365C369.533 169.365 369.313 168.925 369.313 168.485Z" fill="white"/>
<path opacity="0.7" d="M449.202 205.167C449.202 204.726 449.643 204.286 450.083 204.286C450.524 204.286 450.965 204.726 450.965 205.167C450.965 205.607 450.524 206.047 450.083 206.047C449.643 206.047 449.202 205.607 449.202 205.167Z" fill="white"/>
<path opacity="0.7" d="M430.492 175.489C430.492 175.269 430.713 175.049 430.933 175.049C431.153 175.049 431.374 175.269 431.374 175.489C431.374 175.709 431.153 175.929 430.933 175.929C430.713 176.149 430.492 175.929 430.492 175.489Z" fill="white"/>
<path opacity="0.7" d="M190.199 175.825C190.199 175.605 190.419 175.385 190.64 175.385C190.86 175.385 191.08 175.605 191.08 175.825C191.08 176.045 190.86 176.265 190.64 176.265C190.419 176.265 190.199 176.045 190.199 175.825Z" fill="white"/>
<path opacity="0.7" d="M202.574 191.94C202.574 191.499 203.015 191.059 203.455 191.059C203.896 191.059 204.337 191.499 204.337 191.94C204.337 192.38 203.896 192.82 203.455 192.82C203.015 192.82 202.574 192.38 202.574 191.94Z" fill="white"/>
<path opacity="0.7" d="M224.245 199.273C224.245 198.833 224.686 198.393 225.126 198.393C225.567 198.393 226.008 198.833 226.008 199.273C226.008 199.713 225.567 200.153 225.126 200.153C224.686 200.153 224.245 199.713 224.245 199.273Z" fill="white"/>
<path opacity="0.7" d="M237.524 165.58C237.524 165.36 237.745 165.14 237.965 165.14C238.185 165.14 238.406 165.36 238.406 165.58C238.406 165.8 238.185 166.021 237.965 166.021C237.745 166.021 237.524 165.8 237.524 165.58Z" fill="white"/>
<path opacity="0.7" d="M304.707 180.03C304.707 179.37 305.368 178.71 306.029 178.71C306.69 178.71 307.351 179.37 307.351 180.03C307.351 180.69 306.69 181.35 306.029 181.35C305.368 181.13 304.707 180.69 304.707 180.03Z" fill="white"/>
<path opacity="0.7" d="M320.003 182.787C320.003 182.566 320.224 182.346 320.444 182.346C320.664 182.346 320.885 182.566 320.885 182.787C320.885 183.007 320.664 183.227 320.444 183.227C320.224 183.227 320.003 183.007 320.003 182.787Z" fill="white"/>
<path opacity="0.7" d="M345.397 157.702C345.397 157.482 345.617 157.262 345.837 157.262C346.058 157.262 346.278 157.482 346.278 157.702C346.278 157.922 346.058 158.142 345.837 158.142C345.617 158.362 345.397 158.142 345.397 157.702Z" fill="white"/>
<path opacity="0.7" d="M273.271 190.198C273.271 189.978 273.491 189.758 273.712 189.758C273.932 189.758 274.152 189.978 274.152 190.198C274.152 190.418 273.932 190.638 273.712 190.638C273.491 190.638 273.271 190.418 273.271 190.198Z" fill="white"/>
<path opacity="0.7" d="M322.148 204.5C322.148 204.28 322.369 204.06 322.589 204.06C322.809 204.06 323.03 204.28 323.03 204.5C323.03 204.72 322.809 204.94 322.589 204.94C322.369 204.94 322.148 204.72 322.148 204.5Z" fill="white"/>
<path opacity="0.7" d="M377.75 183.924C377.75 183.484 378.191 183.044 378.631 183.044C379.072 183.044 379.513 183.484 379.513 183.924C379.513 184.364 379.072 184.804 378.631 184.804C378.191 184.804 377.75 184.364 377.75 183.924Z" fill="white"/>
<path opacity="0.7" d="M368.094 195.307C368.094 194.867 368.534 194.427 368.975 194.427C369.416 194.427 369.856 194.867 369.856 195.307C369.856 195.747 369.416 196.187 368.975 196.187C368.534 196.187 368.094 195.747 368.094 195.307Z" fill="white"/>
<path opacity="0.7" d="M332.379 198.901C332.379 198.461 332.82 198.021 333.26 198.021C333.701 198.021 334.142 198.461 334.142 198.901C334.142 199.341 333.701 199.781 333.26 199.781C332.82 199.781 332.379 199.341 332.379 198.901Z" fill="white"/>
<path opacity="0.7" d="M289.312 162.675C289.312 162.015 289.973 161.355 290.633 161.355C291.294 161.355 291.955 162.015 291.955 162.675C291.955 163.335 291.294 163.995 290.633 163.995C289.752 163.995 289.312 163.555 289.312 162.675Z" fill="white"/>
<path opacity="0.7" d="M298.488 205.482C298.488 204.822 299.149 204.162 299.81 204.162C300.471 204.162 301.131 204.822 301.131 205.482C301.131 206.142 300.471 206.802 299.81 206.802C299.149 206.802 298.488 206.142 298.488 205.482Z" fill="white"/>
<path opacity="0.7" d="M278.508 199.538C278.508 199.098 278.948 198.658 279.389 198.658C279.83 198.658 280.27 199.098 280.27 199.538C280.27 199.979 279.83 200.419 279.389 200.419C278.948 200.419 278.508 199.979 278.508 199.538Z" fill="white"/>
<path opacity="0.7" d="M263.783 194.329C263.783 193.889 264.003 193.669 264.444 193.669C264.885 193.669 265.105 193.889 265.105 194.329C265.105 194.769 264.885 194.989 264.444 194.989C264.224 194.989 263.783 194.549 263.783 194.329Z" fill="white"/>
<path opacity="0.7" d="M245.139 208.697C245.139 208.917 244.918 209.137 244.698 209.137C244.478 209.137 244.257 208.917 244.257 208.697C244.257 208.477 244.478 208.257 244.698 208.257C244.918 208.257 245.139 208.477 245.139 208.697Z" fill="white"/>
<path opacity="0.7" d="M211.135 176.239C211.135 176.46 210.915 176.68 210.695 176.68C210.474 176.68 210.254 176.46 210.254 176.239C210.254 176.019 210.474 175.799 210.695 175.799C210.915 175.799 211.135 176.019 211.135 176.239Z" fill="white"/>
<path opacity="0.7" d="M259.114 174.357C259.114 175.018 258.453 175.678 257.792 175.678C257.131 175.678 256.47 175.018 256.47 174.357C256.47 173.697 257.131 173.037 257.792 173.037C258.674 173.257 259.114 173.697 259.114 174.357Z" fill="white"/>
<path opacity="0.7" d="M95.0184 169.189C95.0184 168.749 95.2387 168.529 95.6793 168.529C96.12 168.529 96.3403 168.749 96.3403 169.189C96.3403 169.63 96.12 169.85 95.6793 169.85C95.459 169.85 95.0184 169.63 95.0184 169.189Z" fill="white"/>
<path opacity="0.7" d="M109.015 171.471C109.015 171.251 109.235 171.031 109.456 171.031C109.676 171.031 109.896 171.251 109.896 171.471C109.896 171.691 109.676 171.911 109.456 171.911C109.235 171.911 109.015 171.691 109.015 171.471Z" fill="white"/>
<path opacity="0.7" d="M67.9552 167.726C67.9552 167.506 68.1755 167.286 68.3958 167.286C68.6162 167.286 68.8365 167.506 68.8365 167.726C68.8365 167.946 68.6162 168.166 68.3958 168.166C68.1755 168.386 67.9552 168.166 67.9552 167.726Z" fill="white"/>
<path opacity="0.7" d="M62.5044 178.894C62.5044 178.674 62.7247 178.454 62.945 178.454C63.1653 178.454 63.3856 178.674 63.3856 178.894C63.3856 179.114 63.1653 179.334 62.945 179.334C62.7247 179.334 62.5044 179.114 62.5044 178.894Z" fill="white"/>
<path opacity="0.7" d="M111.16 193.184C111.16 192.964 111.381 192.744 111.601 192.744C111.821 192.744 112.042 192.964 112.042 193.184C112.042 193.405 111.821 193.625 111.601 193.625C111.381 193.625 111.16 193.405 111.16 193.184Z" fill="white"/>
<path opacity="0.7" d="M120.88 164.185C120.88 163.745 121.101 163.525 121.541 163.525C121.982 163.525 122.202 163.745 122.202 164.185C122.202 164.625 121.982 164.845 121.541 164.845C121.321 164.845 120.88 164.625 120.88 164.185Z" fill="white"/>
<path opacity="0.7" d="M157.106 183.991C157.106 183.551 157.546 183.111 157.987 183.111C158.428 183.111 158.868 183.551 158.868 183.991C158.868 184.431 158.428 184.872 157.987 184.872C157.546 184.872 157.106 184.431 157.106 183.991Z" fill="white"/>
<path opacity="0.7" d="M121.391 187.586C121.391 187.145 121.831 186.705 122.272 186.705C122.713 186.705 123.153 187.145 123.153 187.586C123.153 188.026 122.713 188.466 122.272 188.466C121.831 188.466 121.391 188.026 121.391 187.586Z" fill="white"/>
<path opacity="0.7" d="M102.681 157.908C102.681 157.688 102.901 157.468 103.122 157.468C103.342 157.468 103.562 157.688 103.562 157.908C103.562 158.128 103.342 158.348 103.122 158.348C102.901 158.568 102.681 158.348 102.681 157.908Z" fill="white"/>
<path opacity="0.7" d="M49.9387 166.343C49.9387 165.903 50.3793 165.463 50.8199 165.463C51.2606 165.463 51.7012 165.903 51.7012 166.343C51.7012 166.783 51.2606 167.223 50.8199 167.223C50.3793 167.223 49.9387 166.783 49.9387 166.343Z" fill="white"/>
<path opacity="0.7" d="M40.2826 177.726C40.2826 177.286 40.7232 176.846 41.1639 176.846C41.6045 176.846 42.0452 177.286 42.0452 177.726C42.0452 178.166 41.6045 178.606 41.1639 178.606C40.5029 178.606 40.2826 178.166 40.2826 177.726Z" fill="white"/>
<path opacity="0.7" d="M4.56726 181.32C4.56726 180.88 5.00788 180.44 5.44852 180.44C5.88915 180.44 6.32977 180.88 6.32977 181.32C6.32977 181.76 5.88915 182.201 5.44852 182.201C4.78757 182.201 4.56726 181.76 4.56726 181.32Z" fill="white"/>
<path opacity="0.7" d="M21.798 193.252C21.798 192.812 22.0183 192.592 22.459 192.592C22.8996 192.592 23.1199 192.812 23.1199 193.252C23.1199 193.692 22.8996 193.912 22.459 193.912C22.0183 193.912 21.798 193.692 21.798 193.252Z" fill="white"/>
<g opacity="0.7">
<path opacity="0.7" d="M128.817 176.03L128.596 172.729L125.292 172.509L128.596 172.289L128.817 168.988L129.037 172.289L132.342 172.509L129.037 172.729L128.817 176.03Z" fill="white"/>
<path opacity="0.7" d="M127.494 174.05L128.596 172.509L127.494 170.969L128.816 172.289L130.358 170.969L129.036 172.509L130.358 173.83L128.816 172.729L127.494 174.05Z" fill="white"/>
</g>
<g opacity="0.7">
<path opacity="0.7" d="M176.555 158.094L176.335 154.793L173.03 154.573L176.335 154.353L176.555 151.052L176.775 154.353L180.08 154.573L176.775 154.793L176.555 158.094Z" fill="white"/>
<path opacity="0.7" d="M175.232 156.114L176.334 154.573L175.232 153.033L176.554 154.353L178.097 153.033L176.775 154.573L178.097 155.894L176.554 154.793L175.232 156.114Z" fill="white"/>
</g>
<g opacity="0.7">
<path opacity="0.7" d="M151.866 328.181L151.425 325.1L148.341 324.66H151.425L151.866 321.139L152.086 324.66H155.391L152.086 325.1L151.866 328.181Z" fill="white"/>
<path opacity="0.7" d="M150.323 326.201L151.425 324.88L150.323 323.34L151.645 324.44L153.408 323.34L152.086 324.66L153.408 326.201L151.865 325.1L150.323 326.201Z" fill="white"/>
</g>
</svg>
