<svg width="300" height="183" viewBox="0 0 300 183" fill="none" xmlns="http://www.w3.org/2000/svg">
<g filter="url(#filter0_d_4_71)">
<path d="M39 82.5C33.5 83.5 4 132 0 142V184H300V142C295.5 128.5 258.5 61 250 61C242.5 61.5 222 100.5 213.5 118C201.5 94.5 149.5 5.5 141 4.5C131.5 7 94.5 80 74.5 124C60.5323 106.165 44 83.5 39 82.5Z" fill="#424548"/>
</g>
<path d="M112.74 52.4455C118.745 40.2291 137.125 10.4347 140.983 9C144.883 9.96697 161.285 35.7124 171.026 51.8784C171.291 52.3182 170.795 52.8195 170.347 52.5701C164.584 49.3688 161.799 48.4541 156.632 52.8287C156.206 53.1891 155.565 53.1563 155.19 52.7434C148.565 45.4443 144.384 44.6045 134.88 52.8869C134.488 53.2285 133.895 53.2218 133.503 52.8803C127.493 47.6453 121.287 48.3056 113.47 53.0691C113.041 53.3302 112.519 52.896 112.74 52.4455Z" fill="white"/>
<path d="M19.5536 115.168C24.4688 106.675 36.2253 87 39 87C41.8355 87 56.2848 106.207 61.6603 115.491C61.9117 115.925 61.4111 116.417 60.9497 116.22C57.4463 114.724 54.3724 115.295 51.2799 117.822C50.8425 118.179 50.1954 118.142 49.8027 117.736C45.686 113.479 40.9372 113.027 35.2057 117.88C34.8035 118.221 34.2074 118.212 33.8032 117.873C30.1944 114.851 25.049 113.803 20.3515 115.962C19.8718 116.182 19.2892 115.625 19.5536 115.168Z" fill="white"/>
<path d="M231.226 92.417C235.687 84.7724 247.08 65 250 65C252.558 65 265.649 84.7406 269.393 92.621C269.6 93.0558 269.116 93.4733 268.686 93.2552C265.498 91.6344 262.954 91.821 260.138 94.2432C259.688 94.6305 258.999 94.5927 258.599 94.1535C254.814 89.9946 250.452 89.5631 245.201 94.3059C244.789 94.6785 244.153 94.669 243.733 94.3052C240.519 91.523 236.218 91.1446 232.07 93.2371C231.585 93.4818 230.952 92.8863 231.226 92.417Z" fill="white"/>
<g filter="url(#filter1_d_4_71)">
<path d="M102.852 143.355L121.815 121L140.778 143.355H102.852Z" fill="#14322C"/>
<path d="M95.7407 163.677L121.815 133.194L147.889 163.677H95.7407Z" fill="#14322C"/>
<path d="M91 184L123 145.387L155 184H91Z" fill="#14322C"/>
</g>
<g filter="url(#filter2_d_4_71)">
<path d="M168.909 157.548L181.564 143L194.219 157.548H168.909Z" fill="#74958F"/>
<path d="M164.164 170.774L181.564 150.935L198.964 170.774H164.164Z" fill="#74958F"/>
<path d="M161 184L182.355 158.871L203.71 184H161Z" fill="#74958F"/>
</g>
<g filter="url(#filter3_d_4_71)">
<path d="M148.693 162.71L157.802 151L166.91 162.71H148.693Z" fill="#14322C"/>
<path d="M145.277 173.355L157.802 157.387L170.326 173.355H145.277Z" fill="#14322C"/>
<path d="M143 184L158.371 163.774L173.742 184H143Z" fill="#14322C"/>
</g>
<g filter="url(#filter4_d_4_71)">
<path d="M43.8219 149.306L56.3368 130.774L68.8518 149.306H43.8219Z" fill="#14322C"/>
<path d="M39.1287 166.153L56.3368 140.882L73.5449 166.153H39.1287Z" fill="#14322C"/>
<path d="M36 183L57.119 150.99L78.238 183H36Z" fill="#14322C"/>
</g>
<g filter="url(#filter5_d_4_71)">
<path d="M244.305 147.226L260.792 127L277.28 147.226H244.305Z" fill="#14322C"/>
<path d="M238.122 165.613L260.792 138.032L283.462 165.613H238.122Z" fill="#14322C"/>
<path d="M234 184L261.823 149.065L289.645 184H234Z" fill="#14322C"/>
</g>
<g filter="url(#filter6_d_4_71)">
<path d="M77.1857 153.968L83.8828 138L90.58 153.968H77.1857Z" fill="#74958F"/>
<path d="M74.6743 168.484L83.8829 146.71L93.0914 168.484H74.6743Z" fill="#74958F"/>
<path d="M73 183L84.3014 155.419L95.6028 183H73Z" fill="#74958F"/>
</g>
<g filter="url(#filter7_d_4_71)">
<path d="M283.182 160.068L290.025 146.905L296.868 160.068H283.182Z" fill="#74958F"/>
<path d="M280.616 172.034L290.025 154.084L299.434 172.034H280.616Z" fill="#74958F"/>
<path d="M278.905 184L290.452 161.264L302 184H278.905Z" fill="#74958F"/>
</g>
<g filter="url(#filter8_d_4_71)">
<path d="M18.1531 165.351L26.398 155.643L34.643 165.351H18.1531Z" fill="#74958F"/>
<path d="M15.0612 174.175L26.398 160.938L37.7348 174.175H15.0612Z" fill="#74958F"/>
<path d="M13 183L26.9133 166.233L40.8267 183H13Z" fill="#74958F"/>
</g>
<g filter="url(#filter9_d_4_71)">
<path d="M225.672 165.707L231.546 156L237.421 165.707H225.672Z" fill="#74958F"/>
<path d="M223.469 174.532L231.546 161.295L239.624 174.532H223.469Z" fill="#74958F"/>
<path d="M222 183.357L231.913 166.59L241.827 183.357H222Z" fill="#74958F"/>
</g>
<g filter="url(#filter10_d_4_71)">
<path d="M2.51851 161.06L8.14814 149L13.7778 161.06H2.51851Z" fill="#14322C"/>
<path d="M0.40741 172.024L8.14815 155.578L15.8889 172.024H0.40741Z" fill="#14322C"/>
<path d="M-1 182.988L8.5 162.157L18 182.988H-1Z" fill="#14322C"/>
</g>
<g filter="url(#filter11_d_4_71)">
<path d="M204.482 161.06L213.253 149L222.024 161.06H204.482Z" fill="#14322C"/>
<path d="M201.193 172.024L213.253 155.578L225.314 172.024H201.193Z" fill="#14322C"/>
<path d="M199 182.988L213.801 162.157L228.603 182.988H199Z" fill="#14322C"/>
</g>
<defs>
<filter id="filter0_d_4_71" x="-4" y="0.5" width="308" height="187.5" filterUnits="userSpaceOnUse" color-interpolation-filters="sRGB">
<feFlood flood-opacity="0" result="BackgroundImageFix"/>
<feColorMatrix in="SourceAlpha" type="matrix" values="0 0 0 0 0 0 0 0 0 0 0 0 0 0 0 0 0 0 127 0" result="hardAlpha"/>
<feOffset/>
<feGaussianBlur stdDeviation="2"/>
<feComposite in2="hardAlpha" operator="out"/>
<feColorMatrix type="matrix" values="0 0 0 0 0 0 0 0 0 0 0 0 0 0 0 0 0 0 0.25 0"/>
<feBlend mode="normal" in2="BackgroundImageFix" result="effect1_dropShadow_4_71"/>
<feBlend mode="normal" in="SourceGraphic" in2="effect1_dropShadow_4_71" result="shape"/>
</filter>
<filter id="filter1_d_4_71" x="89" y="117" width="72" height="71" filterUnits="userSpaceOnUse" color-interpolation-filters="sRGB">
<feFlood flood-opacity="0" result="BackgroundImageFix"/>
<feColorMatrix in="SourceAlpha" type="matrix" values="0 0 0 0 0 0 0 0 0 0 0 0 0 0 0 0 0 0 127 0" result="hardAlpha"/>
<feOffset dx="2"/>
<feGaussianBlur stdDeviation="2"/>
<feComposite in2="hardAlpha" operator="out"/>
<feColorMatrix type="matrix" values="0 0 0 0 0 0 0 0 0 0 0 0 0 0 0 0 0 0 0.25 0"/>
<feBlend mode="normal" in2="BackgroundImageFix" result="effect1_dropShadow_4_71"/>
<feBlend mode="normal" in="SourceGraphic" in2="effect1_dropShadow_4_71" result="shape"/>
</filter>
<filter id="filter2_d_4_71" x="157" y="139" width="50.7097" height="49" filterUnits="userSpaceOnUse" color-interpolation-filters="sRGB">
<feFlood flood-opacity="0" result="BackgroundImageFix"/>
<feColorMatrix in="SourceAlpha" type="matrix" values="0 0 0 0 0 0 0 0 0 0 0 0 0 0 0 0 0 0 127 0" result="hardAlpha"/>
<feOffset/>
<feGaussianBlur stdDeviation="2"/>
<feComposite in2="hardAlpha" operator="out"/>
<feColorMatrix type="matrix" values="0 0 0 0 0 0 0 0 0 0 0 0 0 0 0 0 0 0 0.25 0"/>
<feBlend mode="normal" in2="BackgroundImageFix" result="effect1_dropShadow_4_71"/>
<feBlend mode="normal" in="SourceGraphic" in2="effect1_dropShadow_4_71" result="shape"/>
</filter>
<filter id="filter3_d_4_71" x="139" y="147" width="38.7419" height="41" filterUnits="userSpaceOnUse" color-interpolation-filters="sRGB">
<feFlood flood-opacity="0" result="BackgroundImageFix"/>
<feColorMatrix in="SourceAlpha" type="matrix" values="0 0 0 0 0 0 0 0 0 0 0 0 0 0 0 0 0 0 127 0" result="hardAlpha"/>
<feOffset/>
<feGaussianBlur stdDeviation="2"/>
<feComposite in2="hardAlpha" operator="out"/>
<feColorMatrix type="matrix" values="0 0 0 0 0 0 0 0 0 0 0 0 0 0 0 0 0 0 0.25 0"/>
<feBlend mode="normal" in2="BackgroundImageFix" result="effect1_dropShadow_4_71"/>
<feBlend mode="normal" in="SourceGraphic" in2="effect1_dropShadow_4_71" result="shape"/>
</filter>
<filter id="filter4_d_4_71" x="32" y="126.774" width="50.238" height="60.2262" filterUnits="userSpaceOnUse" color-interpolation-filters="sRGB">
<feFlood flood-opacity="0" result="BackgroundImageFix"/>
<feColorMatrix in="SourceAlpha" type="matrix" values="0 0 0 0 0 0 0 0 0 0 0 0 0 0 0 0 0 0 127 0" result="hardAlpha"/>
<feOffset/>
<feGaussianBlur stdDeviation="2"/>
<feComposite in2="hardAlpha" operator="out"/>
<feColorMatrix type="matrix" values="0 0 0 0 0 0 0 0 0 0 0 0 0 0 0 0 0 0 0.25 0"/>
<feBlend mode="normal" in2="BackgroundImageFix" result="effect1_dropShadow_4_71"/>
<feBlend mode="normal" in="SourceGraphic" in2="effect1_dropShadow_4_71" result="shape"/>
</filter>
<filter id="filter5_d_4_71" x="230" y="123" width="63.6452" height="65" filterUnits="userSpaceOnUse" color-interpolation-filters="sRGB">
<feFlood flood-opacity="0" result="BackgroundImageFix"/>
<feColorMatrix in="SourceAlpha" type="matrix" values="0 0 0 0 0 0 0 0 0 0 0 0 0 0 0 0 0 0 127 0" result="hardAlpha"/>
<feOffset/>
<feGaussianBlur stdDeviation="2"/>
<feComposite in2="hardAlpha" operator="out"/>
<feColorMatrix type="matrix" values="0 0 0 0 0 0 0 0 0 0 0 0 0 0 0 0 0 0 0.25 0"/>
<feBlend mode="normal" in2="BackgroundImageFix" result="effect1_dropShadow_4_71"/>
<feBlend mode="normal" in="SourceGraphic" in2="effect1_dropShadow_4_71" result="shape"/>
</filter>
<filter id="filter6_d_4_71" x="69" y="134" width="30.6028" height="53" filterUnits="userSpaceOnUse" color-interpolation-filters="sRGB">
<feFlood flood-opacity="0" result="BackgroundImageFix"/>
<feColorMatrix in="SourceAlpha" type="matrix" values="0 0 0 0 0 0 0 0 0 0 0 0 0 0 0 0 0 0 127 0" result="hardAlpha"/>
<feOffset/>
<feGaussianBlur stdDeviation="2"/>
<feComposite in2="hardAlpha" operator="out"/>
<feColorMatrix type="matrix" values="0 0 0 0 0 0 0 0 0 0 0 0 0 0 0 0 0 0 0.25 0"/>
<feBlend mode="normal" in2="BackgroundImageFix" result="effect1_dropShadow_4_71"/>
<feBlend mode="normal" in="SourceGraphic" in2="effect1_dropShadow_4_71" result="shape"/>
</filter>
<filter id="filter7_d_4_71" x="274.905" y="142.905" width="31.0952" height="45.0952" filterUnits="userSpaceOnUse" color-interpolation-filters="sRGB">
<feFlood flood-opacity="0" result="BackgroundImageFix"/>
<feColorMatrix in="SourceAlpha" type="matrix" values="0 0 0 0 0 0 0 0 0 0 0 0 0 0 0 0 0 0 127 0" result="hardAlpha"/>
<feOffset/>
<feGaussianBlur stdDeviation="2"/>
<feComposite in2="hardAlpha" operator="out"/>
<feColorMatrix type="matrix" values="0 0 0 0 0 0 0 0 0 0 0 0 0 0 0 0 0 0 0.25 0"/>
<feBlend mode="normal" in2="BackgroundImageFix" result="effect1_dropShadow_4_71"/>
<feBlend mode="normal" in="SourceGraphic" in2="effect1_dropShadow_4_71" result="shape"/>
</filter>
<filter id="filter8_d_4_71" x="9" y="151.643" width="35.8267" height="35.3566" filterUnits="userSpaceOnUse" color-interpolation-filters="sRGB">
<feFlood flood-opacity="0" result="BackgroundImageFix"/>
<feColorMatrix in="SourceAlpha" type="matrix" values="0 0 0 0 0 0 0 0 0 0 0 0 0 0 0 0 0 0 127 0" result="hardAlpha"/>
<feOffset/>
<feGaussianBlur stdDeviation="2"/>
<feComposite in2="hardAlpha" operator="out"/>
<feColorMatrix type="matrix" values="0 0 0 0 0 0 0 0 0 0 0 0 0 0 0 0 0 0 0.25 0"/>
<feBlend mode="normal" in2="BackgroundImageFix" result="effect1_dropShadow_4_71"/>
<feBlend mode="normal" in="SourceGraphic" in2="effect1_dropShadow_4_71" result="shape"/>
</filter>
<filter id="filter9_d_4_71" x="218" y="152" width="27.8267" height="35.3566" filterUnits="userSpaceOnUse" color-interpolation-filters="sRGB">
<feFlood flood-opacity="0" result="BackgroundImageFix"/>
<feColorMatrix in="SourceAlpha" type="matrix" values="0 0 0 0 0 0 0 0 0 0 0 0 0 0 0 0 0 0 127 0" result="hardAlpha"/>
<feOffset/>
<feGaussianBlur stdDeviation="2"/>
<feComposite in2="hardAlpha" operator="out"/>
<feColorMatrix type="matrix" values="0 0 0 0 0 0 0 0 0 0 0 0 0 0 0 0 0 0 0.25 0"/>
<feBlend mode="normal" in2="BackgroundImageFix" result="effect1_dropShadow_4_71"/>
<feBlend mode="normal" in="SourceGraphic" in2="effect1_dropShadow_4_71" result="shape"/>
</filter>
<filter id="filter10_d_4_71" x="-5" y="145" width="27" height="41.9884" filterUnits="userSpaceOnUse" color-interpolation-filters="sRGB">
<feFlood flood-opacity="0" result="BackgroundImageFix"/>
<feColorMatrix in="SourceAlpha" type="matrix" values="0 0 0 0 0 0 0 0 0 0 0 0 0 0 0 0 0 0 127 0" result="hardAlpha"/>
<feOffset/>
<feGaussianBlur stdDeviation="2"/>
<feComposite in2="hardAlpha" operator="out"/>
<feColorMatrix type="matrix" values="0 0 0 0 0 0 0 0 0 0 0 0 0 0 0 0 0 0 0.25 0"/>
<feBlend mode="normal" in2="BackgroundImageFix" result="effect1_dropShadow_4_71"/>
<feBlend mode="normal" in="SourceGraphic" in2="effect1_dropShadow_4_71" result="shape"/>
</filter>
<filter id="filter11_d_4_71" x="195" y="145" width="37.6028" height="41.9884" filterUnits="userSpaceOnUse" color-interpolation-filters="sRGB">
<feFlood flood-opacity="0" result="BackgroundImageFix"/>
<feColorMatrix in="SourceAlpha" type="matrix" values="0 0 0 0 0 0 0 0 0 0 0 0 0 0 0 0 0 0 127 0" result="hardAlpha"/>
<feOffset/>
<feGaussianBlur stdDeviation="2"/>
<feComposite in2="hardAlpha" operator="out"/>
<feColorMatrix type="matrix" values="0 0 0 0 0 0 0 0 0 0 0 0 0 0 0 0 0 0 0.25 0"/>
<feBlend mode="normal" in2="BackgroundImageFix" result="effect1_dropShadow_4_71"/>
<feBlend mode="normal" in="SourceGraphic" in2="effect1_dropShadow_4_71" result="shape"/>
</filter>
</defs>
</svg>
