<svg width="318" height="259" viewBox="0 0 318 259" fill="none" xmlns="http://www.w3.org/2000/svg">
<circle cx="51.5525" cy="46.792" r="2.14352" fill="white" fill-opacity="0.8"/>
<circle cx="51.5525" cy="200.053" r="2.14352" fill="white" fill-opacity="0.8"/>
<circle cx="75.1312" cy="191.479" r="2.14352" fill="white" fill-opacity="0.8"/>
<circle cx="286.268" cy="208.627" r="2.14352" fill="white" fill-opacity="0.8"/>
<circle cx="244.469" cy="230.063" r="2.14352" fill="white" fill-opacity="0.8"/>
<circle cx="155.513" cy="230.063" r="2.14352" fill="white" fill-opacity="0.8"/>
<circle cx="26.9022" cy="126.102" r="2.14352" fill="white" fill-opacity="0.8"/>
<circle cx="6.53878" cy="12.4958" r="2.14352" fill="white" fill-opacity="0.8"/>
<circle cx="140.508" cy="48.9355" r="2.14352" fill="white" fill-opacity="0.8"/>
<circle cx="55.8396" cy="105.739" r="2.14352" fill="white" fill-opacity="0.8"/>
<circle cx="97.6381" cy="84.3035" r="2.14352" fill="white" fill-opacity="0.8"/>
<circle cx="97.6381" cy="36.0744" r="2.14352" fill="white" fill-opacity="0.8"/>
<circle cx="209.101" cy="123.959" r="2.14352" fill="white" fill-opacity="0.8"/>
<circle cx="272.335" cy="70.3707" r="2.14352" fill="white" fill-opacity="0.8"/>
<circle cx="305.559" cy="33.9309" r="2.14352" fill="white" fill-opacity="0.8"/>
<circle cx="255.187" cy="16.7828" r="2.14352" fill="white" fill-opacity="0.8"/>
<circle cx="186.594" cy="18.9263" r="2.14352" fill="white" fill-opacity="0.8"/>
<circle cx="200.527" cy="53.2226" r="2.14352" fill="white" fill-opacity="0.8"/>
<circle cx="233.751" cy="105.739" r="2.14352" fill="white" fill-opacity="0.8"/>
<circle cx="284.124" cy="151.824" r="2.14352" fill="white" fill-opacity="0.8"/>
<circle cx="318.42" cy="110.026" r="2.14352" fill="white" fill-opacity="0.8"/>
<circle cx="195.704" cy="200.589" r="1.60764" fill="white" fill-opacity="0.8"/>
<circle cx="251.435" cy="149.145" r="1.60764" fill="white" fill-opacity="0.8"/>
<circle cx="207.493" cy="158.791" r="1.60764" fill="white" fill-opacity="0.8"/>
<circle cx="230" cy="4.45757" r="1.60764" fill="white" fill-opacity="0.8"/>
<circle cx="123.896" cy="125.566" r="1.60764" fill="white" fill-opacity="0.8"/>
<circle cx="151.762" cy="106.275" r="1.60764" fill="white" fill-opacity="0.8"/>
<circle cx="152.834" cy="19.4622" r="1.60764" fill="white" fill-opacity="0.8"/>
<circle cx="86.3847" cy="65.5478" r="1.60764" fill="white" fill-opacity="0.8"/>
<circle cx="103.533" cy="154.504" r="1.60764" fill="white" fill-opacity="0.8"/>
<circle cx="30.6533" cy="177.011" r="1.60764" fill="white" fill-opacity="0.8"/>
<circle cx="59.5907" cy="0.170548" r="1.60764" fill="white" fill-opacity="0.8"/>
<circle cx="17.7922" cy="76.2653" r="1.60764" fill="white" fill-opacity="0.8"/>
<circle cx="40.2992" cy="101.988" r="1.60764" fill="white" fill-opacity="0.8"/>
<circle cx="10.2899" cy="47.3279" r="1.60764" fill="white" fill-opacity="0.8"/>
<circle cx="7.07456" cy="209.163" r="1.60764" fill="white" fill-opacity="0.8"/>
<circle cx="26.3663" cy="240.244" r="1.60764" fill="white" fill-opacity="0.8"/>
<circle cx="-1.49942" cy="254.177" r="1.60764" fill="white" fill-opacity="0.8"/>
<circle cx="192.489" cy="243.46" r="1.60764" fill="white" fill-opacity="0.8"/>
<circle cx="248.22" cy="193.087" r="1.60764" fill="white" fill-opacity="0.8"/>
<circle cx="306.095" cy="257.392" r="1.60764" fill="white" fill-opacity="0.8"/>
<circle cx="281.98" cy="104.667" r="1.07176" fill="white" fill-opacity="0.8"/>
<circle cx="304.487" cy="155.04" r="1.07176" fill="white" fill-opacity="0.8"/>
<circle cx="305.559" cy="196.838" r="1.07176" fill="white" fill-opacity="0.8"/>
<circle cx="71.916" cy="220.417" r="1.07176" fill="white" fill-opacity="0.8"/>
<circle cx="62.2701" cy="246.139" r="1.07176" fill="white" fill-opacity="0.8"/>
<circle cx="154.441" cy="148.609" r="1.07176" fill="white" fill-opacity="0.8"/>
<circle cx="255.187" cy="120.743" r="1.07176" fill="white" fill-opacity="0.8"/>
<circle cx="230.536" cy="69.2989" r="1.07176" fill="white" fill-opacity="0.8"/>
<circle cx="228.392" cy="30.7156" r="1.07176" fill="white" fill-opacity="0.8"/>
<circle cx="271.263" cy="39.2897" r="1.07176" fill="white" fill-opacity="0.8"/>
<circle cx="302.344" cy="1.77819" r="1.07176" fill="white" fill-opacity="0.8"/>
<circle cx="126.576" cy="9.28049" r="1.07176" fill="white" fill-opacity="0.8"/>
<circle cx="173.733" cy="72.5142" r="1.07176" fill="white" fill-opacity="0.8"/>
<circle cx="168.374" cy="1.77819" r="1.07176" fill="white" fill-opacity="0.8"/>
<circle cx="305.559" cy="63.9401" r="1.07176" fill="white" fill-opacity="0.8"/>
<circle cx="191.953" cy="131.461" r="1.07176" fill="white" fill-opacity="0.8"/>
<circle cx="54.7678" cy="22.1416" r="1.07176" fill="white" fill-opacity="0.8"/>
<circle cx="6.53868" cy="161.47" r="1.07176" fill="white" fill-opacity="0.8"/>
<circle cx="57.983" cy="162.542" r="1.07176" fill="white" fill-opacity="0.8"/>
<circle cx="60.1266" cy="122.887" r="1.07176" fill="white" fill-opacity="0.8"/>
<circle cx="1.18003" cy="113.241" r="1.07176" fill="white" fill-opacity="0.8"/>
<circle cx="94.4228" cy="13.5675" r="1.07176" fill="white" fill-opacity="0.8"/>
<circle cx="128.719" cy="175.403" r="1.07176" fill="white" fill-opacity="0.8"/>
<circle cx="78.3465" cy="129.317" r="1.07176" fill="white" fill-opacity="0.8"/>
<circle cx="100.853" cy="239.708" r="1.07176" fill="white" fill-opacity="0.8"/>
<circle cx="165.159" cy="251.498" r="1.07176" fill="white" fill-opacity="0.8"/>
<circle cx="263.761" cy="249.354" r="1.07176" fill="white" fill-opacity="0.8"/>
<circle cx="165.695" cy="172.724" r="1.60764" fill="white" fill-opacity="0.8"/>
<circle cx="120.681" cy="210.235" r="1.60764" fill="white" fill-opacity="0.8"/>
<circle cx="112.107" cy="62.3325" r="1.60764" fill="white" fill-opacity="0.8"/>
<circle cx="55.3037" cy="74.1218" r="1.60764" fill="white" fill-opacity="0.8"/>
</svg>
